SplineFontDB: 3.0
FontName: SPSutsakhorn-Oblique
FullName: SP Sutsakhorn Oblique
FamilyName: SP Sutsakhorn
Weight: Book
Copyright: Copyright (c) 2006 by Department of Intellectual Property (DIP), Ministry of Commerce and Software Industry Promotion Agency (Public Organization) (SIPA). All rights reserved.
Version: 2.1
ItalicAngle: -12
UnderlinePosition: -55
UnderlineWidth: 50
Ascent: 1638
Descent: 410
LayerCount: 2
Layer: 0 0 "Back" 
Layer: 1 0 "Fore" 
NeedsXUIDChange: 1
XUID: [1021 375 425136265 3448779]
FSType: 0
OS2Version: 3
OS2_WeightWidthSlopeOnly: 0
OS2_UseTypoMetrics: 1
CreationTime: 1152588240
ModificationTime: 1211190376
PfmFamily: 17
TTFWeight: 400
TTFWidth: 5
LineGap: 123
VLineGap: 0
Panose: 2 0 5 6 0 0 0 2 0 4
OS2TypoAscent: 0
OS2TypoAOffset: 1
OS2TypoDescent: 0
OS2TypoDOffset: 1
OS2TypoLinegap: 0
OS2WinAscent: -35
OS2WinAOffset: 1
OS2WinDescent: 190
OS2WinDOffset: 1
HheadAscent: -35
HheadAOffset: 1
HheadDescent: 239
HheadDOffset: 1
OS2SubXSize: 1434
OS2SubYSize: 1331
OS2SubXOff: 0
OS2SubYOff: 287
OS2SupXSize: 1434
OS2SupYSize: 1331
OS2SupXOff: 0
OS2SupYOff: 977
OS2StrikeYSize: 49
OS2StrikeYPos: 399
OS2FamilyClass: 773
OS2Vendor: 'IPTH'
Lookup: 4 0 0 "'frac' Diagonal Fractions in Latin lookup 0"  {"'frac' Diagonal Fractions in Latin lookup 0 subtable"  } ['frac' ('latn' <'dflt' > ) ]
Lookup: 6 0 0 "'liga' Standard Ligatures in Latin lookup 1"  {"'liga' Standard Ligatures in Latin lookup 1 subtable"  } ['liga' ('latn' <'dflt' > ) ]
Lookup: 6 0 0 "'liga' Standard Ligatures in Latin lookup 2"  {"'liga' Standard Ligatures in Latin lookup 2 subtable"  } ['liga' ('latn' <'dflt' > ) ]
Lookup: 6 0 0 "'liga' Standard Ligatures in Latin lookup 3"  {"'liga' Standard Ligatures in Latin lookup 3 subtable"  } ['liga' ('latn' <'dflt' > ) ]
Lookup: 6 0 0 "'liga' Standard Ligatures in Latin lookup 4"  {"'liga' Standard Ligatures in Latin lookup 4 subtable"  } ['liga' ('latn' <'dflt' > ) ]

StartChar: .notdef
Encoding: 65536 -1 0
Width: 1811
VWidth: 3622
Flags: W
HStem: 25 99<598.949 1270.04 1270.04 1477> 48 90<317.293 664.586 664.586 1083.41> 2402 90<1214.65 1980.92> 2412 98<814.19 1164.44>
LayerCount: 2
Fore
SplineSet
1728 2492 m 0x20
 1864 2492 1985 2495 2045 2503 c 1
 2061 2500 2069 2494 2069 2482 c 0
 2069 2467 1621 432 1618 418 c 2
 1561 166 l 2
 1546 104 1538 65 1537 49 c 0
 1536 33 1520 25 1489 25 c 0xa0
 1217 38 945 48 582 48 c 0
 450 48 317 46 253 35 c 1
 237 38 231 42 231 58 c 0
 231 79 244 124 264 224 c 2
 734 2366 l 2
 748 2430 755 2463 755 2464 c 0
 762 2500 777 2510 863 2510 c 0x50
 977 2510 1216 2492 1728 2492 c 0x20
315 138 m 1x60
 457 134 669 131 1024 131 c 0
 1165 131 1316 129 1477 124 c 1
 1932 2190 l 2
 1957 2304 1975 2375 1985 2402 c 1
 1495 2402 l 2xa0
 1081 2406 921 2412 858 2412 c 0x10
 818 2412 818 2409 817 2402 c 0
 815 2389 763 2163 724 1980 c 2
 344 270 l 2
 328 200 318 157 315 138 c 1x60
EndSplineSet
EndChar

StartChar: uni0E01
Encoding: 3585 3585 5
Width: 1455
VWidth: 3622
Flags: W
HStem: 1254 64<730.813 1211.21>
VStem: 357 62<-58.875 -16.0476> 545 60<442.514 722.801> 1355 67<539.163 1113.87>
LayerCount: 2
Fore
SplineSet
357 -40 m 0
 357 -20 545 517 545 681 c 0
 545 700 541 712 534 718 c 1
 515 729 378 780 294 822 c 0
 266 837 252 854 252 875 c 0
 252 973 557 1318 991 1318 c 0
 1306 1318 1422 1209 1422 921 c 0
 1422 753 1369 491 1295 66 c 2
 1274 -58 l 2
 1271 -76 1259 -85 1237 -85 c 0
 1221 -85 1213 -77 1213 -60 c 0
 1213 -12 1355 664 1355 894 c 0
 1355 1135 1272 1254 976 1254 c 0
 642 1254 338 1012 317 884 c 1
 328 879 339 875 352 870 c 1
 389 846 486 834 573 775 c 0
 599 760 605 723 605 682 c 0
 605 590 566 436 527 310 c 2
 419 -35 l 1
 416 -55 404 -65 384 -65 c 0
 366 -65 357 -57 357 -40 c 0
EndSplineSet
EndChar

StartChar: uni0E02
Encoding: 3586 3586 6
Width: 1068
VWidth: 3622
Flags: W
HStem: 0 58<561.329 806.888> 798 46<340.157 558.819> 1145 54<479 595.191> 1281 49<506.874 751.777>
VStem: 272 44<869.306 1052.46> 470 58<89.2857 441.713> 619 55<942.863 1121.16> 812 49<1005.6 1225.33>
LayerCount: 2
Fore
SplineSet
484 1145 m 0
 344 1145 316 1015 316 970 c 0
 316 907 344 844 454 844 c 0
 553 844 619 943 619 1028 c 0
 619 1082 592 1145 484 1145 c 0
272 956 m 0
 272 1077 389 1330 668 1330 c 0
 715 1330 789 1332 835 1255 c 0
 854 1222 861 1188 861 1160 c 0
 861 951 528 524 528 227 c 0
 528 155 553 58 649 58 c 0
 734 58 795 80 843 136 c 0
 915 223 928 293 944 392 c 2
 974 572 l 2
 985 642 998 718 1013 800 c 2
 1056 1030 l 2
 1090 1202 1112 1281 1123 1289 c 1
 1137 1296 1148 1300 1156 1300 c 0
 1170 1300 1173 1279 1173 1277 c 0
 1173 1266 1126 1161 1066 776 c 2
 1030 533 l 2
 993 291 951 -0 637 0 c 0
 518 0 470 94 470 211 c 0
 470 523 747 846 812 1144 c 1
 809 1257 706 1281 650 1281 c 0
 577 1281 494 1248 479 1199 c 1
 603 1199 674 1164 674 1047 c 0
 674 1000 674 941 594 868 c 0
 553 830 498 798 433 798 c 0
 300 802 272 892 272 956 c 0
EndSplineSet
EndChar

StartChar: uni0E03
Encoding: 3587 3587 7
Width: 1195
VWidth: 3622
Flags: W
HStem: -7 58<737.468 910.95> 794 46<344.188 556.75> 1135 50<471.645 602.847> 1268 59<492.132 675.437 840.381 947.449>
VStem: 266 57<861.814 1039.47> 613 62<122.947 401.315 942.111 1094.89> 952 49<977.707 1259.51>
LayerCount: 2
Fore
SplineSet
498 1135 m 0
 350 1135 323 1000 323 956 c 0
 323 863 390 840 454 840 c 0
 560 840 619 952 619 1032 c 0
 619 1071 605 1135 498 1135 c 0
709 1093 m 1
 709 1143 691 1268 605 1268 c 0
 549 1268 479 1239 469 1185 c 1
 635 1185 674 1128 674 1043 c 0
 674 1004 674 939 596 864 c 0
 561 830 506 794 437 794 c 0
 291 800 266 883 266 942 c 0
 266 1118 443 1327 630 1327 c 0
 715 1327 744 1247 754 1162 c 1
 766 1191 816 1318 909 1318 c 0
 982 1318 1001 1263 1001 1213 c 2
 1001 1143 l 2
 1001 1080 984 1013 862 768 c 2
 752 546 l 2
 694 423 675 337 675 285 c 0
 675 188 719 51 837 51 c 0
 966 51 1037 223 1060 322 c 0
 1062 329 1073 418 1106 581 c 2
 1194 1042 l 2
 1241 1284 1258 1325 1287 1325 c 0
 1299 1325 1311 1304 1311 1298 c 0
 1311 1280 1247 1168 1158 540 c 0
 1127 329 1091 126 934 24 c 0
 902 3 865 -7 824 -7 c 0
 698 -7 613 107 613 254 c 0
 613 347 653 459 698 551 c 2
 805 758 l 2
 901 937 952 1070 952 1169 c 0
 952 1238 942 1261 906 1261 c 0
 858 1261 831 1226 764 1093 c 1
 752 1089 743 1084 731 1084 c 0
 722 1084 715 1087 709 1093 c 1
EndSplineSet
EndChar

StartChar: uni0E04
Encoding: 3588 3588 8
Width: 1478
VWidth: 3622
Flags: W
HStem: 11 57<263.847 321.032 294 295> 409 47<696.352 930.127> 757 51<761.165 952.568> 1279 55<851.021 1229.87>
VStem: 235 52<73.0118 156.208> 1003 49<526.566 734.288> 1398 53<621.567 1096.47>
LayerCount: 2
Fore
SplineSet
1451 892 m 0
 1451 617 1304 4 1274 4 c 2
 1271 4 l 2
 1261 4 1259 -2 1254 -2 c 0
 1251 -2 1250 0 1249 4 c 1
 1249 10 1253 30 1261 64 c 2
 1335 405 l 2
 1392 678 1398 774 1398 866 c 0
 1398 1196 1219 1279 1033 1279 c 0
 782 1279 467 1016 371 577 c 0
 340 476 287 156 287 99 c 0
 287 79 289 68 293 68 c 0
 294 68 294 69 295 69 c 1
 340 87 419 198 470 285 c 2
 529 389 l 2
 659 625 672 808 895 808 c 0
 1000 808 1052 762 1052 671 c 0
 1052 576 1001 409 796 409 c 0
 720 409 672 454 637 493 c 1
 399 49 344 11 271 11 c 0
 239 13 235 41 235 76 c 0
 235 100 282 596 424 878 c 0
 572 1172 796 1334 1044 1334 c 0
 1333 1334 1451 1183 1451 892 c 0
1003 650 m 0
 1003 737 918 757 883 757 c 0
 756 757 701 661 665 527 c 1
 700 495 742 465 799 456 c 1
 859 456 1003 495 1003 650 c 0
EndSplineSet
EndChar

StartChar: uni0E05
Encoding: 3589 3589 9
Width: 1462
VWidth: 3622
Flags: MW
HStem: 11 57<263.018 349.089> 421 46<730.723 961.489> 764 55<771.899 983.216> 1261 73<782 798> 1272 72<1279 1307>
VStem: 219 67<68.9466 356.063> 1034 54<538.03 741.094> 1423 57<601.909 1206.29>
LayerCount: 2
Fore
SplineSet
798 1334 m 1
 893 1326 973 1225 1019 1134 c 1
 1053 1177 1183 1328 1307 1344 c 1
 1393 1332 1480 1270 1480 1007 c 0
 1480 813 1438 565 1320 28 c 1
 1306 7 1288 -10 1266 -10 c 0
 1258 -10 1254 -7 1254 0 c 0
 1254 16 1423 597 1423 967 c 0
 1423 1118 1394 1272 1279 1272 c 0
 1198 1272 1006 1043 1001 1037 c 1
 950 1130 860 1246 782 1261 c 1
 619 1205 380 850 324 480 c 0
 297 300 286 190 286 118 c 0
 286 85 289 68 295 68 c 0
 368 68 532 473 596 577 c 0
 665 720 742 819 916 819 c 0
 1031 819 1088 773 1088 681 c 0
 1088 588 1035 421 824 421 c 0
 769 421 683 437 621 504 c 1
 481 252 l 2
 376 55 348 11 271 11 c 0
 240 11 219 45 219 144 c 0
 219 390 358 1175 798 1334 c 1
1034 662 m 0
 1034 748 939 764 904 764 c 0
 809 764 736 733 658 543 c 1
 710 494 779 474 831 467 c 0
 889 467 1034 506 1034 662 c 0
EndSplineSet
EndChar

StartChar: uni0E06
Encoding: 3590 3590 10
Width: 1521
VWidth: 3622
Flags: W
HStem: -48 52<408.769 640.865> 366 56<478.523 677.842> 706 48<316.615 535.298> 1038 43<386.043 571.72> 1214 58<449.868 623.49 823.123 943>
VStem: 250 49<775.616 983.204> 320 50<75.8427 260.569> 589 53<810.211 1018.63> 944 59<1088.13 1192.21>
LayerCount: 2
Fore
SplineSet
459 1038 m 0
 337 1038 299 913 299 863 c 0
 299 785 351 754 436 754 c 0
 544 754 589 868 589 936 c 0
 589 1017 520 1038 459 1038 c 0
320 126 m 0
 320 323 500 422 622 422 c 0
 663 422 707 412 755 391 c 1
 767 444 782 505 800 574 c 2
 906 968 l 2
 944 1110 944 1120 944 1141 c 0
 944 1192 941 1206 867 1206 c 0
 841 1206 817 1187 796 1150 c 2
 734 1040 l 1
 715 1032 708 1031 701 1031 c 0
 692 1031 685 1034 679 1040 c 1
 679 1044 680 1048 680 1052 c 0
 680 1120 653 1214 524 1214 c 0
 482 1214 374 1197 354 1051 c 1
 397 1071 436 1081 471 1081 c 0
 567 1081 642 1030 642 929 c 0
 642 811 527 706 414 706 c 0
 303 709 250 755 250 865 c 0
 250 995 331 1272 562 1272 c 0
 600 1272 702 1253 720 1109 c 1
 730 1132 784 1265 879 1265 c 0
 942 1265 978 1247 988 1212 c 0
 998 1177 1003 1144 1003 1113 c 1
 910 759 l 2
 878 641 845 501 821 384 c 1
 1045 241 1180 134 1210 110 c 2
 1307 35 l 1
 1308 34 l 1
 1323 34 1402 328 1539 1032 c 2
 1578 1231 l 1
 1588 1252 1600 1263 1613 1263 c 0
 1630 1263 1636 1247 1636 1224 c 1
 1619 1166 1599 1083 1577 974 c 2
 1434 292 l 2
 1410 182 1391 96 1376 35 c 1
 1355 -12 1318 -22 1295 -22 c 0
 1286 -22 1276 -19 1265 -14 c 1
 1216 19 1176 49 1144 76 c 2
 1051 155 l 2
 960 230 883 278 807 322 c 1
 787 213 757 125 716 58 c 0
 676 -10 609 -45 515 -48 c 0
 359 -48 320 40 320 126 c 0
370 150 m 0
 370 111 393 4 517 4 c 0
 621 4 703 51 750 329 c 1
 701 354 657 366 617 366 c 0
 456 366 370 222 370 150 c 0
EndSplineSet
EndChar

StartChar: uni0E07
Encoding: 3591 3591 11
Width: 1199
VWidth: 3622
Flags: W
HStem: -4 66<777.313 900.189> 851 65<880.491 1138.94> 1282 55<944.696 1177.4>
VStem: 791 60<947.599 1177.94> 1216 66<1022.24 1243.16>
LayerCount: 2
Fore
SplineSet
1095 1337 m 0
 1193 1337 1282 1298 1282 1142 c 0
 1282 1089 1273 1030 1265 992 c 2
 1254 941 l 2
 1122 417 981 -4 849 -4 c 0
 766 -4 595 135 435 630 c 0
 371 828 338 1040 338 1053 c 0
 338 1075 365 1081 378 1081 c 0
 389 1081 395 1077 396 1068 c 0
 555 284 767 62 860 62 c 0
 928 62 1144 691 1187 906 c 2
 1192 930 l 1
 1151 889 1076 851 999 851 c 0
 832 851 791 958 791 1026 c 0
 791 1099 852 1337 1095 1337 c 0
851 1044 m 0
 851 993 873 916 1014 916 c 0
 1135 916 1216 1015 1216 1130 c 0
 1216 1223 1153 1282 1074 1282 c 0
 909 1282 851 1114 851 1044 c 0
EndSplineSet
EndChar

StartChar: uni0E08
Encoding: 3592 3592 12
Width: 1300
VWidth: 3622
Flags: W
HStem: 4 54<879.518 932.638> 439 58<635.375 857.4> 798 72<674.556 893.245> 1304 62<696.997 1135.98>
VStem: 545 66<546.186 698.064> 822 56<66.2768 296.225> 918 67<588.033 772.794> 1281 62<771.198 1155.83>
LayerCount: 2
Fore
SplineSet
1281 961 m 0
 1281 1127 1213 1304 943 1304 c 0
 739 1304 592 1240 462 1066 c 0
 341 901 363 735 314 735 c 0
 305 735 282 740 282 761 c 1
 282 761 325 1095 586 1266 c 0
 624 1291 735 1366 957 1366 c 0
 1072 1366 1158 1343 1214 1297 c 0
 1264 1255 1343 1173 1343 986 c 0
 1343 733 1192 261 1002 64 c 0
 964 24 930 4 901 4 c 0
 838 4 822 43 822 119 c 0
 822 244 871 363 884 485 c 1
 861 466 822 439 725 439 c 0
 656 439 608 461 581 506 c 0
 557 547 545 583 545 616 c 0
 545 732 667 870 814 870 c 0
 894 870 985 835 985 694 c 0
 985 656 978 608 964 550 c 2
 922 394 l 2
 881 236 878 151 878 124 c 0
 878 84 884 58 908 58 c 0
 911 58 l 0
 980 58 1201 493 1254 739 c 0
 1274 826 1281 917 1281 961 c 0
788 798 m 0
 640 798 611 654 611 613 c 0
 611 567 635 497 752 497 c 0
 856 497 918 599 918 679 c 0
 918 729 892 798 788 798 c 0
EndSplineSet
EndChar

StartChar: uni0E09
Encoding: 3593 3593 13
Width: 1478
VWidth: 3622
Flags: W
HStem: -7 51<1089.06 1289.52> 0 63<498.209 610.282> 352 53<278.074 495.584> 408 58<1202.97 1335.92> 706 55<320.845 542.938> 1258 65<650.31 1056.73>
VStem: 199 59<427.198 643.237> 456 65<31.5541 232.921> 560 70<516.862 687.409> 1026 58<48.1912 197.809> 1181 69<711.375 1124.41> 1368 48<178.544 375.972>
LayerCount: 2
Fore
SplineSet
305 848 m 0x7ff0
 305 848 385 1323 895 1323 c 0
 1014 1323 1100 1294 1152 1236 c 0
 1230 1149 1250 1045 1250 931 c 0
 1250 756 1184 519 1160 439 c 1
 1195 457 1228 466 1257 466 c 0
 1350 466 1416 382 1416 288 c 0
 1416 203 1352 -7 1150 -7 c 0xbff0
 1028 -7 1026 64 1026 112 c 0
 1026 166 1036 235 1056 318 c 1
 990 283 940 254 905 230 c 2
 808 165 l 2
 799 158 562 0 501 0 c 0
 474 0 456 20 456 84 c 0
 456 179 505 317 529 432 c 1
 495 380 432 352 347 352 c 0
 229 352 199 433 199 502 c 0
 199 589 270 761 448 761 c 0
 548 761 630 719 630 618 c 0
 630 594 625 568 617 539 c 2
 576 374 l 2
 554 288 521 144 521 86 c 0
 521 71 523 63 529 63 c 0
 550 63 801 225 906 299 c 2
 1093 425 l 1
 1175 747 1181 842 1181 914 c 0
 1181 1171 1057 1258 871 1258 c 0
 736 1258 632 1224 558 1156 c 0
 482 1086 423 991 380 870 c 0
 364 837 337 831 323 831 c 0
 311 831 305 836 305 848 c 0x7ff0
1368 274 m 0
 1368 341 1322 408 1240 408 c 0
 1217 408 1177 405 1125 356 c 1
 1096 221 l 2
 1088 182 1084 150 1084 123 c 0
 1084 60 1118 44 1160 44 c 0
 1314 44 1342 161 1360 221 c 0
 1365 239 1368 257 1368 274 c 0
442 706 m 0
 311 706 258 599 258 523 c 0
 258 429 323 405 387 405 c 0
 486 405 560 499 560 596 c 0
 560 650 536 706 442 706 c 0
EndSplineSet
EndChar

StartChar: uni0E0A
Encoding: 3594 3594 14
Width: 1137
VWidth: 3622
Flags: W
HStem: 0 58<603.151 782.007> 798 49<351.324 562.539> 1142 57<479 598.978> 1281 52<510.89 772.699>
VStem: 272 54<872.211 1088.58> 467 74<118.428 437.598> 622 52<942.93 1119.82> 812 53<1002.39 1242.58> 933 70<846.292 1026> 944 72<266.887 560.546 411.883 838.789>
LayerCount: 2
Fore
SplineSet
497 1142 m 0xff
 360 1142 326 1026 326 972 c 0
 326 916 353 847 459 847 c 0
 555 847 622 940 622 1027 c 0
 622 1073 597 1142 497 1142 c 0xff
467 198 m 0
 467 518 748 847 812 1144 c 1
 809 1257 706 1281 650 1281 c 0
 577 1281 494 1248 479 1199 c 1
 603 1199 674 1164 674 1047 c 0
 674 1000 674 941 594 868 c 0
 553 830 498 798 433 798 c 0
 300 802 272 892 272 956 c 0
 272 1054 365 1333 662 1333 c 0
 783 1333 865 1299 865 1164 c 0
 865 1072 816 922 706 703 c 2
 611 505 l 2
 590 460 541 360 541 226 c 0
 541 169 553 122 576 88 c 0
 589 68 611 58 641 58 c 0
 851 58 931 274 944 489 c 0xff40
 946 538 948 585 948 632 c 0
 948 787 933 919 933 976 c 0
 933 999 935 1018 937 1033 c 1
 1094 1283 1331 1411 1363 1411 c 0
 1382 1411 1386 1395 1386 1385 c 0
 1386 1340 1287 1334 1096 1146 c 0
 1055 1106 1024 1066 1003 1026 c 1
 1003 993 l 2xff80
 1003 896 1016 783 1016 619 c 0xff40
 1016 283 943 -0 654 -0 c 2
 637 0 l 2
 501 0 467 107 467 198 c 0
EndSplineSet
EndChar

StartChar: uni0E0B
Encoding: 3595 3595 15
Width: 1307
VWidth: 3622
Flags: W
HStem: -0 58<716.708 943.23> 794 46<344.188 556.682> 1135 44<432.762 602.637> 1268 59<518.972 678.356 834.453 951.518>
VStem: 266 57<861.814 1039.47> 616 68<100.05 347.735 905.677 1095.58> 960 68<1007.84 1259.54> 1082 69<263.614 835.524 828.424 842.624 842.624 1026>
LayerCount: 2
Fore
SplineSet
498 1135 m 0
 350 1135 323 1000 323 956 c 0
 323 863 390 840 454 840 c 0
 560 840 619 952 619 1032 c 0
 619 1071 605 1135 498 1135 c 0
616 198 m 0
 616 524 893 836 960 1144 c 1
 960 1235 938 1261 904 1261 c 0
 859 1261 832 1227 764 1093 c 1
 752 1089 743 1084 731 1084 c 0
 722 1084 715 1087 709 1093 c 1
 709 1143 691 1268 605 1268 c 0
 573 1268 502 1257 428 1171 c 1
 458 1177 485 1179 510 1179 c 0
 638 1179 673 1101 673 1034 c 0
 673 892 541 794 437 794 c 0
 291 800 266 883 266 942 c 0
 266 1118 443 1327 630 1327 c 0
 715 1327 744 1247 754 1162 c 1
 766 1191 816 1318 909 1318 c 0
 976 1318 1028 1294 1028 1196 c 0
 1028 1102 963 929 864 726 c 2
 765 520 l 2
 696 375 684 298 684 237 c 0
 684 159 706 58 798 58 c 0
 1070 58 1095 391 1095 637 c 0
 1095 793 1082 914 1082 984 c 0
 1082 1003 1082 1020 1084 1033 c 1
 1244 1284 1479 1411 1512 1411 c 0
 1530 1411 1535 1395 1535 1385 c 0
 1535 1339 1437 1336 1244 1146 c 0
 1203 1106 1172 1066 1151 1026 c 1
 1151 1006 l 2
 1151 887 1164 783 1164 612 c 0
 1164 282 1092 -0 802 -0 c 0
 701 0 616 40 616 198 c 0
EndSplineSet
EndChar

StartChar: uni0E0C
Encoding: 3596 3596 16
Width: 1779
VWidth: 3622
Flags: W
HStem: -2 50<793.194 992.484> 3 52<361.326 579.142 1560 1566.62> 325 58<851.105 1021.27> 348 46<435.038 622.106> 1232 60<642.097 961.669>
VStem: 286 61<72.5038 244.244> 454 65<686.474 822.01> 644 57<127.094 325.814> 728 55<71.6123 256.644> 1144 65<793.535 1113.74>
LayerCount: 2
Fore
SplineSet
1209 929 m 0x5fc0
 1209 812 1190 646 1116 345 c 1
 1560 69 l 1
 1566 69 1582 91 1624 294 c 2
 1721 778 l 2
 1750 928 1786 1094 1818 1228 c 1
 1820 1258 1835 1279 1857 1279 c 0
 1869 1279 1894 1269 1894 1231 c 0
 1894 1228 1893 1224 1893 1220 c 1
 1876 1163 1856 1081 1834 974 c 2
 1764 641 l 2
 1742 525 1718 414 1694 308 c 2
 1636 58 l 1
 1636 58 1610 -1 1552 -1 c 0
 1541 -1 1529 2 1518 7 c 1
 1113 276 l 1
 1099 190 1088 -2 854 -2 c 0
 803 -2 769 13 752 43 c 0
 736 72 728 103 728 136 c 0
 728 251 838 383 978 383 c 0xafc0
 1004 383 1033 378 1063 370 c 1
 1122 632 1144 796 1144 903 c 0
 1144 1134 1057 1232 799 1232 c 0
 494 1232 334 1043 304 941 c 1
 509 854 l 2
 516 850 519 839 519 823 c 0
 519 730 433 491 394 348 c 1
 457 401 492 394 547 394 c 0
 649 394 701 332 701 238 c 0
 701 135 603 3 434 3 c 0
 367 3 286 64 286 152 c 0
 286 196 318 310 338 375 c 2
 399 572 l 2
 406 597 454 754 454 799 c 0
 454 806 453 810 451 812 c 1
 428 824 404 835 379 844 c 2
 308 871 l 2
 263 888 231 902 231 922 c 0
 231 950 298 1164 624 1266 c 0
 681 1283 740 1292 803 1292 c 0
 843 1292 974 1286 1071 1242 c 0
 1171 1198 1209 1086 1209 929 c 0x5fc0
460 55 m 0x5fc0
 576 55 644 164 644 241 c 0
 644 303 595 348 522 348 c 0
 393 348 347 221 347 172 c 0
 347 118 369 55 460 55 c 0x5fc0
883 48 m 0xafc0
 1029 48 1051 194 1051 260 c 0
 1051 274 1051 287 1049 301 c 1
 1020 317 992 325 963 325 c 0
 858 325 783 226 783 145 c 0
 783 67 828 48 883 48 c 0xafc0
EndSplineSet
EndChar

StartChar: uni0E0D
Encoding: 3597 3597 17
Width: 1775
VWidth: 3622
Flags: W
HStem: -626 63<887.965 1284.04> -515 48<884 894.292 846.183 994.698> -184 61<833.536 1055.56> 7 69<1045 1140.51> 7 58<364.517 574.974 1102.96 1456.5 1456.5 1576.53> 348 46<436.819 623.436> 1231 60<677.838 1020.01>
VStem: 286 61<72.3082 244.42> 454 66<686.836 822.387> 644 57<124.974 325.01> 720 60<-449.163 -235.777> 1071 63<-392.549 -202.416> 1147 60<775.663 1092.81> 1684 78<-361.438 -96.5552>
LayerCount: 2
Fore
SplineSet
701 233 m 0xeffc
 701 161 625 3 431 3 c 0
 359 3 286 72 286 153 c 0
 286 197 324 332 338 375 c 2
 398 571 l 2
 433 676 454 773 454 804 c 0
 454 810 449 817 380 843 c 2
 306 871 l 2
 238 897 231 912 231 922 c 0
 231 974 350 1166 655 1263 c 0
 713 1281 769 1291 824 1291 c 0
 1130 1291 1207 1140 1207 909 c 0
 1207 820 1194 707 1167 570 c 2
 1045 76 l 1xf7fc
 1089 71 1202 65 1269 65 c 2
 1353 65 l 2
 1423 65 1490 66 1560 69 c 0
 1584 69 1667 459 1682 524 c 2
 1824 1235 l 1
 1825 1270 1847 1288 1862 1288 c 0
 1872 1288 1887 1279 1887 1255 c 0
 1887 1230 1880 1230 1858 1126 c 0
 1844 1061 1756 604 1729 474 c 2
 1695 310 l 2
 1672 205 1653 121 1636 58 c 1
 1611 10 1589 7 1520 7 c 0
 1022 7 l 0
 990 7 979 18 979 35 c 0
 979 39 979 43 980 48 c 2
 1100 547 l 2
 1131 676 1147 787 1147 880 c 0
 1147 1114 1047 1231 847 1231 c 0
 585 1231 341 1067 304 941 c 1
 509 854 l 1
 516 849 520 838 520 821 c 0
 520 737 432 489 394 348 c 1
 444 393 490 394 537 394 c 0
 624 394 701 362 701 233 c 0xeffc
460 55 m 0
 576 55 644 164 644 241 c 0
 644 303 595 348 522 348 c 0
 399 348 347 230 347 170 c 0
 347 113 369 55 460 55 c 0
905 -516 m 0
 893 -516 887 -515 884 -515 c 1
 884 -525 963 -563 1098 -563 c 0
 1109 -563 1341 -556 1470 -476 c 0
 1589 -403 1649 -264 1684 -156 c 1
 1699 -126 1704 -107 1736 -107 c 0
 1749 -107 1762 -115 1762 -129 c 1
 1762 -129 1698 -395 1528 -508 c 0
 1489 -535 1357 -626 1100 -626 c 0
 786 -626 720 -472 720 -370 c 0
 720 -242 807 -123 956 -123 c 0
 1105 -123 1134 -229 1134 -276 c 0
 1134 -380 1028 -516 905 -516 c 0
951 -184 m 0
 846 -184 780 -261 780 -346 c 0
 780 -452 847 -467 880 -467 c 0
 974 -467 1071 -376 1071 -280 c 0
 1071 -212 1014 -184 951 -184 c 0
EndSplineSet
Substitution2: "Single Substitution lookup 22 subtable" uni0E0D.alt1
Substitution2: "Single Substitution lookup 22 subtable" uni0E0D.alt1
EndChar

StartChar: uni0E0E
Encoding: 3598 3598 18
Width: 1376
VWidth: 3622
Flags: W
HStem: -667 53<78.3768 442.926> -287 57<273.584 606.665> -1 51<153.168 359.186> 346 45<194.206 405.914> 1265 59<688.101 1179.8>
VStem: 2 51<-585.181 -460.657> 74 54<75.1418 279.889> 562 63<696.29 860.277> 1318 71<564.07 1125.47>
LayerCount: 2
Fore
SplineSet
752 -184 m 0
 765 -184 779 -197 779 -213 c 0
 779 -215 779 -218 778 -221 c 2
 750 -318 l 1
 886 -383 937 -419 1047 -522 c 1
 1206 193 l 2
 1284 534 1318 753 1318 893 c 0
 1318 1157 1219 1265 962 1265 c 0
 588 1265 392 1052 366 975 c 1
 617 895 l 2
 623 893 625 882 625 864 c 0
 625 813 578 548 522 344 c 2
 474 173 l 2
 442 50 312 -1 243 -1 c 0
 178 -1 74 27 74 145 c 0
 74 213 122 391 327 391 c 0
 400 391 448 362 465 318 c 1
 518 513 562 724 562 826 c 0
 562 841 560 849 557 851 c 0
 536 864 510 874 478 882 c 2
 388 908 l 2
 306 930 290 939 290 956 c 0
 290 1008 496 1324 951 1324 c 0
 1304 1324 1389 1165 1389 926 c 0
 1389 794 1354 578 1282 265 c 2
 1196 -149 l 2
 1106 -486 1096 -632 1060 -632 c 0
 1005 -632 1056 -547 723 -377 c 1
 669 -562 420 -667 232 -667 c 0
 90 -667 2 -607 2 -516 c 0
 2 -478 20 -359 115 -298 c 0
 197 -244 276 -230 363 -230 c 0
 504 -230 638 -276 695 -308 c 1
 720 -218 l 1
 720 -191 741 -184 752 -184 c 0
306 346 m 0
 226 346 128 275 128 167 c 0
 128 100 176 50 254 50 c 0
 361 50 426 165 426 230 c 0
 426 323 362 346 306 346 c 0
53 -508 m 0
 53 -591 147 -614 228 -614 c 0
 414 -614 631 -506 672 -363 c 1
 611 -323 483 -287 366 -287 c 0
 301 -287 225 -296 150 -337 c 0
 66 -383 53 -482 53 -508 c 0
EndSplineSet
Substitution2: "Single Substitution lookup 22 subtable" uni0E0E.alt1
Substitution2: "Single Substitution lookup 22 subtable" uni0E0E.alt1
EndChar

StartChar: uni0E0F
Encoding: 3599 3599 19
Width: 1406
VWidth: 3622
Flags: W
HStem: -640 361<845 1015> -619 53<18.4182 215.215 515.162 573.471> -275 57<59.0486 282.382> -1 51<197.383 403.294> 346 45<266.858 450.475> 1267 58<721.584 1201.85>
VStem: -43 48<-549.391 -328.258> 118 54<74.2442 282.079> 313 44<-471.018 -363> 354 58<-235.704 -170.005> 606 62<693.704 860.277> 1350 61<528.236 1121.07>
LayerCount: 2
Fore
SplineSet
548 -555 m 0x7f70
 558 -555 780 -310 845 -279 c 1
 899 -279 971 -539 1037 -573 c 1
 1050 -567 1109 -399 1151 -184 c 2
 1236 193 l 2
 1322 581 1350 771 1350 895 c 0
 1350 1158 1244 1267 967 1267 c 0
 710 1267 527 1138 458 1049 c 0
 431 1014 415 989 410 975 c 1
 660 895 l 2
 666 893 668 882 668 864 c 0
 668 812 626 560 565 344 c 2
 516 173 l 2
 481 41 350 -1 287 -1 c 0
 223 -1 118 27 118 141 c 0
 118 202 164 299 195 328 c 0
 262 389 330 391 351 391 c 0
 463 391 499 346 509 318 c 1
 562 513 606 724 606 826 c 0
 606 841 604 849 601 851 c 0
 579 864 553 874 522 882 c 2
 432 908 l 2
 350 930 334 939 334 956 c 0
 334 1007 539 1325 977 1325 c 0
 1256 1325 1411 1235 1411 908 c 0
 1411 779 1384 581 1312 265 c 2
 1226 -149 l 1
 1154 -418 l 2
 1100 -618 1071 -640 1015 -640 c 0
 959 -640 873 -363 832 -363 c 0
 822 -363 805 -376 780 -402 c 2
 596 -590 l 2
 567 -619 546 -633 534 -633 c 0
 465 -633 399 -396 357 -363 c 1xbfb0
 349 -545 193 -619 105 -619 c 0
 59 -619 -43 -599 -43 -474 c 0
 -43 -367 -9 -322 14 -299 c 0
 63 -250 129 -218 205 -218 c 0
 258 -218 316 -236 338 -276 c 1
 354 -203 l 1
 354 -175 375 -170 386 -170 c 0
 396 -170 412 -177 412 -207 c 2
 403 -294 l 1
 463 -370 519 -555 548 -555 c 0x7f70
351 346 m 0
 265 346 172 271 172 167 c 0
 172 100 220 50 298 50 c 0
 398 50 470 155 470 229 c 0
 470 323 407 346 351 346 c 0
313 -336 m 0
 313 -314 254 -275 181 -275 c 0
 90 -275 5 -336 5 -449 c 2
 5 -452 l 2
 5 -543 58 -566 108 -566 c 0x7fb0
 183 -566 313 -488 313 -336 c 0
EndSplineSet
Substitution2: "Single Substitution lookup 22 subtable" uni0E0F.alt1
Substitution2: "Single Substitution lookup 22 subtable" uni0E0F.alt1
EndChar

StartChar: uni0E10
Encoding: 3600 3600 20
Width: 1271
VWidth: 3622
Flags: W
HStem: -666 49<-113.069 34.0116 266.181 319.586> -395 52<-108.914 73.2185 624.458 746.177> -117 48<664.658 809.515> 0 58<779.431 859.457> 348 50<496.002 721.684> 719 59<542.021 757.404> 874 63<362.912 773.64 724.87 822.409 822.409 1086.52 905.697 1139.38> 1014 61<1197.22 1311.03> 1254 57<619.683 941.51>
VStem: -197 50<-610.107 -434.182> 143 57<-351.193 -288.2 -308.523 -267.877> 259 81<942.494 1042.1> 406 64<451.045 642.586> 566 53<-322.653 -164.449> 710 67<68.4132 309.435> 790 59<493.384 686.415> 851 58<-264.908 -135.393> 1150 62<608.08 855.281>
LayerCount: 2
Fore
SplineSet
653 719 m 0
 525 719 470 582 470 520 c 0
 470 473 494 398 611 398 c 0
 709 398 790 494 790 583 c 0
 790 645 750 719 653 719 c 0
-147 -542 m 0
 -147 -605 -97 -617 -69 -617 c 0
 -20 -617 76 -577 85 -463 c 1
 73 -425 37 -395 -11 -395 c 0
 -69 -395 -147 -441 -147 -542 c 0
309 -611 m 0
 315 -611 495 -466 541 -449 c 1
 560 -449 584 -464 638 -527 c 2
 690 -586 l 2
 707 -606 723 -619 736 -626 c 1
 766 -579 796 -463 814 -348 c 1
 778 -370 l 2
 757 -381 728 -387 692 -387 c 0
 586 -387 566 -309 566 -265 c 0
 566 -196 622 -69 755 -69 c 0
 841 -69 909 -95 909 -201 c 0
 909 -211 908 -221 907 -232 c 1
 872 -377 l 2
 823 -611 802 -685 708 -685 c 0
 696 -685 682 -676 667 -658 c 2
 570 -544 l 2
 555 -527 543 -518 534 -518 c 0
 511 -518 421 -592 418 -595 c 2
 348 -652 l 2
 326 -668 310 -677 301 -677 c 0
 235 -677 155 -530 136 -481 c 1
 99 -604 -0 -666 -76 -666 c 0
 -118 -666 -197 -645 -197 -545 c 0
 -197 -383 -55 -343 9 -343 c 0
 55 -343 112 -360 119 -409 c 1
 130 -385 143 -360 143 -327 c 0
 143 -315 141 -303 138 -290 c 1
 139 -268 152 -256 173 -256 c 0
 189 -256 200 -269 200 -306 c 0
 200 -315 199 -324 197 -334 c 2
 187 -377 l 2
 184 -394 179 -410 173 -425 c 1
 212 -485 276 -611 309 -611 c 0
708 -341 m 0
 731 -341 851 -306 851 -209 c 0
 851 -143 783 -119 755 -117 c 0
 682 -117 619 -201 619 -265 c 0
 619 -326 659 -341 708 -341 c 0
1212 806 m 0
 1212 682 991 0 789 0 c 0
 742 0 710 27 710 116 c 0
 710 206 731 260 741 391 c 1
 718 373 683 348 587 348 c 0
 516 348 468 370 442 414 c 0
 418 454 406 490 406 523 c 0
 406 635 514 778 676 778 c 0
 814 778 849 682 849 593 c 0
 849 556 842 512 830 460 c 2
 799 320 l 2
 791 284 777 211 777 139 c 0
 777 87 783 58 807 58 c 0
 890 58 1150 594 1150 782 c 0
 1150 845 1122 874 953 874 c 0
 684 874 595 868 505 868 c 0
 286 868 259 898 259 945 c 0
 259 1073 565 1311 807 1311 c 0
 1004 1311 1089 1256 1182 1112 c 0
 1198 1087 1222 1075 1254 1075 c 0
 1303 1075 1312 1118 1316 1134 c 0
 1319 1145 1330 1151 1350 1151 c 0
 1368 1151 1377 1146 1377 1135 c 0
 1377 1084 1301 1014 1240 1014 c 0
 1105 1014 1120 1123 976 1218 c 0
 940 1242 883 1254 805 1254 c 0
 609 1254 340 1069 340 967 c 0
 340 941 390 935 579 935 c 0
 678 935 777 937 1075 937 c 0
 1083 938 1091 938 1098 938 c 0
 1189 938 1212 873 1212 806 c 0
EndSplineSet
Substitution2: "Single Substitution lookup 22 subtable" uni0E10.alt1
Substitution2: "Single Substitution lookup 22 subtable" uni0E10.alt1
EndChar

StartChar: uni0E11
Encoding: 3601 3601 21
Width: 1648
VWidth: 3622
Flags: W
HStem: 706 48<321.392 539.766> 1038 43<389.825 575.212> 1213 59<430.287 631.224 820.4 951.056> 1220 62<1346.51 1578.34>
VStem: 253 49<775.337 981.822> 592 54<807.29 1018.69> 956 59<933.209 1202.93> 1614 63<624.816 1185.84>
LayerCount: 2
Fore
SplineSet
463 1038 m 0xcf
 343 1038 302 917 302 864 c 0
 302 785 355 754 439 754 c 0
 551 754 592 871 592 937 c 0
 592 1017 524 1038 463 1038 c 0xcf
781 7 m 0
 770 7 755 12 755 27 c 0
 755 75 772 35 890 699 c 0
 930 938 956 1041 956 1121 c 0
 956 1177 943 1206 888 1206 c 0
 817 1202 820 1148 759 1040 c 1
 748 1033 726 1021 718 1021 c 0
 709 1021 700 1027 693 1040 c 1
 693 1144 629 1213 547 1213 c 1
 459 1197 357 1149 357 1054 c 2
 357 1051 l 1
 400 1071 439 1081 474 1081 c 0
 571 1081 646 1030 646 929 c 0
 646 813 532 706 417 706 c 0
 306 706 253 755 253 865 c 0
 253 1013 355 1272 573 1272 c 0xef
 604 1272 714 1256 736 1109 c 1
 777 1211 826 1265 900 1265 c 0
 997 1265 1015 1210 1015 1130 c 0
 1015 1024 981 837 929 601 c 1
 974 741 1162 1282 1511 1282 c 0
 1581 1280 1677 1244 1677 998 c 0
 1677 702 1543 253 1493 25 c 1
 1481 7 1466 -4 1453 -4 c 0
 1441 -4 1434 6 1431 25 c 1
 1518 386 l 2
 1572 601 1614 831 1614 986 c 0
 1614 1132 1589 1220 1491 1220 c 0xdf
 1360 1220 1239 1118 1127 914 c 0
 1014 708 936 509 892 316 c 0
 823 7 822 7 781 7 c 0
EndSplineSet
EndChar

StartChar: uni0E12
Encoding: 3602 3602 22
Width: 1912
VWidth: 3622
Flags: W
HStem: -11 55<272.467 406.508 982.373 1152.8> 325 58<1014.76 1184.95> 409 47<524.358 700.463> 757 55<569.463 786.243> 1206 66<610.756 842.12 1114.2 1305.8>
VStem: 236 55<49.7582 216.782> 446 59<475.113 687.194> 813 63<501.845 728.924> 883 62<60.8966 255.183> 1348 58<724.67 1192.15>
LayerCount: 2
Fore
SplineSet
621 456 m 0
 740 456 813 573 813 641 c 0
 813 709 756 757 685 757 c 0
 546 757 505 622 505 578 c 0
 505 518 528 456 621 456 c 0
883 139 m 0
 883 239 983 383 1140 383 c 0
 1168 383 1197 379 1229 370 c 1
 1297 667 l 2
 1327 899 1348 937 1348 1052 c 0
 1348 1209 1280 1210 1237 1210 c 0
 1076 1210 995 1012 968 946 c 0
 961 933 951 927 939 927 c 0
 922 927 914 935 914 950 c 1
 882 1118 864 1206 732 1206 c 0
 558 1206 382 1001 297 221 c 0
 293 181 291 148 291 120 c 0
 291 80 294 44 310 44 c 0
 405 44 761 361 807 529 c 1
 782 440 661 409 612 409 c 0
 523 409 446 441 446 568 c 0
 446 651 544 812 700 812 c 0
 758 812 876 770 876 645 c 0
 876 458 680 175 421 40 c 0
 335 -5 291 -11 278 -11 c 0
 253 -11 236 17 236 107 c 0
 236 208 294 728 392 954 c 0
 503 1211 640 1272 746 1272 c 0
 827 1272 881 1247 908 1198 c 0
 936 1148 951 1088 952 1017 c 1
 980 1125 1072 1272 1252 1272 c 0
 1344 1272 1406 1247 1406 1083 c 0
 1406 937 1354 670 1288 352 c 1
 1700 65 l 1
 1725 65 1848 672 1868 771 c 2
 1960 1228 l 2
 1969 1254 1981 1267 1993 1267 c 0
 2006 1267 2020 1257 2025 1220 c 1
 2009 1163 1990 1082 1967 976 c 2
 1828 316 l 2
 1781 98 1772 -1 1692 -1 c 0
 1681 -1 1670 2 1659 7 c 1
 1275 276 l 1
 1262 181 1248 -1 1028 -1 c 0
 903 -1 883 88 883 139 c 0
1060 48 m 0
 1184 48 1215 188 1215 259 c 0
 1215 273 1214 287 1212 301 c 1
 1185 317 1156 325 1127 325 c 0
 1023 325 945 225 945 147 c 0
 945 59 1006 48 1060 48 c 0
EndSplineSet
EndChar

StartChar: uni0E13
Encoding: 3603 3603 23
Width: 1963
VWidth: 3622
Flags: W
HStem: -8 52<370.713 562.808 1612.93 1788.94> 315 57<1692.18 1835.87> 336 48<433.967 619.708> 1240 59<577.416 1018.71>
VStem: 284 60<62.0065 235.624> 454 65<681.72 822.01> 642 58<147.979 312.775> 1131 58<645.137 1136.36> 1542 59<47.6379 186.021> 1861 55<156.426 290.641>
LayerCount: 2
Fore
SplineSet
809 1299 m 0xbfc0
 1145 1299 1189 1121 1189 962 c 0
 1189 749 1130 660 1033 55 c 1
 1594 333 l 1
 1783 1251 l 1
 1794 1281 1809 1291 1827 1291 c 0
 1842 1291 1852 1282 1854 1265 c 1
 1782 855 1730 746 1663 359 c 1
 1696 367 1726 372 1752 372 c 0xdfc0
 1846 372 1916 314 1916 209 c 0
 1916 180 1911 111 1834 33 c 0
 1804 3 1763 -13 1710 -13 c 0
 1626 -13 1542 14 1542 122 c 0
 1542 142 1545 162 1550 183 c 2
 1572 265 l 1
 1051 4 l 2
 1033 -3 1018 -7 1005 -7 c 0
 968 -7 959 17 959 48 c 1
 1038 416 l 2
 1080 618 1131 782 1131 956 c 0
 1131 1107 1090 1240 795 1240 c 0
 554 1240 347 1086 304 941 c 1
 509 854 l 2
 516 850 519 839 519 823 c 0
 519 726 429 475 393 336 c 1
 441 381 481 384 527 384 c 0
 620 384 700 353 700 229 c 0
 700 204 695 136 610 55 c 0
 563 11 507 -8 431 -8 c 0
 373 -8 284 45 284 145 c 0
 284 181 302 253 336 366 c 2
 398 569 l 2
 405 592 454 753 454 799 c 0
 454 806 453 810 451 812 c 1
 428 824 404 835 379 844 c 2
 308 871 l 2
 263 888 231 902 231 922 c 0
 231 1013 452 1299 809 1299 c 0xbfc0
458 44 m 0
 572 44 642 152 642 226 c 0
 642 287 596 336 520 336 c 0xbfc0
 390 336 344 208 344 162 c 0
 344 108 367 44 458 44 c 0
1861 199 m 0
 1861 249 1826 315 1743 315 c 0xdfc0
 1714 315 1682 307 1647 290 c 1
 1616 234 1601 183 1601 136 c 0
 1601 82 1621 35 1702 35 c 0
 1834 35 1861 160 1861 199 c 0
EndSplineSet
EndChar

StartChar: uni0E14
Encoding: 3604 3604 24
Width: 1445
VWidth: 3622
Flags: W
HStem: -11 62<281.876 437.772> 449 48<674.824 840.44> 798 46<719.092 923.064> 1258 65<793.849 1133.84>
VStem: 238 70<57.0651 456.825> 591 60<545.824 725.367> 943 62<533.039 777.448> 1375 56<714.644 1041.44>
LayerCount: 2
Fore
SplineSet
1375 816 m 0
 1375 993 1301 1258 991 1258 c 0
 698 1258 454 978 380 619 c 0
 343 440 308 238 308 121 c 0
 308 74 314 51 327 51 c 0
 470 51 909 415 936 570 c 1
 914 477 804 449 759 449 c 0
 624 449 591 536 591 604 c 0
 591 673 671 844 842 844 c 0
 924 844 1005 771 1005 657 c 0
 1005 611 1000 540 912 425 c 0
 717 169 413 -11 295 -11 c 0
 255 -11 238 30 238 112 c 0
 238 215 279 447 315 626 c 0
 414 1151 787 1323 1003 1323 c 0
 1042 1323 1091 1317 1152 1304 c 0
 1355 1263 1431 1043 1431 846 c 0
 1431 770 1422 682 1404 580 c 2
 1288 11 l 1
 1276 1 1266 -4 1258 -4 c 0
 1236 -4 1229 7 1229 7 c 1
 1346 573 l 2
 1365 665 1375 746 1375 816 c 0
769 497 m 0
 893 497 943 631 943 687 c 0
 943 744 906 798 831 798 c 0
 706 798 651 673 651 621 c 0
 651 583 664 497 769 497 c 0
EndSplineSet
EndChar

StartChar: uni0E15
Encoding: 3605 3605 25
Width: 1445
VWidth: 3622
Flags: W
HStem: -11 62<273.468 423.546> 409 47<534.592 705.017> 757 55<579.031 790.151> 1251 56<667.476 865.657 1165.38 1370.98>
VStem: 237 59<51.5797 445.98> 458 57<474.613 690.078> 815 61<502.487 730.445> 1407 66<803.533 1217.07>
LayerCount: 2
Fore
SplineSet
297 -11 m 0
 249 -11 237 51 237 115 c 0
 237 197 330 1158 650 1284 c 0
 688 1299 725 1307 759 1307 c 0
 953 1307 996 1134 1001 1061 c 1
 1026 1128 1121 1307 1300 1307 c 0
 1438 1307 1473 1201 1473 1039 c 0
 1473 934 1453 809 1429 692 c 2
 1288 11 l 1
 1277 1 1267 -4 1258 -4 c 0
 1236 -4 1229 7 1229 7 c 1
 1357 623 l 2
 1370 682 1407 862 1407 1021 c 0
 1407 1130 1389 1254 1288 1254 c 0
 1180 1254 1085 1158 1019 989 c 1
 1012 977 1002 971 991 971 c 0
 976 971 968 977 968 989 c 0
 968 992 l 0
 911 1216 835 1251 746 1251 c 0
 527 1251 417 833 384 670 c 0
 362 562 296 238 296 130 c 0
 296 69 310 51 331 51 c 0
 427 51 765 362 808 529 c 1
 783 437 664 409 619 409 c 0
 531 409 458 441 458 570 c 0
 458 646 550 812 706 812 c 0
 750 812 876 778 876 644 c 0
 876 349 465 -11 297 -11 c 0
628 456 m 0
 746 456 815 575 815 641 c 0
 815 709 760 757 690 757 c 0
 555 757 515 619 515 577 c 0
 515 518 538 456 628 456 c 0
EndSplineSet
EndChar

StartChar: uni0E16
Encoding: 3606 3606 26
Width: 1372
VWidth: 3622
Flags: W
HStem: 3 52<412.427 619.66> 348 46<479.986 669.026> 1261 59<648.498 1216.38>
VStem: 337 57<73.7153 244.429> 509 64<722.787 860.868> 692 56<127.879 323.502> 1342 58<732.395 1139.56>
LayerCount: 2
Fore
SplineSet
748 254 m 0
 748 105 625 3 480 3 c 0
 416 3 337 57 337 150 c 0
 337 188 358 274 389 380 c 2
 450 592 l 2
 491 737 509 815 509 839 c 0
 509 845 508 849 506 851 c 1
 485 864 459 874 428 882 c 2
 337 908 l 2
 244 933 239 938 239 960 c 1
 295 1132 555 1320 943 1320 c 0
 1249 1320 1400 1248 1400 963 c 0
 1400 865 1384 746 1352 604 c 2
 1217 25 l 2
 1210 5 1195 -3 1181 -3 c 0
 1168 -3 1158 5 1151 21 c 1
 1320 667 1342 809 1342 943 c 0
 1342 1206 1210 1261 963 1261 c 0
 550 1261 345 1065 315 975 c 1
 566 895 l 1
 571 891 573 881 573 867 c 0
 573 766 479 491 442 348 c 1
 495 392 516 394 572 394 c 0
 723 394 748 310 748 254 c 0
508 55 m 0
 618 55 692 164 692 240 c 0
 692 302 641 348 570 348 c 0
 437 348 394 217 394 170 c 0
 394 118 417 55 508 55 c 0
EndSplineSet
EndChar

StartChar: uni0E17
Encoding: 3607 3607 27
Width: 1469
VWidth: 3622
Flags: W
HStem: 837 62<384.815 647.743> 1219 72<1293.69 1412.66> 1279 55<460.705 706.283>
VStem: 294 63<928.771 1168.61> 748 62<937.462 1237.77> 1445 69<719.565 1148.08>
LayerCount: 2
Fore
SplineSet
496 899 m 0xbc
 577 899 748 945 748 1132 c 0
 748 1250 648 1279 577 1279 c 0
 444 1279 357 1131 357 1035 c 0
 357 972 385 899 496 899 c 0xbc
1445 1057 m 0
 1445 1127 1431 1219 1357 1219 c 0xdc
 1346 1219 1332 1217 1318 1213 c 1
 990 1006 690 176 630 21 c 1
 611 0 594 -1 560 -1 c 0
 545 -1 519 5 519 35 c 0
 519 46 522 60 527 76 c 2
 715 927 l 1
 671 859 581 837 483 837 c 0
 331 837 294 950 294 1031 c 0
 294 1153 396 1334 594 1334 c 0xbc
 712 1334 810 1294 810 1133 c 0
 810 1034 743 743 735 708 c 2
 632 270 l 2
 611 180 588 73 598 73 c 1
 834 805 1180 1291 1367 1291 c 0xdc
 1392 1291 1435 1280 1450 1272 c 0
 1501 1245 1514 1157 1514 1065 c 0
 1514 773 1369 244 1320 14 c 1
 1311 8 1300 5 1287 5 c 0
 1268 5 1259 11 1259 26 c 0
 1259 108 1445 797 1445 1057 c 0
EndSplineSet
EndChar

StartChar: uni0E18
Encoding: 3608 3608 28
Width: 1188
VWidth: 3622
Flags: W
HStem: 12 59<334.463 425.208 379.835 711.284 646.999 775.569> 789 71<417.287 665.523 665.523 673 673 848.7 848.7 1000.5> 971 55<1174.9 1266.89> 1231 62<626.967 945.018>
VStem: 302 65<840.888 988.042> 1010 72<637.944 780.609>
LayerCount: 2
Fore
SplineSet
485 12 m 0
 361 12 302 16 255 28 c 1
 377 587 l 1
 389 616 405 628 423 628 c 0
 445 628 446 608 446 591 c 1
 334 76 l 1
 399 72 460 71 516 71 c 0
 629 71 789 76 891 87 c 1
 902 117 903 129 917 192 c 2
 971 446 l 2
 991 537 1010 635 1010 694 c 0
 1010 783 977 789 865 789 c 2
 481 801 l 2
 325 807 302 815 302 861 c 0
 302 973 495 1293 826 1293 c 0
 893 1293 1094 1286 1164 1068 c 0
 1174 1040 1187 1026 1206 1026 c 0
 1291 1026 1255 1130 1314 1130 c 0
 1331 1130 1339 1122 1339 1106 c 0
 1339 1073 1294 971 1197 971 c 0
 1158 971 1132 984 1117 1009 c 2
 1068 1096 l 2
 998 1214 895 1231 799 1231 c 0
 546 1231 367 952 367 896 c 0
 367 866 423 859 576 859 c 0
 648 859 684 860 755 860 c 0
 811 860 874 859 943 858 c 0
 1044 858 1082 841 1082 744 c 0
 1082 668 1052 526 1035 449 c 2
 962 104 l 1
 959 58 906 21 881 21 c 0
 564 14 643 12 485 12 c 0
EndSplineSet
EndChar

StartChar: uni0E19
Encoding: 3609 3609 29
Width: 1641
VWidth: 3622
Flags: W
HStem: -18 53<1237.53 1438.32> 6 69<587.989 655.79> 391 53<1325.12 1497.91> 789 58<366.533 631.833> 1235 51<442.59 692.201>
VStem: 282 53<878.936 1117.96> 735 60<949.78 1191.81> 1149 60<60.604 268.028> 1535 51<132.312 354.313>
LayerCount: 2
Fore
SplineSet
1149 180 m 0xbf80
 1149 230 1157 288 1173 352 c 1
 1106 315 1047 281 998 250 c 2
 740 84 l 2
 618 6 603 6 585 6 c 0
 572 6 531 11 531 65 c 1
 552 208 576 341 604 466 c 2
 700 881 l 1
 658 813 567 789 469 789 c 0
 317 789 282 902 282 984 c 0
 282 1111 383 1286 580 1286 c 0
 693 1286 795 1249 795 1099 c 0
 795 998 713 685 670 475 c 2
 628 272 l 2
 618 220 602 133 602 99 c 0
 602 83 605 75 611 75 c 0x7f80
 617 75 735 135 870 230 c 0
 961 293 1066 354 1185 412 c 1
 1230 601 1267 764 1296 902 c 2
 1376 1279 l 1
 1386 1297 1397 1306 1409 1306 c 0
 1422 1306 1441 1291 1441 1273 c 0
 1441 1267 1439 1261 1436 1254 c 1
 1367 920 1338 882 1251 421 c 1
 1311 437 1361 444 1401 444 c 0
 1477 444 1586 411 1586 276 c 0
 1586 148 1488 -18 1305 -18 c 0
 1211 -18 1149 34 1149 180 c 0xbf80
493 847 m 0
 581 847 735 914 735 1081 c 0
 735 1204 634 1235 565 1235 c 0
 429 1235 335 1086 335 988 c 0
 335 918 366 847 493 847 c 0
1535 248 m 0
 1535 339 1471 391 1381 391 c 0
 1342 391 1293 378 1233 352 c 1
 1217 289 1209 236 1209 192 c 0
 1209 99 1249 35 1318 35 c 0xbf80
 1454 35 1535 177 1535 248 c 0
EndSplineSet
EndChar

StartChar: uni0E1A
Encoding: 3610 3610 30
Width: 1542
VWidth: 3622
Flags: W
HStem: -4 69<741.155 1177.56 1177.56 1321> 815 59<473.995 739.095> 1261 50<551.743 799.407>
VStem: 388 53<907.097 1143.11> 841 60<975.687 1218.83> 1553 68<1225.04 1298.99>
LayerCount: 2
Fore
SplineSet
901 1126 m 0
 901 1016 765 423 681 73 c 1
 704 68 750 65 818 65 c 2
 1035 65 l 2
 1121 65 1216 66 1321 69 c 1
 1378 257 1438 606 1467 783 c 2
 1512 1034 l 2
 1526 1115 1540 1186 1553 1247 c 0
 1556 1288 1580 1299 1597 1299 c 0
 1607 1299 1621 1293 1621 1266 c 0
 1621 1255 1529 701 1519 643 c 2
 1459 304 l 2
 1439 196 1418 109 1396 44 c 1
 1389 2 1313 -4 1010 -4 c 0
 888 -4 681 -1 605 21 c 1
 732 565 l 2
 739 599 793 838 807 906 c 1
 771 847 693 815 580 815 c 0
 423 815 388 929 388 1010 c 0
 388 1140 495 1311 686 1311 c 0
 799 1311 901 1274 901 1126 c 0
603 874 m 0
 685 874 841 937 841 1108 c 0
 841 1210 773 1261 669 1261 c 0
 534 1261 441 1106 441 1013 c 0
 441 929 486 874 603 874 c 0
EndSplineSet
EndChar

StartChar: uni0E1B
Encoding: 3611 3611 31
Width: 1434
VWidth: 3622
Flags: W
HStem: 0 65<578 621.441 621.441 745.477 745.477 1017.95 1017.95 1082.02 1082.02 1166.89 1166.89 1229> 815 59<372.683 639.669> 1261 50<450.982 698.278>
VStem: 287 53<907.213 1142.78> 740 60<915.51 1218.48>
LayerCount: 2
Fore
SplineSet
1639 1890 m 0
 1639 1889 1316 148 1295 44 c 1
 1295 4 1278 -3 1210 -3 c 0
 1175 -3 1175 -1 1123 -1 c 0
 1059 -1 1037 -4 910 -4 c 0
 778 -4 712 0 581 0 c 0
 529 0 503 5 503 16 c 1
 503 16 657 667 706 906 c 1
 663 839 574 815 477 815 c 0
 323 815 287 928 287 1009 c 0
 287 1127 381 1311 585 1311 c 0
 699 1311 800 1274 800 1124 c 0
 800 1021 695 550 578 73 c 1
 602 68 649 65 719 65 c 2
 936 65 l 2
 1023 65 1121 66 1229 67 c 1
 1261 216 1288 347 1309 462 c 2
 1517 1628 l 2
 1536 1741 1552 1827 1565 1887 c 1
 1572 1903 1586 1911 1606 1911 c 0
 1634 1911 1639 1898 1639 1890 c 0
501 874 m 0
 588 874 740 940 740 1109 c 0
 740 1210 670 1261 568 1261 c 0
 431 1261 340 1104 340 1013 c 0
 340 945 372 874 501 874 c 0
EndSplineSet
EndChar

StartChar: uni0E1C
Encoding: 3612 3612 32
Width: 1268
VWidth: 3622
Flags: W
HStem: 4 83<271 272.828 978.196 1068.33> 825 55<504.776 738.476> 1266 62<555.042 804.767>
VStem: 839 64<984.157 1230.78>
LayerCount: 2
Fore
SplineSet
232 4 m 0
 205 4 198 24 198 50 c 0
 198 102 227 251 272 470 c 2
 379 985 l 2
 407 1158 507 1328 707 1328 c 0
 832 1328 903 1244 903 1140 c 0
 903 972 771 825 597 825 c 0
 496 825 437 899 430 920 c 1
 421 865 406 790 388 696 c 2
 282 181 l 2
 269 114 265 87 271 87 c 1
 527 282 636 437 731 594 c 0
 742 614 768 614 772 614 c 0
 788 614 797 606 798 591 c 0
 831 373 950 87 1051 87 c 0
 1065 87 1078 131 1144 438 c 2
 1222 817 l 2
 1251 961 1286 1114 1325 1275 c 0
 1332 1294 1343 1304 1356 1304 c 0
 1366 1304 1391 1297 1391 1272 c 0
 1391 1270 1390 1267 1390 1265 c 1
 1212 446 l 2
 1168 245 1134 116 1111 58 c 0
 1096 13 1048 4 1040 4 c 0
 992 6 937 48 875 130 c 0
 813 212 768 333 741 493 c 1
 657 314 334 4 232 4 c 0
696 1266 m 0
 511 1266 465 1105 465 1029 c 0
 465 942 529 880 610 880 c 0
 727 880 839 987 839 1127 c 0
 839 1238 751 1266 696 1266 c 0
EndSplineSet
EndChar

StartChar: uni0E1D
Encoding: 3613 3613 33
Width: 1278
VWidth: 3622
Flags: W
HStem: 0 83<272 276.813 975.473 1056.29> 825 55<504.776 738.476> 1266 62<555.042 804.767>
VStem: 839 64<984.157 1230.78>
LayerCount: 2
Fore
SplineSet
235 0 m 0
 207 0 200 22 200 52 c 0
 200 108 227 250 272 470 c 2
 379 985 l 2
 407 1158 507 1328 707 1328 c 0
 832 1328 903 1244 903 1140 c 0
 903 972 771 825 597 825 c 0
 496 825 437 899 430 920 c 1
 402 748 374 634 299 246 c 2
 277 125 l 2
 273 101 269 83 272 83 c 1
 385 151 526 263 727 594 c 0
 735 607 749 614 769 614 c 0
 819 614 766 545 914 238 c 0
 976 111 1003 75 1025 75 c 0
 1041 75 1051 76 1138 428 c 0
 1140 440 1405 1603 1472 1916 c 1
 1480 1936 1489 1946 1502 1946 c 0
 1512 1946 1534 1939 1534 1911 c 0
 1534 1905 l 1
 1534 1905 1358 1062 1334 958 c 2
 1254 603 l 2
 1224 474 1163 221 1109 80 c 0
 1095 47 1067 2 1005 2 c 0
 976 2 931 45 871 126 c 0
 809 211 765 333 738 493 c 1
 649 304 336 -0 235 0 c 0
696 1266 m 0
 511 1266 465 1105 465 1029 c 0
 465 942 529 880 610 880 c 0
 727 880 839 987 839 1127 c 0
 839 1238 751 1266 696 1266 c 0
EndSplineSet
EndChar

StartChar: uni0E1E
Encoding: 3614 3614 34
Width: 1507
VWidth: 3622
Flags: W
HStem: 7 83<1197.32 1271.72> 815 55<380.153 576.236> 1254 60<440.431 687.483>
VStem: 272 70<908.824 1153.35> 718 76<1004.95 1223.08>
LayerCount: 2
Fore
SplineSet
1634 1282 m 1
 1408 257 1321 11 1228 7 c 0
 1126 7 1073 305 1052 677 c 1
 919 330 668 7 573 7 c 0
 544 7 536 28 536 54 c 0
 536 81 542 125 554 186 c 2
 614 473 l 2
 640 595 670 753 704 946 c 1
 653 829 525 815 472 815 c 0
 340 815 272 906 272 1005 c 0
 272 1146 388 1314 571 1314 c 0
 749 1314 794 1240 794 1108 c 0
 794 1034 775 921 738 738 c 2
 678 444 l 2
 636 252 607 111 621 111 c 1
 663 124 938 500 1044 819 c 0
 1052 838 1066 847 1084 847 c 0
 1104 847 1113 839 1114 822 c 0
 1126 293 1186 90 1238 90 c 0
 1284 90 1380 436 1468 826 c 2
 1569 1282 l 1
 1576 1294 1588 1300 1604 1300 c 0
 1619 1300 1629 1294 1634 1282 c 1
492 870 m 0
 616 870 718 995 718 1111 c 0
 718 1182 689 1254 570 1254 c 0
 450 1254 342 1151 342 1013 c 0
 342 919 413 870 492 870 c 0
EndSplineSet
EndChar

StartChar: uni0E1F
Encoding: 3615 3615 35
Width: 1499
VWidth: 3622
Flags: W
HStem: 11 106<592.501 670.757> 11 90<1200.89 1267.18> 822 59<375.772 612.565> 1265 62<436.858 684.22>
VStem: 276 62<918.92 1164.31> 547 83<64.4555 374.318> 713 84<918.11 1236.62> 1606 122<1150.1 1983.08>
LayerCount: 2
Fore
SplineSet
1103 797 m 0xbf
 1103 554 1160 101 1245 101 c 0
 1284 101 1495 957 1606 1596 c 0
 1673 1964 1653 1976 1693 1976 c 0
 1703 1976 1728 1971 1728 1949 c 0
 1680 1518 1397 11 1245 11 c 0
 1162 11 1066 144 1037 706 c 1
 896 354 679 11 589 11 c 0x7f
 555 11 547 38 547 78 c 0
 547 164 591 378 618 505 c 2
 709 953 l 1
 663 862 565 822 478 822 c 0
 344 822 276 918 276 1016 c 0
 276 1162 393 1327 578 1327 c 0
 759 1327 797 1243 797 1126 c 0
 797 965 630 336 630 148 c 0
 630 127 634 117 640 117 c 256
 685 117 962 611 1029 847 c 0
 1040 872 1055 884 1074 884 c 0
 1094 884 1104 874 1104 854 c 0
 1103 836 1103 817 1103 797 c 0xbf
490 881 m 256
 608 881 713 1001 713 1122 c 0
 713 1236 645 1265 568 1265 c 0
 430 1265 338 1146 338 1021 c 0
 338 934 407 881 490 881 c 256
EndSplineSet
EndChar

StartChar: uni0E20
Encoding: 3616 3616 36
Width: 1386
VWidth: 3622
Flags: W
HStem: -2 49<154.328 362.366> 342 49<194.502 394.902> 1272 58<718.62 1250.68>
VStem: 74 57<72.1143 279.164> 562 71<674.341 859.904> 1353 73<703.579 1173.49>
LayerCount: 2
Fore
SplineSet
465 318 m 1
 518 513 562 724 562 826 c 0
 562 841 560 849 557 851 c 0
 481 896 307 915 307 955 c 0
 307 996 468 1330 1032 1330 c 0
 1282 1330 1426 1266 1426 1024 c 0
 1426 805 1360 645 1228 25 c 1
 1215 4 1206 -5 1192 -5 c 0
 1185 -5 1174 -3 1159 21 c 1
 1291 622 1353 787 1353 990 c 0
 1353 1216 1236 1272 1051 1272 c 0
 605 1272 421 1085 384 975 c 1
 624 895 l 1
 630 892 633 881 633 861 c 0
 633 793 584 488 492 173 c 0
 482 136 423 -2 254 -2 c 0
 174 -2 74 27 74 145 c 0
 74 237 148 391 311 391 c 0
 348 391 437 390 465 318 c 1
310 342 m 0
 224 342 131 269 131 164 c 0
 131 94 181 47 255 47 c 0
 354 47 429 148 429 224 c 0
 429 282 405 342 310 342 c 0
EndSplineSet
EndChar

StartChar: uni0E21
Encoding: 3617 3617 37
Width: 1282
VWidth: 3622
Flags: W
HStem: -18 46<221.077 489.049> 398 50<285.129 538.142> 794 50<392.745 655.888> 1242 47<469.246 719.812>
VStem: 141 49<61.3667 300.682> 307 53<877.885 1124.04> 768 65<998.538 1193.82>
LayerCount: 2
Fore
SplineSet
190 159 m 0
 190 67 260 28 351 28 c 0
 499 28 559 114 598 341 c 1
 557 369 497 398 421 398 c 0
 268 398 190 271 190 159 c 0
141 164 m 0
 141 333 290 448 438 448 c 0
 488 448 543 433 603 402 c 1
 727 884 l 1
 705 850 652 794 494 794 c 0
 343 794 307 906 307 987 c 0
 307 1109 406 1289 605 1289 c 0
 788 1289 833 1181 833 1089 c 0
 833 1074 832 1060 830 1044 c 2
 667 394 l 1
 880 217 876 191 1060 48 c 1
 1061 48 1061 47 1062 47 c 0
 1087 47 1228 748 1232 770 c 2
 1282 1020 l 2
 1330 1262 1329 1268 1361 1268 c 0
 1382 1268 1394 1248 1394 1210 c 1
 1376 1152 1356 1070 1334 964 c 2
 1190 297 l 2
 1167 191 1147 108 1132 48 c 1
 1110 -4 1070 -12 1051 -12 c 0
 1040 -12 1028 -9 1015 -4 c 1
 857 122 834 187 653 333 c 1
 596 25 465 -18 340 -18 c 0
 194 -18 141 54 141 164 c 0
520 844 m 0
 599 844 768 911 768 1086 c 0
 768 1189 689 1242 588 1242 c 0
 454 1242 360 1092 360 988 c 0
 360 873 437 844 520 844 c 0
EndSplineSet
EndChar

StartChar: uni0E22
Encoding: 3618 3618 38
Width: 1261
VWidth: 3622
Flags: W
HStem: 0 48<430.385 892.295> 594 58<478 548.831 548.831 663.467> 861 52<503.244 750.828> 1279 55<547.645 807.436>
VStem: 236 55<160.476 321.585> 346 48<674.621 883.221> 838 56<1003.14 1249.33>
LayerCount: 2
Fore
SplineSet
587 0 m 0
 396 0 236 112 236 254 c 0
 236 306 271 445 323 522 c 0
 354 568 394 605 442 633 c 1
 399 636 346 662 346 795 c 0
 346 811 356 1070 466 1217 c 0
 515 1283 593 1334 711 1334 c 0
 857 1334 894 1232 894 1151 c 0
 894 1035 799 861 617 861 c 0
 511 861 456 907 417 975 c 1
 413 958 394 872 394 803 c 0
 394 714 419 652 519 652 c 0
 562 652 570 651 577 651 c 2
 577 651 648 653 695 667 c 1
 696 662 696 658 696 653 c 0
 696 613 650 601 635 601 c 2
 478 594 l 1
 364 521 325 464 297 333 c 0
 293 314 291 296 291 279 c 0
 291 110 503 48 628 48 c 0
 1047 48 1119 292 1136 370 c 0
 1138 379 1294 1112 1332 1311 c 0
 1335 1326 1347 1334 1368 1334 c 0
 1386 1334 1395 1329 1395 1319 c 0
 1395 1318 1394 1316 1394 1314 c 1
 1194 373 l 2
 1134 121 955 -0 587 0 c 0
695 1279 m 0
 498 1279 457 1110 457 1056 c 0
 457 952 563 913 624 913 c 0
 761 913 838 1036 838 1137 c 0
 838 1207 809 1279 695 1279 c 0
EndSplineSet
EndChar

StartChar: uni0E23
Encoding: 3619 3619 39
Width: 1261
VWidth: 3622
Flags: W
HStem: 4 54<537.377 763.319> 366 59<578.424 803.228> 785 56<314.176 662.224 662.224 921.859> 957 53<1175.39 1268.63> 1217 62<599.006 956.646>
VStem: 247 67<822.909 970.353> 450 61<81.3959 296.804> 831 48<303.615 337.867> 946 50<512.544 759.825>
LayerCount: 2
Fore
SplineSet
842 844 m 0
 960 844 996 791 996 678 c 0
 996 644 992 605 983 564 c 2
 906 228 l 2
 867 61 743 4 637 4 c 0
 519 4 450 92 450 179 c 0
 450 277 549 425 713 425 c 0
 802 425 875 372 879 290 c 1
 879 291 946 597 946 667 c 0
 946 763 891 789 720 789 c 2
 426 785 l 2
 276 785 247 798 247 847 c 0
 247 977 487 1279 785 1279 c 0
 914 1279 1072 1250 1163 1052 c 0
 1176 1024 1191 1010 1210 1010 c 0
 1295 1010 1258 1116 1318 1116 c 0
 1335 1116 1343 1108 1343 1092 c 0
 1343 1060 1298 957 1201 957 c 0
 1162 957 1135 970 1118 995 c 0
 999 1176 922 1217 773 1217 c 0
 529 1217 314 956 314 880 c 0
 314 849 355 841 489 841 c 0
 559 841 630 844 842 844 c 0
511 177 m 0
 511 128 537 58 638 58 c 2
 639 58 l 2
 802 58 831 212 831 245 c 0
 831 291 799 366 702 366 c 0
 581 366 511 268 511 177 c 0
EndSplineSet
EndChar

StartChar: uni0E24
Encoding: 3620 3620 40
Width: 1379
VWidth: 3622
Flags: W
HStem: -1 52<402.223 607.696> 345 47<445.012 655.71> 1264 59<658.473 1176.15>
VStem: 319 64<69.6152 242.509> 506 65<730.593 860.791> 679 59<160.501 321.744> 1325 67<676.058 1124.07>
LayerCount: 2
Fore
SplineSet
506 829 m 0
 506 876 236 899 236 944 c 0
 236 1029 516 1323 920 1323 c 0
 1315 1323 1392 1175 1392 953 c 0
 1392 784 1342 499 1237 42 c 2
 1072 -677 l 2
 1058 -728 1036 -731 1027 -731 c 0
 1011 -731 1004 -717 1004 -698 c 0
 1004 -693 1005 -687 1006 -681 c 2
 1229 274 l 2
 1300 583 1325 781 1325 908 c 0
 1325 1166 1223 1264 916 1264 c 0
 571 1264 367 1065 313 968 c 1
 564 884 l 1
 569 880 571 872 571 860 c 0
 571 780 466 476 432 345 c 1
 446 359 487 392 557 392 c 0
 711 392 738 305 738 247 c 0
 738 225 736 151 646 62 c 0
 602 18 545 -1 468 -1 c 0
 428 -1 319 36 319 149 c 0
 319 179 324 209 376 377 c 0
 478 705 506 808 506 829 c 0
495 51 m 0
 610 51 679 166 679 234 c 0
 679 298 631 345 557 345 c 0
 430 345 383 218 383 169 c 0
 383 112 406 51 495 51 c 0
EndSplineSet
EndChar

StartChar: uni0E25
Encoding: 3621 3621 41
Width: 1438
VWidth: 3622
Flags: W
HStem: 0 55<398.668 589.098> 18 76<1195.67 1243> 352 60<483.254 676.41> 771 55<712.732 971.571> 1279 62<770.297 1122.9>
VStem: 317 58<80.9261 281.9 709 831.212> 699 53<162.499 300.945> 1387 68<755.065 1062.81>
LayerCount: 2
Fore
SplineSet
317 137 m 0xbf
 317 283 485 826 860 826 c 0
 1258 826 1133 94 1219 94 c 0
 1248 94 1318 410 1366 649 c 0
 1380 722 1387 787 1387 845 c 0
 1387 947 1355 1176 1158 1246 c 0
 1102 1265 1049 1279 996 1279 c 0
 608 1279 455 972 375 709 c 0
 366 685 341 681 329 681 c 0
 318 681 313 685 313 694 c 1
 313 694 432 1341 1003 1341 c 0
 1286 1341 1455 1163 1455 880 c 0
 1455 815 1446 742 1429 660 c 2
 1398 505 l 2
 1309 66 1250 18 1213 18 c 0x7f
 1045 18 1193 771 854 771 c 0
 738 771 506 646 417 345 c 1
 456 395 526 412 587 412 c 0
 693 412 752 342 752 245 c 0
 752 196 727 95 648 47 c 0
 596 16 547 0 501 0 c 0
 416 0 317 55 317 137 c 0xbf
571 352 m 0
 484 352 375 290 375 170 c 0
 375 95 433 55 511 55 c 0xbf
 608 55 699 156 699 229 c 0
 699 250 693 274 681 300 c 0
 666 335 629 352 571 352 c 0
EndSplineSet
EndChar

StartChar: uni0E26
Encoding: 3622 3622 42
Width: 1376
VWidth: 3622
Flags: W
HStem: -1 51<153.168 359.186> 346 45<193.919 390.25> 1272 59<757.027 1241.3>
VStem: 74 54<75.1418 279.851> 562 63<696.29 860.277> 1347 63<765.592 1170.04>
LayerCount: 2
Fore
SplineSet
465 318 m 1
 518 513 562 724 562 826 c 0
 562 841 560 849 557 851 c 0
 480 897 311 913 311 956 c 0
 311 1024 583 1331 1019 1331 c 0
 1315 1331 1410 1227 1410 990 c 0
 1410 813 1348 566 1263 172 c 2
 1074 -702 l 1
 1062 -715 1052 -722 1045 -722 c 256
 1035 -722 1008 -706 1008 -706 c 1
 1009 -697 1015 -669 1025 -623 c 2
 1185 110 l 2
 1194 155 1200 182 1203 193 c 2
 1308 678 l 2
 1334 799 1347 901 1347 984 c 0
 1347 1158 1285 1272 1051 1272 c 0
 628 1272 406 1031 387 975 c 1
 617 895 l 2
 623 893 625 882 625 864 c 0
 625 813 578 548 522 344 c 2
 474 173 l 2
 442 50 312 -1 243 -1 c 0
 178 -1 74 27 74 145 c 0
 74 237 148 391 311 391 c 0
 348 391 437 390 465 318 c 1
306 346 m 0
 226 346 128 275 128 167 c 0
 128 100 176 50 254 50 c 0
 361 50 426 165 426 230 c 0
 426 323 362 346 306 346 c 0
EndSplineSet
EndChar

StartChar: uni0E27
Encoding: 3623 3623 43
Width: 1043
VWidth: 3622
Flags: W
HStem: -4 54<580.603 756.128> 346 53<619.944 838.36> 1297 58<579.194 939.344>
VStem: 494 62<74.9392 280.49> 1042 59<959.096 1203.28>
LayerCount: 2
Fore
SplineSet
743 1355 m 0
 1030 1355 1101 1238 1101 1063 c 0
 1101 1000 1089 911 1071 826 c 2
 929 193 l 2
 907 117 817 10 721 -2 c 0
 706 -3 689 -4 669 -4 c 0
 535 -4 494 78 494 149 c 0
 494 275 611 399 739 399 c 0
 861 399 890 330 893 318 c 1
 966 626 l 2
 1022 856 1042 968 1042 1042 c 0
 1042 1195 975 1297 727 1297 c 0
 637 1297 393 1289 295 923 c 0
 288 893 259 889 251 889 c 0
 240 889 235 897 235 913 c 0
 235 914 277 1355 743 1355 c 0
736 346 m 0
 640 346 556 262 556 167 c 0
 556 100 604 50 682 50 c 0
 785 50 864 155 864 223 c 0
 864 262 845 346 736 346 c 0
EndSplineSet
EndChar

StartChar: uni0E28
Encoding: 3624 3624 44
Width: 1448
VWidth: 3622
Flags: W
HStem: 11 72<182.644 238.216> 432 46<619.045 845.178> 775 47<668.856 906.216> 1275 59<759.911 1161.55>
VStem: 925 48<557.355 755.336> 1360 71<671.38 1028.76> 1804 53<1619.59 1873>
LayerCount: 2
Fore
SplineSet
1827 1893 m 0
 1834 1893 1848 1890 1857 1873 c 1
 1844 1587 1697 1227 1422 999 c 1
 1428 970 1431 938 1431 904 c 0
 1431 836 1419 716 1390 566 c 2
 1355 394 l 2
 1280 51 1265 -2 1233 -2 c 0
 1231 -2 1214 -0 1208 11 c 1
 1298 417 l 2
 1322 529 1360 735 1360 846 c 0
 1360 1189 1148 1275 948 1275 c 0
 680 1275 376 1006 278 577 c 2
 213 292 l 2
 187 178 173 83 185 83 c 0
 225 83 334 251 353 281 c 2
 416 387 l 2
 543 612 580 822 795 822 c 0
 943 822 973 736 973 678 c 0
 973 566 868 432 720 432 c 0
 645 432 575 473 555 536 c 1
 333 101 229 11 147 11 c 0
 136 11 128 25 128 61 c 0
 128 156 166 347 207 536 c 0
 362 1278 810 1334 960 1334 c 0
 1314 1334 1385 1117 1403 1047 c 1
 1655 1277 1780 1567 1804 1873 c 1
 1808 1886 1816 1893 1827 1893 c 0
794 775 m 0
 718 775 599 722 599 585 c 0
 599 509 659 478 734 478 c 0
 843 478 925 591 925 668 c 0
 925 711 907 775 794 775 c 0
EndSplineSet
EndChar

StartChar: uni0E29
Encoding: 3625 3625 45
Width: 1528
VWidth: 3622
Flags: W
HStem: -4 69<667.148 1081.06 1081.06 1237.78> 459 54<1033.09 1292.51> 569 43<1005.03 1133.78> 815 59<397.148 662.651> 840 51<978.335 1114.56> 1261 50<475.965 723.407>
VStem: 312 53<908.007 1143.97> 765 60<916.689 1218.83> 892 53<623.134 808.428> 1183 48<659.335 823.984> 1603 59<830.732 884.554>
LayerCount: 2
Back
SplineSet
601 73 m 1
 623.667 67.6667 668.333 65 735 65 c 128
 835 65 835 65 943 65 c 0
 1025.67 65 1118 66.3333 1220 69 c 0
 1225.33 69 1233.5 89.6667 1244.5 131 c 128
 1255.5 172.333 1268.67 226.5 1284 293.5 c 128
 1299.33 360.5 1315.5 437.167 1332.5 523.5 c 128
 1358 653 1358 653 1384 783 c 128
 1410 913 1410 913 1433.5 1034 c 128
 1449.17 1114.67 1463.67 1185.67 1477 1247 c 0
 1478.33 1263.67 1482.83 1276.17 1490.5 1284.5 c 128
 1498.17 1292.83 1506.67 1297.5 1516 1298.5 c 128
 1525.33 1299.5 1532.33 1295.33 1537 1286 c 128
 1541.67 1276.67 1542.33 1262 1539 1242 c 0
 1521 1144 1521 1144 1492 981.5 c 128
 1463 819 1463 819 1429.5 643 c 128
 1407.17 525.667 1384.5 412.833 1361.5 304.5 c 128
 1338.5 196.167 1316.33 109.333 1295 44 c 1
 1291 19.3333 1261.33 6 1206 4 c 0
 1094 -1.33333 999.5 -4 922.5 -4 c 128
 845.5 -4 769.167 -2.16667 693.5 1.5 c 128
 617.833 5.16667 563 11.6667 529 21 c 1
 571 200 571 200 602 331.5 c 128
 622.667 419.167 640.333 497 655 565 c 128
 677 667 677 667 696 748.5 c 128
 708.667 802.833 720.333 855.333 731 906 c 1
 695 848 622.333 817.667 513 815 c 0
 430.333 813 374 838 344 890 c 128
 314 942 304.833 999.167 316.5 1061.5 c 128
 328.167 1123.83 360.333 1181 413 1233 c 128
 465.667 1285 531.333 1311 610 1311 c 0
 695.333 1311 754.667 1290 788 1248 c 128
 821.333 1206 832.333 1147.33 821 1072 c 0
 812.333 1009.33 788.833 891 750.5 717 c 128
 712.167 543 662.333 328.333 601 73 c 1
759 1051 m 0
 771.667 1115.67 764.167 1166.33 736.5 1203 c 128
 708.833 1239.67 664.333 1259 603 1261 c 0
 547.667 1263.67 499 1244.33 457 1203 c 128
 415 1161.67 387 1116.83 373 1068.5 c 128
 359 1020.17 362.833 975.667 384.5 935 c 128
 406.167 894.333 453.667 874 527 874 c 0
 574.333 874 621.833 890.167 669.5 922.5 c 128
 717.167 954.833 747 997.667 759 1051 c 0
1075 577 m 0
 1048.33 568.333 1028.33 567 1015 573 c 1
 1007 575.667 1002.33 579.333 1001 584 c 1
 1019.67 561.333 1051.83 543 1097.5 529 c 128
 1143.17 515 1190 510.333 1238 515 c 0
 1276 517 1313.17 522.833 1349.5 532.5 c 128
 1385.83 542.167 1420.5 559 1453.5 583 c 128
 1486.5 607 1515.83 641.5 1541.5 686.5 c 128
 1567.17 731.5 1587.67 788.667 1603 858 c 1
 1601.67 875.333 1612.17 885.833 1634.5 889.5 c 128
 1656.83 893.167 1665.67 882.667 1661 858 c 0
 1607 604.667 1462.67 472 1228 460 c 0
 1180.67 457.333 1135.17 460.833 1091.5 470.5 c 128
 1047.83 480.167 1009.83 496.5 977.5 519.5 c 128
 945.167 542.5 921.333 571.667 906 607 c 128
 890.667 642.333 888.333 685.333 899 736 c 0
 909 784 933.833 821.833 973.5 849.5 c 128
 1013.17 877.167 1050 891 1084 891 c 0
 1132.67 896.333 1170.5 883.333 1197.5 852 c 128
 1224.5 820.667 1235 784.333 1229 743 c 0
 1224.33 709 1208.17 676.333 1180.5 645 c 128
 1152.83 613.667 1117.67 591 1075 577 c 0
1065 840 m 0
 1037.67 840 1013.33 830.833 992 812.5 c 128
 970.667 794.167 956.667 768.667 950 736 c 0
 939.333 687.333 944.833 654.5 966.5 637.5 c 128
 988.167 620.5 1007.33 612 1024 612 c 0
 1063.33 612 1098.5 625.333 1129.5 652 c 128
 1160.5 678.667 1178 706.667 1182 736 c 0
 1187.33 774.667 1177.33 801.667 1152 817 c 128
 1126.67 832.333 1097.67 840 1065 840 c 0
EndSplineSet
Fore
SplineSet
1183 755 m 0xefe0
 1183 827 1104 840 1065 840 c 0
 989 840 945 770 945 693 c 0
 945 622 1015 612 1024 612 c 0
 1105 612 1183 678 1183 755 c 0xefe0
1231 765 m 0
 1231 647 1100 569 1035 569 c 0
 1021 569 1004 575 1001 584 c 1
 1033 545 1116 513 1202 513 c 0
 1251 513 1294 518 1333 528 c 1
 1434 1034 l 2
 1481 1270 1479 1299 1519 1299 c 0
 1528 1299 1541 1292 1541 1264 c 0
 1541 1246 1479 889 1413 558 c 1
 1516 613 1572 716 1603 858 c 0
 1603 861 l 0
 1603 884 1630 890 1642 890 c 0
 1656 890 1662 883 1662 870 c 0
 1662 869 1636 600 1401 498 c 1
 1362 304 1322 128 1295 44 c 1
 1289 9 1249 -4 922 -4 c 0
 857 -4 616 -3 529 21 c 1
 696 748 l 2
 709 803 720 855 731 906 c 1
 689 839 600 815 504 815 c 0xf7e0
 347 815 312 929 312 1010 c 0
 312 1140 419 1311 610 1311 c 0
 723 1311 825 1274 825 1126 c 0
 825 1023 704 501 601 73 c 1
 624 68 668 65 735 65 c 2
 943 65 l 2
 1026 65 1118 66 1220 69 c 0
 1237 69 1295 341 1322 472 c 1
 1285 464 1244 459 1198 459 c 0
 1019 459 892 546 892 678 c 0
 892 848 1037 891 1084 891 c 0
 1163 902 1231 846 1231 765 c 0
527 874 m 0
 609 874 765 937 765 1108 c 0
 765 1210 697 1261 593 1261 c 0
 459 1261 365 1110 365 1013 c 0
 365 941 399 874 527 874 c 0
EndSplineSet
EndChar

StartChar: uni0E2A
Encoding: 3626 3626 46
Width: 1538
VWidth: 3622
Flags: W
HStem: 0 62<498.6 661.304> 359 62<563.1 747.604> 775 58<781.106 1034.58> 1289 59<885.259 1261.16>
VStem: 400 58<85.3957 292.829> 770 52<133.593 308.895> 1425 80<644.027 1055.74>
LayerCount: 2
Fore
SplineSet
400 133 m 0
 400 241 476 584 726 766 c 0
 787 811 854 833 927 833 c 0
 1310 833 1192 101 1275 101 c 0
 1284 101 1296 130 1321 236 c 2
 1383 508 l 2
 1405 614 1425 737 1425 863 c 0
 1425 1179 1287 1289 1061 1289 c 0
 790 1289 648 1174 542 1028 c 0
 412 852 436 739 373 739 c 0
 356 739 347 745 347 757 c 0
 347 777 430 1213 860 1320 c 0
 932 1339 1000 1348 1063 1348 c 0
 1199 1348 1328 1302 1404 1224 c 1
 1657 1307 1860 1709 1909 1815 c 0
 1926 1852 1944 1870 1962 1870 c 0
 1973 1870 1978 1863 1978 1848 c 0
 1978 1795 1869 1551 1668 1330 c 0
 1603 1261 1527 1209 1440 1174 c 1
 1503 1085 1505 937 1505 886 c 0
 1505 756 1406 206 1320 60 c 0
 1303 32 1286 18 1268 18 c 0
 1105 18 1247 775 922 775 c 0
 811 775 599 657 497 352 c 1
 533 401 602 421 662 421 c 0
 768 421 822 345 822 249 c 0
 822 189 789 96 718 50 c 256
 667 17 620 0 575 0 c 0
 520 0 400 20 400 133 c 0
646 359 m 0
 555 359 458 290 458 177 c 0
 458 101 509 62 587 62 c 0
 687 62 770 167 770 236 c 0
 770 258 764 281 752 308 c 0
 738 342 703 359 646 359 c 0
EndSplineSet
EndChar

StartChar: uni0E2B
Encoding: 3627 3627 47
Width: 1452
VWidth: 3622
Flags: W
HStem: 764 55<375.161 656.799> 805 56<1252 1369.33> 1251 57<495.284 722.309> 1272 51<1188.26 1441.63>
VStem: 270 62<860.358 1088.28> 425 66<54.0008 96.6206> 764 67<983.577 1209.29> 1021 57<896.01 1154.27> 1253 56<365.719 695.38> 1479 63<970.982 1234.1>
LayerCount: 2
Fore
SplineSet
491 62 m 0xafc0
 491 55 493 54 493 54 c 1
 500 54 526 76 570 124 c 2
 745 320 l 1
 1153 798 l 1
 1046 848 1021 901 1021 1003 c 0
 1021 1157 1131 1323 1341 1323 c 0
 1455 1323 1542 1249 1542 1139 c 0
 1542 1048 1475 805 1252 805 c 1x5fc0
 1301 718 1309 639 1309 550 c 0
 1309 351 1254 195 1215 11 c 1
 1201 -4 1184 -10 1177 -10 c 0
 1167 -10 1161 -3 1157 11 c 1
 1242 373 1253 520 1253 576 c 0
 1253 660 1233 717 1194 746 c 1
 1160 715 1123 676 1084 630 c 2
 962 485 l 1
 722 188 l 2
 580 22 531 -3 477 -3 c 0
 449 -3 425 8 425 49 c 2
 425 58 l 1
 446 127 465 187 482 238 c 2
 706 833 l 1
 662 791 620 764 471 764 c 0
 310 764 270 875 270 961 c 0
 270 1004 261 1200 488 1287 c 0
 523 1301 564 1308 610 1308 c 0
 745 1308 831 1205 831 1085 c 0
 831 1003 781 850 715 673 c 2
 559 268 l 2
 528 188 491 88 491 62 c 0xafc0
332 975 m 0
 332 905 366 819 502 819 c 0
 741 819 764 1042 764 1091 c 0
 764 1158 733 1251 609 1251 c 0xafc0
 433 1251 332 1111 332 975 c 0
1323 1272 m 0x5fc0
 1160 1272 1078 1116 1078 1015 c 0
 1078 935 1122 861 1208 861 c 0
 1450 861 1479 1051 1479 1118 c 0
 1479 1186 1448 1272 1323 1272 c 0x5fc0
EndSplineSet
EndChar

StartChar: uni0E2C
Encoding: 3628 3628 48
Width: 1659
VWidth: 3622
Flags: W
HStem: 11 86<590.501 663.45 1199.51 1275.64> 822 59<375.201 612.747> 1147 66<1287.9 1471.7> 1265 62<438.168 681.766> 1454 20G<1778.5 1798.5> 1486 56<1345.14 1542.35>
VStem: 276 63<917.505 1164.02> 547 78<54.4115 383.653> 713 82<906.397 1232.99> 1209 65<1229.73 1413.23> 1565 64<1359.02 1463.69>
LayerCount: 2
Fore
SplineSet
564 1327 m 0
 676 1327 795 1281 795 1097 c 0
 795 1026 767 897 732 743 c 2
 732 743 625 211 625 129 c 0
 625 108 628 97 635 97 c 0
 683 97 970 631 1029 847 c 1
 1041 865 1056 874 1074 874 c 256
 1091 874 1101 867 1104 854 c 1
 1103 839 1103 824 1103 808 c 0
 1103 647 1136 330 1183 175 c 0
 1201 116 1222 87 1245 87 c 0
 1297 87 1463 770 1530 1189 c 1
 1453 1151 1419 1147 1391 1147 c 0
 1280 1147 1209 1210 1209 1305 c 0
 1209 1421 1318 1542 1450 1542 c 0
 1593 1542 1629 1455 1629 1366 c 2
 1629 1358 l 1
 1709 1386 1767 1474 1790 1474 c 0
 1807 1474 1818 1459 1818 1441 c 0
 1818 1431 1816 1417 1797 1406 c 1
 1760 1347 1671 1299 1656 1290 c 2
 1620 1272 l 1
 1512 756 l 2
 1392 188 1325 11 1245 11 c 0
 1114 11 1056 330 1037 706 c 1
 891 346 679 11 589 11 c 0
 556 11 547 40 547 83 c 0
 547 168 581 339 617 506 c 2
 709 953 l 1
 663 862 565 822 478 822 c 0
 341 822 276 921 276 1017 c 0
 276 1184 419 1327 564 1327 c 0
490 881 m 0
 619 881 713 1009 713 1120 c 0
 713 1193 684 1265 568 1265 c 0
 425 1265 339 1139 339 1024 c 0
 339 938 399 881 490 881 c 0
1397 1213 m 0
 1442 1213 1565 1271 1565 1368 c 0
 1565 1425 1527 1486 1456 1486 c 0
 1357 1486 1274 1384 1274 1306 c 0
 1274 1269 1292 1213 1397 1213 c 0
EndSplineSet
Substitution2: "Single Substitution lookup 22 subtable" uni0E2C.alt1
Substitution2: "Single Substitution lookup 22 subtable" uni0E2C.alt1
EndChar

StartChar: uni0E2D
Encoding: 3629 3629 49
Width: 1282
VWidth: 3622
Flags: W
HStem: -7 56<399.491 744.442 742.315 746.569 746.569 974.559> 341 57<450.426 709.871> 746 62<540.911 737.619> 1268 66<725.215 1062.27>
VStem: 231 67<136.909 438.961> 770 63<459.012 714.322> 1215 68<739.366 1091.94>
LayerCount: 2
Fore
SplineSet
770 595 m 0
 770 658 744 746 639 746 c 0
 558 746 406 692 406 543 c 0
 406 427 520 398 587 398 c 0
 741 398 770 535 770 595 c 0
807 -7 m 0
 768 -7 728 -8 686 -8 c 0
 467 -8 231 8 231 204 c 0
 231 270 287 632 458 743 c 0
 555 808 618 808 656 808 c 0
 783 808 833 684 833 592 c 0
 833 494 766 341 566 341 c 0
 429 341 378 428 361 493 c 1
 347 459 298 352 298 257 c 0
 298 91 456 49 670 49 c 0
 714 49 763 51 815 55 c 0
 918 55 995 89 1047 156 c 0
 1204 361 1215 820 1215 841 c 0
 1215 1185 1052 1268 881 1268 c 0
 649 1268 467 989 405 822 c 1
 388 801 366 800 362 800 c 0
 351 800 342 805 334 815 c 1
 364 904 l 2
 401 1008 484 1149 631 1256 c 0
 704 1308 792 1334 895 1334 c 0
 1128 1334 1283 1218 1283 875 c 0
 1283 756 1243 293 1104 118 c 0
 1034 30 932 -7 807 -7 c 0
EndSplineSet
EndChar

StartChar: uni0E2E
Encoding: 3630 3630 50
Width: 1289
VWidth: 3622
Flags: W
HStem: -4 59<351.881 756.061 756.061 972.25> 345 53<443.844 695.028> 743 51<521.678 734.612> 888 61<521.408 894.374> 1300 66<613.713 994.492>
VStem: 221 58<121.849 372.068> 409 66<994.701 1186.78> 765 60<517.293 711.922> 1203 60<475.096 1054.87>
LayerCount: 2
Fore
SplineSet
475 1088 m 0
 475 985 580 949 680 949 c 0
 847 949 1036 1040 1123 1162 c 1
 1084 1212 964 1300 798 1300 c 0
 592 1300 475 1184 475 1088 c 0
625 743 m 0
 523 743 400 675 400 550 c 0
 400 445 482 398 577 398 c 0
 747 398 765 578 765 616 c 0
 765 693 707 743 625 743 c 0
279 242 m 0
 279 92 388 55 616 55 c 2
 707 55 l 2
 765 55 791 58 803 58 c 0
 909 58 988 91 1038 156 c 256
 1172 327 1203 712 1203 880 c 0
 1203 988 1194 1050 1157 1114 c 1
 1043 965 857 888 681 888 c 256
 530 888 409 958 409 1064 c 0
 409 1179 558 1366 815 1366 c 0
 957 1366 1106 1286 1169 1213 c 1
 1206 1244 l 2
 1279 1307 1370 1421 1431 1569 c 1
 1437 1578 1443 1582 1450 1582 c 0
 1459 1582 1472 1577 1472 1552 c 0
 1472 1466 1338 1269 1201 1155 c 1
 1242 1094 1263 1001 1263 877 c 0
 1263 726 1228 433 1160 259 c 0
 1068 26 908 -4 690 -4 c 2
 596 -4 l 2
 355 -4 221 38 221 204 c 0
 221 296 285 632 446 739 c 0
 504 781 578 794 628 794 c 0
 747 794 825 722 825 615 c 0
 825 524 759 345 550 345 c 256
 479 345 429 363 400 400 c 256
 371 437 354 473 350 508 c 1
 320 433 l 2
 293 354 279 291 279 242 c 0
EndSplineSet
EndChar

StartChar: uni0E2F
Encoding: 3631 3631 51
Width: 978
VWidth: 3622
Flags: W
HStem: 12 21G<781.5 802.5> 775 70<437.948 807.602> 904 60<405.668 557.888> 1244 57<416.803 603.479>
VStem: 266 53<1002.62 1152.69> 621 64<1025.84 1223.56> 1028 74<1239.01 1298.99>
LayerCount: 2
Fore
SplineSet
685 1152 m 0
 685 960 483 904 438 904 c 0
 423 904 410 908 403 913 c 1
 447 876 511 845 596 845 c 0
 855 845 964 973 1028 1258 c 1
 1028 1282 1052 1299 1073 1299 c 0
 1082 1299 1102 1294 1102 1274 c 0
 1102 1271 1072 1129 1072 1128 c 2
 824 32 l 2
 822 18 812 12 793 12 c 0
 770 12 756 17 756 30 c 0
 756 31 757 33 757 35 c 1
 943 895 l 1
 862 811 763 775 614 775 c 0
 312 775 266 935 266 1042 c 0
 266 1097 264 1216 422 1282 c 0
 457 1297 489 1301 518 1301 c 0
 616 1301 685 1241 685 1152 c 0
502 1244 m 0
 387 1244 319 1163 319 1063 c 0
 319 1027 332 964 436 964 c 0
 542 964 621 1045 621 1138 c 0
 621 1223 551 1244 502 1244 c 0
EndSplineSet
EndChar

StartChar: uni0E30
Encoding: 3632 3632 52
Width: 953
VWidth: 3622
Flags: W
HStem: 90 59<277.861 523.486> 252 47<278.234 425.488> 501 46<294.961 451.166> 739 55<416.173 660.622> 900 41<393.078 559.12> 1144 52<400.785 587.172>
VStem: 166 65<252.339 410.937> 308 60<897.118 1109.99> 460 47<335.149 489.542> 597 48<979.045 1133.54> 762 68<460.81 512.996> 902 66<1109.02 1154.35>
LayerCount: 2
Fore
SplineSet
597 1068 m 0
 597 1109 555 1144 511 1144 c 0
 435 1144 368 1092 368 1025 c 0
 368 975 408 941 458 941 c 0
 544 941 597 1015 597 1068 c 0
460 424 m 0
 460 469 415 501 375 501 c 0
 278 501 231 429 231 381 c 0
 231 312 292 299 321 299 c 0
 388 299 460 350 460 424 c 0
507 437 m 0
 507 316 402 252 317 252 c 0
 290 252 264 260 239 276 c 1
 251 186 317 149 421 149 c 0
 566 149 736 271 762 488 c 1
 768 509 792 513 804 513 c 0
 822 513 830 508 830 496 c 0
 830 487 790 207 535 114 c 0
 491 98 449 90 409 90 c 0
 218 90 166 205 166 301 c 0
 166 357 190 479 270 520 c 0
 306 538 344 547 384 547 c 256
 459 547 507 496 507 437 c 0
645 1088 m 0
 645 1022 580 900 455 900 c 0
 428 900 401 907 375 920 c 1
 388 822 471 794 559 794 c 0
 696 794 873 914 902 1141 c 0
 903 1153 915 1159 937 1159 c 0
 958 1159 968 1153 968 1142 c 0
 968 1128 918 847 673 762 c 0
 629 747 587 739 547 739 c 0
 366 739 308 839 308 946 c 0
 308 1151 443 1196 522 1196 c 0
 603 1196 645 1139 645 1088 c 0
EndSplineSet
EndChar

StartChar: uni0E31
Encoding: 3633 3633 53
Width: 0
VWidth: 3622
Flags: W
HStem: 1527 61<-266.106 25.1827> 1641 52<-374.034 -196.098> 1966 61<-385.126 -190.196>
VStem: -494 61<1721.27 1917.88> -143 63<1746.55 1945.31> 363 77<2009.66 2105.73>
LayerCount: 2
Fore
SplineSet
-80 1859 m 0
 -80 1721 -178 1641 -304 1641 c 0
 -325 1641 -339 1644 -347 1652 c 1
 -289 1597 -184 1588 -131 1588 c 0
 -72 1588 110 1603 222 1711 c 0
 332 1817 363 1994 363 2064 c 0
 363 2091 394 2106 412 2106 c 0
 423 2106 440 2100 440 2077 c 0
 440 2068 430 1847 302 1697 c 0
 196 1573 20 1527 -126 1527 c 0
 -348 1527 -494 1634 -494 1795 c 0
 -494 1962 -364 2027 -266 2027 c 0
 -201 2027 -80 1993 -80 1859 c 0
-262 1966 m 0
 -336 1966 -433 1917 -433 1825 c 0
 -433 1728 -369 1693 -314 1693 c 0
 -244 1693 -143 1742 -143 1859 c 0
 -147 1949 -221 1966 -262 1966 c 0
EndSplineSet
Substitution2: "Single Substitution lookup 22 subtable" uni0E31.alt1
Substitution2: "Single Substitution lookup 22 subtable" uni0E31.alt1
EndChar

StartChar: uni0E32
Encoding: 3634 3634 54
Width: 999
VWidth: 3622
Flags: MW
HStem: 1231 62<540.477 897.905>
VStem: 986 59<883.826 1139.65>
LayerCount: 2
Fore
SplineSet
343 913 m 0
 331 913 319 921 319 934 c 0
 319 938 348 1095 462 1200 c 0
 530 1262 623 1293 741 1293 c 0
 1001 1293 1045 1157 1045 1006 c 0
 1045 918 1029 827 1016 768 c 2
 978 587 l 1
 854 51 l 2
 849 30 824 24 815 24 c 0
 807 24 795 27 795 41 c 0
 795 51 834 235 838 252 c 2
 952 732 l 2
 979 851 986 908 986 967 c 0
 986 1101 936 1231 734 1231 c 0
 530 1231 454 1147 375 937 c 0
 370 919 356 913 343 913 c 0
EndSplineSet
EndChar

StartChar: uni0E33
Encoding: 3635 3635 55
Width: 999
VWidth: 3622
Flags: W
HStem: 1231 62<540.477 897.905> 1542 52<14.257 202.125> 1818 55<48.5733 232.339>
VStem: -46 50<1604.56 1775.01> 242 52<1634.83 1788.12> 986 59<883.826 1139.65>
LayerCount: 2
Back
SplineSet
294 941 m 1
 294.667 910.333 311.667 906.667 345 930 c 1
 362.333 982 381.333 1026.67 402 1064 c 128
 422.667 1101.33 447.5 1132 476.5 1156 c 128
 505.5 1180 538.833 1198.17 576.5 1210.5 c 128
 614.167 1222.83 658.333 1229.67 709 1231 c 0
 805.667 1231 871.333 1205.67 906 1155 c 0
 923.333 1130.33 935.833 1103 943.5 1073 c 128
 951.167 1043 955 1009 955 971 c 0
 956.333 900.333 946.333 820.667 925 732 c 0
 911 669 911 669 897 610.5 c 128
 887.667 571.5 878 533.667 868 497 c 0
 854 435 854 435 844.5 391.5 c 128
 835 348 835 348 824.5 302 c 128
 814 256 814 256 801.5 199 c 128
 793.167 161 783 111.667 771 51 c 0
 765 29.6667 772 20.3333 792 23 c 256
 812 25.6667 824.667 35 830 51 c 2
 953 587 l 2
 973 679 973 679 991.5 767.5 c 128
 1003.83 826.5 1012.33 882.333 1017 935 c 128
 1021.67 987.667 1021.33 1036 1016 1080 c 128
 1010.67 1124 997.167 1161.67 975.5 1193 c 128
 953.833 1224.33 922 1248.83 880 1266.5 c 128
 838 1284.17 783.333 1293 716 1293 c 0
 598 1293 504.833 1262 436.5 1200 c 128
 368.167 1138 320.667 1051.67 294 941 c 1
157 1884 m 0
 213.667 1884 256.833 1865.33 286.5 1828 c 128
 316.167 1790.67 325 1743.67 313 1687 c 0
 300.333 1628.33 271 1580.67 225 1544 c 0
 179.667 1507.33 129 1489 73 1489 c 0
 45.6667 1489 21 1494 -1 1504 c 128
 -23 1514 -41 1527.83 -55 1545.5 c 128
 -69 1563.17 -78.6667 1584.17 -84 1608.5 c 128
 -89.3333 1632.83 -89 1659 -83 1687 c 0
 -70.3333 1743.67 -41.3333 1790.33 4 1827 c 0
 52 1865 103 1884 157 1884 c 0
159 1825 m 1
 137.667 1825 117.333 1821.5 98 1814.5 c 128
 78.6667 1807.5 60.6667 1797.83 44 1785.5 c 128
 27.3333 1773.17 13.1667 1758.5 1.5 1741.5 c 128
 -10.1667 1724.5 -17.6667 1706.33 -21 1687 c 0
 -29.6667 1647 -24.5 1613.5 -5.5 1586.5 c 128
 13.5 1559.5 43.6667 1546 85 1546 c 0
 123.667 1546 159.333 1559.5 192 1586.5 c 128
 224.667 1613.5 245 1647 253 1687 c 0
 261 1726.33 254.5 1758.67 233.5 1784 c 128
 212.5 1809.33 182.333 1822 143 1822 c 1
 159 1825 l 1
EndSplineSet
Fore
Refer: 54 3634 N 1 0 0 1 0 0 2
Refer: 77 3661 N 1 0 0 1 0 0 2
Substitution2: "Single Substitution lookup 22 subtable" uni0E33.alt1
Substitution2: "Single Substitution lookup 22 subtable" uni0E33.alt1
EndChar

StartChar: uni0E34
Encoding: 3636 3636 56
Width: 0
VWidth: 3622
Flags: W
HStem: 1487 53<-727.4 -37.6103> 1521 51<-415.52 118.061> 1916 44<-458.175 -179.449>
VStem: -786 49<1566.57 1694.18>
LayerCount: 2
Fore
SplineSet
-786 1589 m 0xb0
 -786 1734 -509 1960 -285 1960 c 0
 9 1960 177 1637 177 1579 c 0
 177 1533 138 1521 108 1521 c 0x70
 -68 1514 -273 1487 -478 1487 c 0
 -705 1487 -786 1528 -786 1589 c 0xb0
83 1572 m 0
 94 1572 138 1582 138 1589 c 1
 138 1589 24 1804 -148 1883 c 0
 -189 1902 -236.92 1916 -290 1916 c 0
 -479 1916 -737 1708 -737 1602 c 0
 -737 1562 -625 1540 -425 1540 c 0xb0
 -222 1540 -68 1552 83 1572 c 0
EndSplineSet
Substitution2: "Single Substitution lookup 22 subtable" uni0E34.alt1
Substitution2: "Single Substitution lookup 22 subtable" uni0E34.alt1
EndChar

StartChar: uni0E35
Encoding: 3637 3637 57
Width: 0
VWidth: 3622
Flags: W
HStem: 1495 51<-775.054 -108.106> 1923 44<-511.513 -175.88>
VStem: -837 52<1573.24 1708.92>
LayerCount: 2
Fore
SplineSet
-837 1594 m 0
 -837 1762 -537 1967 -334 1967 c 0
 -160 1967 5 1841 101 1656 c 1
 122 1786 l 2
 145 1993 168 2091 198 2091 c 0
 219 2091 221 2079 221 2068 c 1
 211 2016 192 1911 176 1806 c 2
 158 1682 l 2
 153 1643 150 1612 149 1587 c 0
 149 1556 102 1528 58 1528 c 0
 -115 1528 -352 1495 -559 1495 c 0
 -718 1495 -837 1515 -837 1594 c 0
-785 1610 m 0
 -785 1584 -737 1546 -465 1546 c 0
 -406 1546 -328 1549 -263 1553 c 2
 -139 1561 l 2
 -31 1568 88 1581 88 1595 c 2
 88 1597 l 1
 4 1712 l 2
 -145 1909 -272 1923 -347 1923 c 0
 -495 1923 -785 1749 -785 1610 c 0
EndSplineSet
Substitution2: "Single Substitution lookup 22 subtable" uni0E35.alt1
Substitution2: "Single Substitution lookup 22 subtable" uni0E35.alt1
EndChar

StartChar: uni0E36
Encoding: 3638 3638 58
Width: 0
VWidth: 3622
Flags: W
HStem: 1486 48<-759.832 -144.258> 1521 44<-54.3803 25.2149> 1687 55<46.7488 170.23> 1916 47<-554.082 -258.586> 2004 57<49.2583 212.223>
VStem: -877 45<1557.45 1644.12> 36 53<1565.6 1615.29> 225 54<1796.84 1995.21>
LayerCount: 2
Fore
SplineSet
-377 1963 m 0xbf
 -354 1962 -202 1965 -62 1836 c 1
 -57 1877 l 2
 -34 1983 41 2061 147 2061 c 0
 229 2061 279 2009 279 1926 c 0
 279 1780 169 1687 67 1687 c 2
 46 1687 l 1
 85 1620 89 1603 89 1582 c 0
 89 1529 38 1521 18 1521 c 0x7f
 -38 1516 -316 1486 -538 1486 c 0
 -789 1486 -877 1526 -877 1587 c 0
 -877 1764 -559 1963 -377 1963 c 0xbf
-11 1565 m 0
 21 1565 36 1574 36 1591 c 0
 36 1598 33 1606 28 1615 c 2
 -42 1714 l 2
 -169 1891 -302 1916 -384 1916 c 0
 -538 1916 -786 1770 -830 1601 c 0
 -831 1597 -832 1594 -832 1591 c 0
 -832 1545 -658 1534 -536 1534 c 0xbf
 -368 1534 -169 1548 -11 1565 c 0
225 1900 m 0
 225 1961 196 2004 149 2004 c 0
 59 2004 -5 1910 -5 1840 c 0
 -5 1784 28 1742 80 1742 c 0
 146 1742 225 1823 225 1900 c 0
EndSplineSet
Substitution2: "Single Substitution lookup 22 subtable" uni0E36.alt1
Substitution2: "Single Substitution lookup 22 subtable" uni0E36.alt1
EndChar

StartChar: uni0E37
Encoding: 3639 3639 59
Width: 0
VWidth: 3622
Flags: W
HStem: 1494 51<-688.433 -82.5366> 1923 44<-507.41 -211.97>
VStem: -828 46<1574.56 1699.26> -51 86<2020.63 2139.59>
LayerCount: 2
Fore
SplineSet
-325 1967 m 0
 -292 1967 -173 1966 -51 1855 c 1
 -26 2135 -6 2135 14 2135 c 0
 22 2135 35 2130 35 2108 c 1
 -11 1832 l 1
 38 1750 68 1742 108 1656 c 1
 113 1697 120 1741 129 1786 c 2
 150 1916 l 2
 175 2074 183 2091 204 2091 c 0
 210 2091 225 2085 225 2068 c 1
 182 1806 l 1
 164 1681 l 2
 159 1641 152 1592 152 1582 c 0
 152 1529 7 1494 -549 1494 c 0
 -756 1494 -828 1537 -828 1600 c 0
 -828 1733 -565 1967 -325 1967 c 0
37 1580 m 0
 77 1580 94 1592 94 1595 c 1
 12 1712 l 2
 -123 1901 -275 1923 -337 1923 c 0
 -537 1923 -782 1706 -782 1612 c 0
 -782 1559 -594 1545 -447 1545 c 0
 -350 1545 -155 1553 37 1580 c 0
EndSplineSet
Substitution2: "Single Substitution lookup 22 subtable" uni0E37.alt1
Substitution2: "Single Substitution lookup 22 subtable" uni0E37.alt1
EndChar

StartChar: uni0E38
Encoding: 3640 3640 60
Width: 0
VWidth: 3622
Flags: W
HStem: -504 48<-548.594 -322.651> -180 50<-504.753 -315.579>
VStem: -615 52<-440.341 -239.214> -273 56<-384.727 -219.882>
LayerCount: 2
Fore
SplineSet
-451 -456 m 0
 -349 -456 -273 -394 -273 -300 c 0
 -273 -231 -324 -180 -382 -180 c 0
 -500 -180 -563 -269 -563 -352 c 0
 -563 -403 -541 -456 -451 -456 c 0
-615 -359 m 0
 -615 -176 -457 -130 -391 -130 c 0
 -341 -130 -258 -148 -230 -211 c 0
 -221 -231 -217 -256 -217 -286 c 0
 -217 -326 -224 -374 -239 -432 c 2
 -258 -514 l 2
 -272 -578 -276 -611 -290 -674 c 2
 -310 -764 l 1
 -316 -776 -329 -793 -358 -793 c 0
 -367 -793 -371 -788 -371 -780 c 0
 -371 -775 -370 -770 -368 -764 c 2
 -340 -656 l 1
 -320 -556 l 2
 -314 -521 -306 -488 -297 -456 c 1
 -321 -482 -349 -504 -462 -504 c 0
 -584 -504 -615 -432 -615 -359 c 0
EndSplineSet
Substitution2: "Single Substitution lookup 21 subtable" a
Substitution2: "Single Substitution lookup 22 subtable" uni0E38.alt1
Substitution2: "Single Substitution lookup 21 subtable" a
Substitution2: "Single Substitution lookup 22 subtable" uni0E38.alt1
EndChar

StartChar: uni0E39
Encoding: 3641 3641 61
Width: 0
VWidth: 3622
Flags: W
HStem: -761 69<-596 -504 -504 -389> -503 57<-844.13 -630.486> -170 50<-807.628 -593.674>
VStem: -913 53<-428.839 -222.02> -574 62<-369.074 -189.463>
LayerCount: 2
Fore
SplineSet
-253 -143 m 0
 -237 -143 -226 -149 -226 -166 c 1
 -266 -340 l 2
 -277 -392 -286 -437 -292 -478 c 2
 -334 -713 l 2
 -341 -743 -349 -742 -391 -750 c 2
 -617 -761 l 2
 -637 -761 -669 -758 -669 -733 c 0
 -669 -727 -655 -669 -654 -662 c 2
 -640 -612 l 2
 -632 -584 -625 -555 -618 -524 c 2
 -601 -446 l 1
 -640 -482 -686 -503 -743 -503 c 0
 -835 -503 -913 -437 -913 -339 c 0
 -913 -178 -762 -120 -676 -120 c 0
 -533 -120 -512 -203 -512 -272 c 0
 -512 -316 -518 -362 -550 -490 c 2
 -564 -548 l 2
 -569 -567 -573 -588 -578 -612 c 2
 -596 -699 l 1
 -389 -692 l 1
 -328 -369 l 1
 -283 -163 l 2
 -280 -150 -271 -143 -253 -143 c 0
-750 -446 m 0
 -652 -443 -574 -375 -574 -278 c 0
 -574 -208 -625 -170 -681 -170 c 0
 -802 -170 -860 -253 -860 -340 c 0
 -860 -425 -799 -446 -750 -446 c 0
EndSplineSet
Substitution2: "Single Substitution lookup 21 subtable" b
Substitution2: "Single Substitution lookup 22 subtable" uni0E39.alt1
Substitution2: "Single Substitution lookup 21 subtable" b
Substitution2: "Single Substitution lookup 22 subtable" uni0E39.alt1
EndChar

StartChar: uni0E3A
Encoding: 3642 3642 62
Width: 0
VWidth: 3622
Flags: W
HStem: -336 212<-343.974 -191.166>
VStem: -377 221<-300.29 -155.62>
LayerCount: 2
Fore
SplineSet
-156 -202 m 0
 -156 -267 -209 -336 -292 -336 c 256
 -360 -336 -377 -291 -377 -258 c 0
 -377 -201 -338 -124 -246 -124 c 256
 -194 -124 -156 -151 -156 -202 c 0
EndSplineSet
Substitution2: "Single Substitution lookup 21 subtable" c
Substitution2: "Single Substitution lookup 22 subtable" uni0E3A.alt1
Substitution2: "Single Substitution lookup 21 subtable" c
Substitution2: "Single Substitution lookup 22 subtable" uni0E3A.alt1
EndChar

StartChar: uni0E3F
Encoding: 3647 3647 63
Width: 1296
VWidth: 3622
Flags: W
HStem: 48 56<310 459.466 459.466 484.997 484.997 607 695 783.683> 58 73<182 230> 709 60<631.569 704.938 704.938 761.592> 1413 50<788.787 925 1012 1157.25>
VStem: 248 62<131 694.554> 1153 60<338.677 587.632> 1325 55<993.099 1273.05>
LayerCount: 2
Fore
SplineSet
560 -143 m 0xbe
 560 -129 563 -141 607 48 c 1xbe
 455 55 352 58 299 58 c 1
 276 2 226 0 226 33 c 0
 226 40 227 48 230 58 c 1
 168 58 l 1
 147 62 137 71 137 85 c 0
 137 104 154 125 182 131 c 1
 248 131 l 1x7e
 300 299 409 660 524 1311 c 1
 511 1302 502 1298 492 1298 c 0
 479 1298 460 1305 460 1326 c 0
 460 1381 643 1458 936 1463 c 1
 992 1685 978 1670 996 1684 c 0
 1005 1691 1015 1695 1025 1695 c 0
 1041 1695 1058 1685 1058 1667 c 0
 1058 1659 1045 1602 1042 1586 c 2
 1012 1459 l 1
 1187 1448 1380 1362 1380 1151 c 0
 1380 902 1130 769 982 736 c 1
 1151 697 1213 548 1213 450 c 0
 1213 387 1185 124 852 65 c 0
 796 55 740 49 683 48 c 1
 640 -136 642 -164 584 -164 c 0
 568 -164 560 -157 560 -143 c 0xbe
656 769 m 0
 695 769 733 773 753 773 c 0
 764 773 772 773 778 771 c 1
 778 771 920 1381 925 1413 c 1
 799 1413 682 1398 607 1362 c 1
 550 1092 485 656 310 111 c 1
 372 111 589 109 619 104 c 1
 691 402 l 2
 716 503 740 606 762 709 c 1
 662 709 l 2
 636 709 623 717 623 734 c 0
 623 748 630 769 656 769 c 0
856 775 m 1
 1036 788 1325 892 1325 1146 c 0
 1325 1313 1170 1375 999 1406 c 1
 856 775 l 1
695 108 m 1
 882 116 1153 177 1153 455 c 0
 1153 620 1013 681 837 702 c 1
 695 108 l 1
EndSplineSet
EndChar

StartChar: uni0E40
Encoding: 3648 3648 64
Width: 636
VWidth: 3622
Flags: W
HStem: 4 51<271.463 484.266> 385 47<350.281 527.048>
VStem: 204 53<70.2824 274.501> 554 48<127.347 359.185>
LayerCount: 2
Fore
SplineSet
359 4 m 0
 235 4 204 75 204 151 c 0
 204 180 208 214 216 253 c 2
 430 1258 l 2
 433 1270 445 1281 458 1281 c 0
 471 1281 483 1274 485 1261 c 1
 440 1049 l 2
 431 998 420 946 410 892 c 2
 336 546 l 2
 324 491 312 438 299 387 c 1
 330 413 382 432 436 432 c 0
 523 432 602 379 602 277 c 0
 602 132 505 4 359 4 c 0
434 385 m 0
 369 385 257 345 257 169 c 0
 257 92 289 55 370 55 c 0
 471 55 554 142 554 261 c 0
 554 329 508 385 434 385 c 0
EndSplineSet
EndChar

StartChar: uni0E41
Encoding: 3649 3649 65
Width: 1144
VWidth: 3622
Flags: W
HStem: 4 51<271.463 485.904 763.763 974.954> 387 41<358.835 533.813 849.986 1026.47>
VStem: 204 53<70.2824 272.639> 555 48<128.261 365.122> 697 52<70.1847 222.809 220.29 225.328 225.328 253 253 286.663> 1047 50<129.071 366.806>
LayerCount: 2
Fore
SplineSet
359 4 m 0
 235 4 204 75 204 151 c 0
 204 180 208 214 216 253 c 2
 430 1258 l 1
 435 1267 445 1276 465 1276 c 0
 477 1276 484 1271 485 1261 c 1
 362 670 l 1
 299 387 l 1
 351 414 405 428 460 428 c 0
 575 428 603 351 603 284 c 0
 603 132 505 4 359 4 c 0
370 55 m 0
 469 55 555 138 555 271 c 0
 555 364 483 387 433 387 c 0
 312 371 257 294 257 169 c 0
 257 92 289 55 370 55 c 0
851 4 m 0
 728 4 697 74 697 152 c 0
 697 181 701 215 709 253 c 2
 923 1258 l 1
 929 1269 938 1274 950 1274 c 1
 951 1275 l 1
 963 1275 971 1270 976 1261 c 1
 892 847 880 788 854 670 c 2
 791 387 l 1
 842 414 896 428 952 428 c 0
 1010 428 1097 400 1097 287 c 0
 1097 130 999 4 851 4 c 0
861 55 m 0
 973 55 1047 153 1047 268 c 0
 1047 314 1029 387 925 387 c 0
 849 378 771 327 759 253 c 0
 752 221 749 194 749 169 c 0
 749 92 781 55 861 55 c 0
EndSplineSet
EndChar

StartChar: uni0E42
Encoding: 3650 3650 66
Width: 905
VWidth: 3622
Flags: W
HStem: 0 55<590.123 807.868> 322 51<638.243 849.833> 1567 63<296.065 506.426 495.181 517.67 506.426 767.195> 1746 55<1245.95 1356.15> 2068 58<648.478 982.631>
VStem: 231 65<1612.66 1749.96> 507 73<68.8361 229.46> 791 55<1293.68 1548.25> 866 49<115.147 304.405>
LayerCount: 2
Fore
SplineSet
674 0 m 0
 588 0 507 46 507 143 c 0
 507 161 510 181 516 203 c 2
 771 1307 l 2
 784 1367 791 1415 791 1450 c 0
 791 1557 728 1576 566 1576 c 0
 486 1570 423 1567 377 1567 c 0
 248 1567 231 1592 231 1629 c 0
 231 1779 538 2126 821 2126 c 0
 1184 2126 1219 1801 1295 1801 c 0
 1382 1801 1343 1901 1401 1901 c 0
 1418 1901 1427 1893 1427 1877 c 0
 1427 1845 1384 1746 1286 1746 c 0
 1246 1746 1215 1762 1192 1794 c 0
 1093 1926 1035 2064 808 2068 c 0
 594 2068 296 1759 296 1643 c 0
 296 1634 297 1630 355 1630 c 0
 422 1630 455 1634 688 1634 c 0
 784 1634 846 1598 846 1458 c 0
 846 1363 686 666 650 524 c 2
 619 399 l 2
 600 320 593 310 589 287 c 1
 622 334 687 373 766 373 c 0
 885 373 915 294 915 231 c 0
 915 93 804 -0 674 0 c 0
752 322 m 0
 653 322 580 240 580 146 c 0
 580 85 618 55 695 55 c 0
 793 55 866 141 866 221 c 0
 866 261 845 322 752 322 c 0
EndSplineSet
EndChar

StartChar: uni0E43
Encoding: 3651 3651 67
Width: 923
VWidth: 3622
Flags: W
HStem: -8 56<636.641 858.161> 315 51<683.784 895.883> 1469 55<361.595 592.453> 1847 59<449.61 641.937> 2043 65<521.548 840.058>
VStem: 275 61<1551.02 1779.31> 563 63<61.7013 234.913> 675 70<1601.91 1813.43> 912 51<103.174 298.422 1777.59 1973.96>
LayerCount: 2
Fore
SplineSet
798 315 m 0
 699 315 626 233 626 139 c 0
 626 78 664 48 741 48 c 0
 863 48 912 152 912 213 c 0
 912 256 889 315 798 315 c 0
533 1847 m 0
 469 1847 336 1808 336 1653 c 0
 336 1571 386 1524 461 1524 c 0
 584 1524 675 1623 675 1712 c 0
 675 1820 586 1847 533 1847 c 0
741 -8 m 0
 649 -8 563 23 563 146 c 0
 563 170 566 197 573 228 c 2
 867 1558 l 2
 897 1724 910 1819 910 1865 c 0
 910 1998 779 2043 683 2043 c 0
 568 2043 451 1980 417 1884 c 1
 468 1899 514 1906 553 1906 c 0
 711 1906 745 1781 745 1735 c 0
 745 1623 662 1469 460 1469 c 0
 354 1469 275 1537 275 1656 c 0
 275 1805 362 2105 723 2108 c 0
 937 2108 973 1977 973 1867 c 0
 973 1808 963 1734 941 1624 c 2
 858 1216 l 2
 843 1142 826 1069 810 996 c 2
 651 304 l 1
 659 314 707 366 812 366 c 0
 900 366 963 307 963 219 c 0
 963 148 900 -8 741 -8 c 0
EndSplineSet
EndChar

StartChar: uni0E44
Encoding: 3652 3652 68
Width: 923
VWidth: 3622
Flags: W
HStem: -7 55<637.462 860.604> 318 48<681.683 899.282>
VStem: 564 58<64.7684 232.284> 916 49<104.328 300.863>
LayerCount: 2
Fore
SplineSet
1100 2110 m 0
 1112 2110 1130 2098 1130 2048 c 0
 1130 2037 1130 2025 1128 2011 c 2
 1041 1648 l 2
 1012 1531 983 1415 952 1302 c 2
 824 824 l 2
 732 483 666 332 666 322 c 0
 666 321 666 321 667 321 c 0
 678 321 715 366 815 366 c 0
 900 366 965 314 965 219 c 0
 965 103 873 -7 723 -7 c 0
 623 -7 564 52 564 156 c 0
 564 173 565 190 568 207 c 1
 579 239 593 286 612 350 c 2
 762 865 l 1
 957 1588 l 1
 1058 1988 l 1
 760 1652 l 1
 708 1590 l 2
 690 1573 672 1565 654 1565 c 0
 635 1565 623 1571 616 1583 c 2
 379 2061 l 2
 377 2064 376 2068 376 2072 c 0
 376 2090 398 2122 424 2122 c 0
 433 2122 441 2116 449 2105 c 1
 669 1638 l 1
 759 1739 983 1989 1070 2094 c 0
 1081 2105 1091 2110 1100 2110 c 0
622 146 m 0
 622 107 639 48 745 48 c 0
 863 48 916 148 916 212 c 0
 916 254 896 318 803 318 c 0
 729 318 622 263 622 146 c 0
EndSplineSet
EndChar

StartChar: uni0E45
Encoding: 3653 3653 69
Width: 999
VWidth: 3622
Flags: W
HStem: 1282 52<555.898 855.452>
VStem: 324 51<962.189 1156.66> 657 59<-599.554 -546.509> 983 69<926.506 1198.59>
LayerCount: 2
Fore
SplineSet
746 1334 m 0
 916 1334 1052 1275 1052 1039 c 0
 1052 943 1030 833 1015 762 c 2
 972 556 l 2
 864 70 758 -423 716 -580 c 1
 714 -597 691 -605 679 -605 c 0
 664 -605 657 -598 657 -585 c 0
 657 -557 754 -151 791 25 c 2
 952 773 l 2
 962 819 983 925 983 1017 c 0
 983 1160 942 1218 867 1256 c 0
 832 1273 791 1282 746 1282 c 0
 590 1282 451 1228 375 953 c 1
 367 939 359 932 350 932 c 0
 342 932 329 939 324 946 c 1
 391 1307 633 1334 746 1334 c 0
EndSplineSet
EndChar

StartChar: uni0E46
Encoding: 3654 3654 70
Width: 1126
VWidth: 3622
Flags: W
HStem: 681 55<373.911 526.938> 916 54<417.804 547.949> 1213 62<524.958 702.045 916.333 1083.02>
VStem: 325 46<754.298 945.519> 553 56<761.907 910.127> 1111 62<863.736 1180.65>
LayerCount: 2
Fore
SplineSet
1023 1279 m 0
 1143 1279 1173 1150 1173 1049 c 0
 1173 959 1058 350 1008 132 c 2
 945 -133 l 1
 840 -525 l 2
 838 -533 829 -582 784 -582 c 0
 769 -582 757 -572 754 -561 c 1
 820 -369 922 29 1003 428 c 2
 1056 694 l 2
 1073 780 1111 979 1111 1041 c 0
 1111 1116 1090 1204 1002 1204 c 0
 894 1204 844 1032 808 950 c 0
 804 941 797 935 779 935 c 0
 758 935 745 948 743 960 c 1
 747 982 750 1003 750 1023 c 0
 750 1122 694 1213 610 1213 c 256
 527 1213 421 1048 400 946 c 1
 426 965 457 970 481 970 c 0
 546 970 609 929 609 849 c 0
 609 727 504 681 428 681 c 0
 350 681 325 758 325 830 c 0
 325 997 460 1275 623 1275 c 0
 764 1275 793 1128 799 1083 c 1
 823 1177 927 1279 1023 1279 c 0
442 736 m 0
 504 736 553 795 553 841 c 0
 553 901 513 914 478 916 c 0
 406 916 371 845 371 803 c 0
 371 771 385 736 442 736 c 0
EndSplineSet
EndChar

StartChar: uni0E47
Encoding: 3655 3655 71
Width: 0
VWidth: 3622
Flags: MW
HStem: 1518 54<-190.907 -85.9919> 1636 51<-142.227 -49.4738> 1666 66<-391.394 -281.428> 1801 46<-138.518 -37.0952> 2041 53<-415.245 -150.398>
VStem: -639 52<1606.06 1880.82> -194 51<1698.75 1777.07> -23 45<1693.88 1800.49> 101 59<2059.23 2301.2>
LayerCount: 2
Fore
SplineSet
-587 1733 m 0
 -587 1672 -569 1628 -531 1594 c 1
 -524 1594 -514 1600 -500 1614 c 2
 -456 1656 l 2
 -400 1711 -365 1732 -340 1732 c 0
 -308 1732 -278 1708 -232 1648 c 2
 -191 1595 l 2
 -178 1580 -166 1572 -154 1572 c 0
 -125 1572 -75 1619 -71 1641 c 1
 -88 1637 -102 1636 -114 1636 c 0
 -169 1636 -194 1680 -194 1723 c 0
 -194 1794 -127 1847 -67 1847 c 0
 -38 1847 22 1830 22 1763 c 0
 22 1678 -74 1518 -170 1518 c 256
 -255 1518 -265 1666 -354 1666 c 0
 -394 1666 -486 1532 -538 1532 c 0
 -593 1532 -639 1633 -639 1737 c 0
 -639 1984 -407 2088 -267 2094 c 0
 -193 2094 -139 2085 -82 2042 c 2
 -21 1995 l 1
 46 2011 101 2102 101 2226 c 0
 101 2280 84 2287 84 2305 c 0
 84 2330 103 2336 113 2336 c 0
 148 2336 160 2290 160 2250 c 0
 160 2054 45 1939 -48 1939 c 1
 -117 1991 -151 2041 -245 2041 c 0
 -386 2041 -587 1940 -587 1733 c 0
-23 1750 m 0
 -23 1781 -53 1798 -65 1801 c 1
 -119 1801 -143 1760 -143 1737 c 0
 -143 1721 -134 1687 -94 1687 c 0
 -66 1687 -23 1715 -23 1750 c 0
EndSplineSet
Substitution2: "Single Substitution lookup 22 subtable" uni0E47.alt1
Substitution2: "Single Substitution lookup 22 subtable" uni0E47.alt1
EndChar

StartChar: uni0E48
Encoding: 3656 3656 72
Width: 0
VWidth: 3622
Flags: MW
LayerCount: 2
Fore
SplineSet
262 2669 m 1
 269 2676 283 2682 295 2682 c 0
 305 2682 314 2678 320 2669 c 1
 230 2243 l 1
 221 2230 209 2223 196 2223 c 0
 185 2223 177 2230 172 2243 c 1
 262 2669 l 1
EndSplineSet
Substitution2: "Single Substitution lookup 22 subtable" uni0E48.alt2
Substitution2: "Single Substitution lookup 22 subtable" uni0E48.alt2
EndChar

StartChar: uni0E49
Encoding: 3657 3657 73
Width: 0
VWidth: 3622
Flags: W
HStem: 2213 44<-120.489 16.2495 -69.6973 102.196> 2491 41<-83.2528 44.2386> 2724 42<-60.4257 94.3311>
VStem: -155 69<2240.5 2285.22> -134 46<2553.78 2694.66> 118 46<2568.65 2717.98>
LayerCount: 2
Fore
SplineSet
52 2766 m 0xec
 140 2766 164 2707 164 2665 c 0
 164 2604 126 2486 5 2360 c 2
 -50 2303 l 2
 -55 2298 -86 2269 -86 2260 c 0
 -86 2258 -84 2257 -80 2257 c 1
 -80 2257 168 2290 320 2406 c 0
 382 2453 461 2533 555 2749 c 0
 565 2769 581 2773 590 2773 c 0
 605 2773 605 2762 605 2752 c 1
 490 2350 207 2260 -53 2216 c 0
 -66 2214 -79 2213 -90 2213 c 0
 -126 2213 -155 2224 -155 2240 c 0xf4
 -155 2274 -41 2346 64 2513 c 1
 33 2497 3 2491 -24 2491 c 0
 -90 2491 -134 2531 -134 2589 c 0
 -134 2676 -60 2766 52 2766 c 0xec
35 2724 m 0
 -18 2724 -88 2683 -88 2605 c 0xec
 -88 2577 -74 2532 -21 2532 c 0
 32 2532 118 2574 118 2654 c 0
 118 2710 74 2724 35 2724 c 0
EndSplineSet
Substitution2: "Single Substitution lookup 22 subtable" uni0E49.alt2
Substitution2: "Single Substitution lookup 22 subtable" uni0E49.alt2
EndChar

StartChar: uni0E4A
Encoding: 3658 3658 74
Width: 0
VWidth: 3622
Flags: W
HStem: 2140 48<-331.286 -236.811> 2303 57<-285.374 -265 -263 -227.173> 2644 55<-218.539 -80.7348 110.54 241.314>
VStem: -395 54<2188.66 2363.37> -209 50<2198.02 2301.98> 259 54<2279.07 2597.66> 417 66<2454.75 2836.7>
LayerCount: 2
Fore
SplineSet
186 2704 m 0
 284 2704 313 2580 313 2491 c 0
 313 2385 264 2268 241 2223 c 1
 308 2282 417 2464 417 2700 c 0
 417 2810 388 2867 388 2876 c 0
 388 2883 393 2898 415 2898 c 0
 469 2898 483 2781 483 2714 c 0
 483 2370 265 2160 211 2160 c 0
 195 2160 176 2166 176 2190 c 0
 176 2193 177 2196 177 2199 c 1
 220 2252 259 2392 259 2499 c 0
 259 2559 244 2641 184 2641 c 0
 109 2641 32 2488 -4 2354 c 0
 -11 2335 -20 2326 -31 2326 c 0
 -37 2326 -51 2329 -51 2343 c 0
 -51 2352 -40 2380 -40 2437 c 0
 -40 2544 -88 2644 -143 2644 c 0
 -215 2644 -278 2535 -324 2344 c 1
 -306 2355 -286 2360 -265 2360 c 1
 -263 2361 l 1
 -205 2361 -159 2325 -159 2274 c 0
 -159 2230 -179 2149 -297 2140 c 0
 -356 2140 -395 2162 -395 2253 c 0
 -395 2410 -281 2699 -131 2699 c 0
 -78 2699 -11 2635 2 2517 c 1
 62 2641 144 2704 186 2704 c 0
-288 2188 m 0
 -265 2188 -209 2208 -209 2260 c 0
 -209 2295 -236 2303 -253 2303 c 0
 -280 2303 -341 2281 -341 2227 c 0
 -341 2201 -323 2188 -288 2188 c 0
EndSplineSet
Substitution2: "Single Substitution lookup 22 subtable" uni0E4A.alt2
Substitution2: "Single Substitution lookup 22 subtable" uni0E4A.alt2
EndChar

StartChar: uni0E4B
Encoding: 3659 3659 75
Width: 0
VWidth: 3622
Flags: MW
HStem: 2442 61<-68.883 189 262 306.075 306.075 450.447 450.447 513.73>
VStem: 189 64<2406.69 2441 2503 2698.51>
LayerCount: 2
Fore
SplineSet
-75 2470 m 0
 -75 2483 -68 2510 -42 2510 c 2
 198 2503 l 1
 204 2550 214 2597 248 2735 c 0
 255 2754 268 2764 286 2764 c 0
 300 2764 316 2759 316 2742 c 0
 316 2724 272 2603 262 2503 c 1
 378 2503 l 2
 437 2503 473 2516 496 2516 c 0
 511 2516 514 2501 514 2492 c 0
 514 2462 493 2442 352 2442 c 0
 312 2442 293 2444 253 2444 c 1
 187 2182 198 2182 165 2182 c 0
 152 2182 140 2187 140 2203 c 0
 140 2207 141 2211 142 2216 c 2
 189 2441 l 1
 -55 2448 l 2
 -68 2450 -75 2457 -75 2470 c 0
EndSplineSet
Substitution2: "Single Substitution lookup 22 subtable" uni0E4B.alt2
Substitution2: "Single Substitution lookup 22 subtable" uni0E4B.alt2
EndChar

StartChar: uni0E4C
Encoding: 3660 3660 76
Width: 0
VWidth: 3622
Flags: W
HStem: 2120 56<-67.0751 107.309> 2404 50<-31.7168 140.275> 2673 43<127.312 475.406>
VStem: 148 61<2217.99 2397.71>
LayerCount: 2
Fore
SplineSet
-6 2176 m 0
 117 2176 148 2277 148 2323 c 0
 148 2363 123 2404 74 2404 c 0
 -11 2404 -88 2322 -88 2249 c 0
 -88 2213 -60 2176 -6 2176 c 0
-124 2296 m 1
 -80 2404 -3 2454 78 2454 c 0
 149 2454 209 2407 209 2337 c 0
 209 2212 106 2120 -6 2120 c 0
 -50 2120 -161 2140 -168 2296 c 1
 -135 2548 53 2716 322 2716 c 0
 390 2716 464 2704 545 2682 c 1
 553 2674 557 2666 557 2658 c 0
 557 2650 553 2638 537 2638 c 0
 517 2638 457 2673 337 2673 c 0
 74 2673 -97 2503 -124 2296 c 1
EndSplineSet
Substitution2: "Single Substitution lookup 22 subtable" uni0E4C.alt2
Substitution2: "Single Substitution lookup 22 subtable" uni0E4C.alt2
EndChar

StartChar: uni0E4D
Encoding: 3661 3661 77
Width: 0
VWidth: 3622
Flags: W
HStem: 1542 52<14.257 202.125> 1818 55<48.5733 232.339>
VStem: -46 50<1604.56 1775.01> 242 52<1634.83 1788.12>
LayerCount: 2
Fore
SplineSet
-46 1667 m 0
 -46 1765 29 1873 159 1873 c 256
 267 1873 294 1799 294 1747 c 0
 294 1625 181 1542 88 1542 c 0
 13 1542 -46 1592 -46 1667 c 0
242 1733 m 0
 242 1762 230 1818 140 1818 c 0
 96 1818 4 1768 4 1678 c 0
 4 1628 40 1594 99 1594 c 256
 189 1594 242 1671 242 1733 c 0
EndSplineSet
Substitution2: "Single Substitution lookup 22 subtable" uni0E4D.alt1
Substitution2: "Single Substitution lookup 22 subtable" uni0E4D.alt1
EndChar

StartChar: uni0E4E
Encoding: 3662 3662 78
Width: 0
VWidth: 3622
Flags: W
HStem: 1528 75<-99.3478 116.613> 2187 70<64.3314 237.408>
VStem: -201 84<1622.74 1822.96> -56 80<1988.3 2146.4>
LayerCount: 2
Fore
SplineSet
256 2134 m 0
 229 2134 220 2187 154 2187 c 0
 86 2187 24 2112 24 2054 c 0
 24 1947 138 1980 138 1940 c 0
 138 1925 117 1905 96 1905 c 0
 -30 1895 -117 1804 -117 1712 c 0
 -117 1624 -53 1603 5 1603 c 0
 73 1603 100 1650 128 1650 c 0
 140 1650 158 1643 158 1616 c 0
 158 1568 54 1528 -16 1528 c 0
 -123 1528 -201 1600 -201 1692 c 0
 -201 1787 -128 1912 -23 1949 c 1
 -47 1975 -56 2000 -56 2041 c 0
 -56 2144 59 2257 175 2257 c 0
 238 2257 299 2210 299 2183 c 0
 299 2163 282 2134 256 2134 c 0
EndSplineSet
Substitution2: "Single Substitution lookup 22 subtable" uni0E4E.alt1
Substitution2: "Single Substitution lookup 22 subtable" uni0E4E.alt1
EndChar

StartChar: uni0E4F
Encoding: 3663 3663 79
Width: 1630
VWidth: 3622
Flags: W
HStem: 152 73<628.173 1036.69> 425 86<785.301 1010.17> 757 87<825.761 1048.59> 1044 72<800.21 1206.39>
VStem: 371 84<389.591 722.911> 676 95<528.997 703.775> 1064 98<563.477 739.215> 1386 83<542.787 875.636>
LayerCount: 2
Fore
SplineSet
371 537 m 0
 371 829 689 1116 1029 1116 c 0
 1287 1116 1469 953 1469 731 c 0
 1469 431 1145 152 808 152 c 0
 516 152 371 354 371 537 c 0
455 549 m 0
 455 355 613 225 824 225 c 256
 1115 225 1386 462 1386 722 c 0
 1386 884 1253 1044 1014 1044 c 256
 721 1044 455 799 455 549 c 0
1162 678 m 0
 1162 778 1083 844 968 844 c 0
 819 844 676 726 676 588 c 0
 676 490 762 425 870 425 c 0
 1030 425 1162 544 1162 678 c 0
771 602 m 0
 771 697 860 757 948 757 c 0
 1020 757 1064 720 1064 666 c 0
 1064 587 998 511 890 511 c 0
 830 511 771 540 771 602 c 0
EndSplineSet
EndChar

StartChar: uni0E50
Encoding: 3664 3664 80
Width: 1213
VWidth: 3622
Flags: W
HStem: 35 59<431.261 810.772> 930 62<584.83 982.927>
VStem: 190 67<256.316 613.877> 1133 64<415.922 777.083>
LayerCount: 2
Fore
SplineSet
1197 621 m 0
 1197 348 958 35 605 35 c 0
 301 35 190 238 190 414 c 0
 190 673 430 992 817 992 c 0
 1068 992 1197 831 1197 621 c 0
617 94 m 0
 899 94 1133 358 1133 597 c 0
 1133 785 1022 930 803 930 c 0
 516 930 257 706 257 432 c 0
 257 229 401 94 617 94 c 0
EndSplineSet
EndChar

StartChar: uni0E51
Encoding: 3665 3665 81
Width: 1202
VWidth: 3622
Flags: W
HStem: 20 68<356.179 752.295> 258 60<397.067 610.642> 650 46<617.126 813.303> 961 72<594.422 977.717>
VStem: 233 72<449.41 703.112> 502 59<418.959 594.111> 831 61<455.853 632.87> 1142 66<447.051 768.734>
LayerCount: 2
Fore
SplineSet
793 961 m 0
 553 961 305 766 305 552 c 0
 305 507 317 462 340 417 c 1
 390 354 449 318 521 318 c 0
 546 318 588 324 647 348 c 1
 602 357 502 380 502 484 c 0
 502 581 602 696 736 696 c 0
 820 696 892 645 892 550 c 0
 892 371 681 258 520 258 c 0
 340 258 233 382 233 544 c 0
 233 812 536 1033 787 1033 c 0
 911 1033 1040 988 1144 865 c 0
 1195 799 1208 719 1208 649 c 0
 1208 496 1133 214 794 75 c 0
 724 46 634 20 533 20 c 0
 317 20 220 140 220 166 c 0
 220 185 234 204 256 204 c 0
 289 204 336 88 537 88 c 0
 655 88 810 139 930 228 c 0
 1044 320 1142 475 1142 640 c 0
 1142 833 992 961 793 961 c 0
561 497 m 0
 561 443 610 400 663 400 c 0
 754 400 831 486 831 540 c 0
 831 610 787 650 727 650 c 0
 639 650 561 568 561 497 c 0
EndSplineSet
EndChar

StartChar: uni0E52
Encoding: 3666 3666 82
Width: 1406
VWidth: 3622
Flags: W
HStem: 18 44<303.45 1030.6> 265 46<467.627 691.883> 550 48<502.677 724.936> 927 55<636.102 777.422 1136.94 1288.68> 1297 42<245.801 328.613>
VStem: 187 58<122.385 446.841> 373 58<864.37 1253.05> 383 72<323.448 566.233> 742 51<393.432 532.207> 1338 60<490.45 814.65>
LayerCount: 2
Fore
SplineSet
1338 657 m 0xfec0
 1338 739 1316 930 1228 930 c 0
 1150 930 1066 815 989 710 c 2
 891 580 l 1
 852 760 804 927 697 927 c 0
 580 927 488 680 455 529 c 2
 448 497 l 1
 476 546 548 598 640 598 c 0
 729 598 793 550 793 477 c 0
 793 408 730 265 566 265 c 0
 477 265 383 298 383 431 c 0xfdc0
 383 512 461 803 590 932 c 0
 623 965 661 982 704 982 c 0
 835 982 910 812 922 709 c 1
 1065 949 1170 982 1232 982 c 0
 1365 982 1398 845 1398 719 c 0
 1398 578 1329 220 1212 103 c 0
 1137 28 1027 18 883 18 c 2
 392 18 l 2
 269 18 187 88 187 280 c 0
 187 331 193 388 207 449 c 2
 235 552 l 2
 268 669 373 957 373 1112 c 0
 373 1213 334 1283 241 1297 c 1
 236 1304 233 1311 233 1316 c 0
 233 1334 264 1339 288 1339 c 0
 374 1339 431 1285 431 1132 c 0
 431 839 245 487 245 292 c 0
 245 187 285 62 400 62 c 2
 906 65 l 2
 1155 65 1229 97 1325 518 c 0
 1334 559 1338 606 1338 657 c 0xfec0
628 550 m 0
 579 550 455 520 455 412 c 0
 455 331 499 311 573 311 c 0
 709 311 742 428 742 457 c 0
 742 490 716 550 628 550 c 0
EndSplineSet
EndChar

StartChar: uni0E53
Encoding: 3667 3667 83
Width: 1406
VWidth: 3622
Flags: W
HStem: 48 42<247.276 446.66> 336 44<286.05 481.509> 946 53<484.65 661.184 1084.99 1294.42>
VStem: 148 64<279 514.841> 497 51<138.757 320.395> 758 61<556.274 820.003> 1358 61<441.264 881.209>
LayerCount: 2
Fore
SplineSet
548 247 m 0
 548 162 481 48 324 48 c 0
 180 50 148 172 148 283 c 0
 148 572 363 999 584 999 c 256
 734 999 819 814 819 665 c 0
 819 647 818 629 815 612 c 1
 876 783 1049 1003 1205 1003 c 0
 1366 1003 1419 852 1419 696 c 0
 1419 410 1240 48 1107 48 c 0
 1096 48 1090 51 1090 56 c 0
 1090 59 1091 62 1093 65 c 1
 1228 170 1358 464 1358 706 c 0
 1358 827 1315 942 1196 950 c 0
 1020 950 850 592 803 421 c 2
 722 104 l 2
 713 64 698 44 677 44 c 0
 664 44 657 52 657 69 c 0
 657 78 659 88 662 101 c 2
 732 421 l 2
 750 477 758 533 758 589 c 0
 758 821 656 946 575 946 c 0
 430 946 212 539 212 299 c 2
 212 279 l 1
 242 342 337 380 410 380 c 0
 520 380 548 305 548 247 c 0
402 336 m 256
 327 336 229 274 229 181 c 0
 229 129 285 90 341 90 c 0
 425 90 497 164 497 238 c 0
 497 288 458 336 402 336 c 256
EndSplineSet
EndChar

StartChar: uni0E54
Encoding: 3668 3668 84
Width: 1330
VWidth: 3622
Flags: W
HStem: 76 53<381.348 869.896> 232 55<665.976 928.876> 421 46<679.744 840.856> 653 52<684.349 837.722> 782 58<959.298 1137.5> 960 66<507.02 843.351> 1348 40<1528.14 1558>
VStem: 133 59<304.085 628.602> 572 64<320.85 524.326 397.992 598.695> 863 55<492.864 646.096>
LayerCount: 2
Fore
SplineSet
784 705 m 0
 856 705 918 655 918 573 c 0
 912 459 794 421 720 421 c 0
 686 421 659 432 640 453 c 1
 638 438 636 425 636 413 c 0
 636 308 728 287 831 287 c 0
 930 287 956 345 1044 345 c 0
 1048 345 1081 338 1081 325 c 1
 1050 188 951 76 593 76 c 0
 337 76 133 192 133 456 c 0
 133 749 412 1026 708 1026 c 0
 954 1026 897 840 1070 840 c 0
 1113 840 1144 866 1178 974 c 2
 1218 1099 l 2
 1291 1343 1445 1378 1528 1387 c 0
 1531 1387 1534 1388 1537 1388 c 0
 1558 1388 1561 1371 1561 1363 c 0
 1561 1358 1560 1353 1558 1348 c 1
 1155 1304 1344 794 1056 782 c 0
 863 782 919 956 706 960 c 0
 369 960 192 619 192 463 c 0
 192 296 328 129 585 129 c 0
 796 129 926 164 1015 287 c 0
 1016 288 1017 289 1017 290 c 1
 1016 290 l 2
 1014 290 1010 289 1004 286 c 2
 960 266 l 2
 927 251 875 232 830 232 c 0
 644 232 572 310 572 426 c 0
 572 550 639 705 784 705 c 0
642 522 m 0
 642 476 695 467 736 467 c 0
 786 467 849 490 863 561 c 1
 863 642 813 653 784 653 c 0
 720 653 642 590 642 522 c 0
EndSplineSet
EndChar

StartChar: uni0E55
Encoding: 3669 3669 85
Width: 1416
VWidth: 3622
Flags: W
HStem: 28 55<359.647 738.97> 218 61<669.698 898.27> 407 53<685.22 861.326> 637 48<697.297 872.467> 718 57<1070.24 1286.85> 902 55<1180.4 1324.43> 937 59<484.606 865.996> 1047 21G<1487 1508.5> 1224 55<1203.12 1421.43>
VStem: 103 62<257.76 606.865> 570 99<396.773 583.215> 1090 63<984.844 1175.85> 1443 60<1075.04 1203.11> 1608 49<1035.67 1327>
LayerCount: 2
Fore
SplineSet
791 218 m 0xfbfc
 668 218 570 276 570 406 c 0
 570 620 702 685 814 685 c 0
 879 685 938 648 938 574 c 0
 938 507 906 407 732 407 c 0
 701 407 655 414 626 442 c 1
 632 358 661 279 799 279 c 0
 884 279 912 290 1060 310 c 1
 1078 302 1081 292 1081 279 c 0
 1081 223 1010 109 819 64 c 0
 663 28 604 34 545 28 c 0
 303 28 103 146 103 410 c 0
 103 598 226 996 720 996 c 0
 902 996 963 913 983 884 c 2
 1049 808 l 2
 1072 786 1107 775 1155 775 c 0
 1249 775 1365 854 1403 937 c 1xfbfc
 1365 916 1309 902 1258 902 c 0xfdfc
 1162 902 1090 963 1090 1055 c 0
 1090 1189 1224 1279 1330 1279 c 0
 1469 1279 1503 1167 1503 1129 c 0
 1503 1102 1495 1075 1479 1047 c 1
 1538 1134 1571 1217 1608 1327 c 1
 1618 1332 1625 1335 1631 1335 c 0
 1641 1335 1657 1325 1657 1297 c 1
 1570 995 1347 718 1141 718 c 0
 903 718 981 937 692 937 c 0
 348 937 165 627 165 417 c 0
 165 217 344 83 557 83 c 0
 673 83 962 131 1024 249 c 1
 957 232 871 218 791 218 c 0xfbfc
1153 1082 m 0
 1153 1015 1201 957 1277 957 c 0xfdfc
 1320 957 1363 973 1406 1006 c 1
 1438 1047 1443 1090 1443 1111 c 0
 1443 1156 1420 1224 1327 1224 c 0
 1238 1224 1153 1163 1153 1082 c 0
761 460 m 0
 805 460 868 483 881 547 c 1
 879 586 873 637 793 637 c 0
 736 637 669 587 669 534 c 0
 669 504 682 460 761 460 c 0
EndSplineSet
EndChar

StartChar: uni0E56
Encoding: 3670 3670 86
Width: 1195
VWidth: 3622
Flags: W
HStem: 25 59<470.587 721.979> 365 64<484.877 703.932> 912 72<610.334 979.842>
VStem: 365 61<132.022 307.111> 722 60<183.122 345.353> 1109 73<388.072 781.073>
LayerCount: 2
Fore
SplineSet
608 429 m 0
 700 429 782 372 782 271 c 0
 782 255 781 185 716 111 c 1
 972 154 1109 385 1109 593 c 0
 1109 777 1011 912 815 912 c 0
 634 912 505 808 470 808 c 0
 457 808 446 814 437 826 c 1
 432 866 403 1165 288 1268 c 1
 288 1271 l 0
 288 1297 318 1308 337 1308 c 0
 339 1308 368 1320 421 1218 c 0
 475 1113 489 1001 504 895 c 1
 619 949 727 984 831 984 c 0
 1112 984 1182 767 1182 607 c 0
 1182 333 965 25 593 25 c 0
 497 25 436 27 388 110 c 0
 378 129 365 164 365 200 c 0
 365 309 480 429 608 429 c 0
553 84 m 0
 649 84 722 180 722 258 c 0
 722 344 653 365 600 365 c 0
 486 365 426 268 426 200 c 0
 426 148 470 84 553 84 c 0
EndSplineSet
EndChar

StartChar: uni0E57
Encoding: 3671 3671 87
Width: 1538
VWidth: 3622
Flags: W
HStem: 14 55<202.308 385.384> 301 58<226.643 429.458> 930 55<460.004 644.087 1049.66 1220.39>
VStem: 115 67<79.4408 362.141 290 472.266> 437 55<120.212 290.592> 739 66<455.478 790.424> 1277 69<414.902 848.019> 1594 70<683.487 1272.94>
LayerCount: 2
Fore
SplineSet
1346 619 m 0
 1346 333 1210 127 1210 110 c 0
 1210 106 1212 104 1215 104 c 0
 1291 104 1594 514 1594 982 c 0
 1594 1182 1544 1273 1544 1298 c 0
 1544 1325 1567 1332 1580 1332 c 0
 1631 1332 1664 1178 1664 1040 c 0
 1664 677 1507 202 1224 48 c 0
 1199 34 1176 27 1155 27 c 0
 1129 27 1104 38 1104 60 c 0
 1104 95 1230 180 1268 478 c 0
 1274 524 1277 569 1277 612 c 0
 1277 739 1250 916 1141 916 c 0
 981 916 849 587 798 377 c 0
 792 352 778 329 748 329 c 0
 731 330 723 338 723 352 c 0
 723 438 739 443 739 525 c 0
 739 738 665 930 555 930 c 0
 375 930 182 471 182 304 c 2
 182 290 l 1
 216 327 279 359 343 359 c 0
 467 359 492 281 492 228 c 0
 492 85 373 14 268 14 c 0
 146 14 115 124 115 226 c 0
 115 510 346 985 575 985 c 0
 667 985 805 846 805 617 c 0
 805 595 804 575 801 554 c 1
 862 780 1043 989 1148 989 c 0
 1267 989 1346 840 1346 619 c 0
276 69 m 0
 354 69 437 136 437 219 c 0
 437 280 397 301 331 301 c 0
 253 301 170 222 170 149 c 0
 170 85 229 69 276 69 c 0
EndSplineSet
EndChar

StartChar: uni0E58
Encoding: 3672 3672 88
Width: 1361
VWidth: 3622
Flags: W
HStem: 14 51<869.633 960.519> 14 73<291.791 377.908> 239 51<904.362 1056.24> 256 66<531.752 689.568> 670 66<1187 1280.08> 877 61<580.772 915.08>
VStem: 172 64<149.551 556.541> 840 58<314.276 429.711> 1123 53<324.561 475.572> 1413 56<913.789 1245.78>
LayerCount: 2
Fore
SplineSet
236 359 m 0x5fc0
 236 212 298 87 340 87 c 0
 355 87 372 98 388 120 c 2
 448 196 l 2
 532 304 580 322 617 322 c 0x5fc0
 653 322 705 301 788 191 c 2
 833 131 l 2
 877 72 892 65 907 65 c 0
 931 65 992 138 1090 283 c 1
 1035 240 996 239 976 239 c 0
 892 239 840 288 840 357 c 0
 840 437 907 543 1032 543 c 0
 1159 543 1176 462 1176 420 c 0
 1176 312 1034 14 893 14 c 0xafc0
 781 14 726 256 603 256 c 0
 510 256 437 14 327 14 c 0
 244 14 172 180 172 349 c 0
 172 721 520 938 799 938 c 0
 1007 938 1090 851 1187 736 c 1
 1312 736 1413 952 1413 1121 c 0
 1413 1226 1381 1262 1381 1271 c 0
 1381 1297 1399 1304 1410 1304 c 0
 1420 1304 1430 1299 1440 1289 c 1
 1460 1249 1469 1198 1469 1138 c 0
 1469 931 1346 670 1161 670 c 0
 1104 670 1135 759 941 847 c 0
 894 868 839 877 755 877 c 0
 579 877 236 695 236 359 c 0x5fc0
1123 404 m 0
 1123 454 1084 485 1037 488 c 0
 913 481 898 394 898 371 c 0
 898 333 914 290 980 290 c 0x2fc0
 1074 290 1123 354 1123 404 c 0
EndSplineSet
EndChar

StartChar: uni0E59
Encoding: 3673 3673 89
Width: 1344
VWidth: 3622
Flags: W
HStem: -25 42<281.467 471.977> 253 48<314.528 507.097> 569 61<1186.04 1300.75> 847 73<428.827 635.206> 884 66<936.201 1059.36>
VStem: 142 66<133.918 382.726> 518 53<63.4995 243.807> 786 60<266.918 583.826 525.675 641.977> 1442 72<945.121 1250.05>
LayerCount: 2
Fore
SplineSet
1229 569 m 0xef80
 1061 569 1124 884 1000 884 c 0xef80
 934 884 836 825 836 627 c 0
 836 577 846 509 846 408 c 0
 846 381 848 300 824 142 c 1
 805 129 789 123 781 123 c 0
 771 123 764 129 759 142 c 1
 777 233 786 314 786 384 c 0
 786 680 642 847 534 847 c 0
 405 847 250 646 211 274 c 0
 209 256 208 239 208 221 c 0
 208 189 211 156 218 124 c 1
 245 254 348 301 428 301 c 0
 539 301 571 240 571 176 c 0
 571 93 512 -25 362 -25 c 0
 186 -25 142 108 142 233 c 0
 142 491 304 920 547 920 c 0xf780
 604 920 653 898 693 854 c 0
 737 808 769 766 789 729 c 1
 830 935 980 950 1022 950 c 0
 1189 934 1116 630 1251 630 c 0
 1319 630 1396 767 1420 930 c 0
 1432 1010 1442 1088 1442 1139 c 0
 1442 1209 1426 1256 1426 1260 c 0
 1426 1282 1460 1282 1473 1282 c 0
 1498 1282 1514 1256 1514 1164 c 0
 1514 947 1446 748 1394 666 c 0
 1340 579 1264 569 1229 569 c 0xef80
436 253 m 0
 349 253 270 195 270 109 c 0
 270 82 280 17 356 17 c 0
 469 17 518 107 518 160 c 0
 518 212 485 253 436 253 c 0
EndSplineSet
EndChar

StartChar: uni0E5A
Encoding: 3674 3674 90
Width: 1282
VWidth: 3622
Flags: W
HStem: 777 71<518.089 859.674> 911 64<435.385 621.547> 1223 69<446.031 628.411>
VStem: 325 74<991.581 1173.02> 669 73<1023.33 1206.8>
LayerCount: 2
Fore
SplineSet
1063 35 m 0
 1041 35 1035 54 1035 67 c 0
 1035 89 1192 660 1298 1157 c 1
 1093 1003 l 1
 1036 769 944 397 922 302 c 0
 849 71 671 39 670 39 c 0
 656 39 641 50 641 67 c 0
 641 72 642 77 644 83 c 1
 644 112 808 143 847 302 c 2
 985 884 l 1
 896 820 810 782 665 777 c 0
 493 777 325 828 325 1012 c 0
 325 1185 447 1292 583 1292 c 0
 681 1292 742 1234 742 1146 c 0
 742 1027 649 911 481 911 c 0
 466 911 449 912 432 914 c 1
 492 854 618 848 666 848 c 0
 912 848 1022 1001 1077 1247 c 0
 1080 1275 1107 1289 1123 1289 c 256
 1138 1289 1153 1282 1153 1265 c 0
 1153 1261 1153 1257 1151 1252 c 1
 1118 1104 l 1
 1220 1170 1248 1202 1281 1226 c 2
 1334 1270 l 2
 1350 1283 1359 1289 1360 1289 c 0
 1374 1288 1396 1282 1396 1263 c 0
 1396 1260 1395 1256 1394 1252 c 2
 1309 886 l 1
 1113 78 l 2
 1109 64 1093 35 1063 35 c 0
559 1223 m 0
 469 1223 399 1161 399 1067 c 0
 399 1006 445 975 500 975 c 0
 566 975 669 1018 669 1127 c 0
 669 1204 603 1223 559 1223 c 0
EndSplineSet
EndChar

StartChar: uni0E5B
Encoding: 3675 3675 91
Width: 2605
VWidth: 3622
Flags: W
HStem: 203 73<590.266 970.316> 276 65<1578.05 1697.11> 414 60<2172.34 2384.93> 497 122<891 966.686> 801 69<1955.25 2093.04> 913 73<1416.66 1555.06> 1003 58<692.1 999.839>
VStem: 384 76<397.447 743.596> 1060 71<690.555 943.639> 1492 81<341.48 591.794> 1560 77<673.498 910.287> 2089 72<479.732 602.614> 2103 73<605.134 796.231>
LayerCount: 2
Fore
SplineSet
1560 828 m 0xffa0
 1560 891 1537 913 1503 913 c 0
 1497 913 l 0
 1454 913 1412 894 1336 736 c 2
 1254 565 l 2
 1089 216 864 203 775 203 c 0
 556 203 384 304 384 542 c 0
 384 800 579 1061 865 1061 c 0
 1030 1061 1131 975 1131 812 c 0
 1131 607 948 497 814 497 c 0
 745 497 689 553 689 611 c 0
 689 672 742 757 826 757 c 256
 889 757 905 715 905 684 c 0
 905 665 900 644 891 619 c 1
 977 619 1060 712 1060 821 c 0
 1060 901 1017 1003 861 1003 c 0
 632 1003 460 773 460 549 c 0
 460 440 518 276 791 276 c 0
 1045 276 1142 483 1215 640 c 2
 1276 772 l 2
 1352 938 1427 986 1508 986 c 0
 1586 986 1637 947 1637 833 c 0xffa0
 1637 765 1615 680 1611 663 c 2
 1588 546 l 2
 1578 500 1573 456 1573 426 c 0
 1573 361 1593 341 1624 341 c 2
 1626 341 l 2
 1793 341 1761 862 2050 870 c 0
 2126 870 2176 837 2176 717 c 0xffc8
 2176 642 2161 612 2161 532 c 0
 2161 497 2182 474 2252 474 c 0
 2370 474 2471 542 2493 542 c 0
 2507 542 2519 528 2519 510 c 0
 2519 499 2512 468 2480 453 c 0
 2389 425 2303 414 2244 414 c 0
 2186 414 2089 423 2089 486 c 0xff90
 2089 575 2103 586 2103 682 c 0
 2103 773 2076 801 2036 801 c 0
 1847 793 1870 276 1613 276 c 0
 1541 276 1492 314 1492 426 c 0xffc8
 1492 565 1560 711 1560 828 c 0xffa0
EndSplineSet
EndChar

StartChar: ampersand.001
Encoding: 65540 -1 93
Width: 1538
VWidth: 3622
Flags: W
HStem: -29 70<505 957.834> 978 87<863 1016.81> 1701 83<812.38 1139.58>
VStem: 240 84<214.556 601.474> 469 89<1156.97 1449.81> 1238 98<1272.81 1601.66> 1520 90<540.677 851.29>
LayerCount: 2
Fore
SplineSet
324 400 m 0
 324 251 399 44 709 41 c 0
 965 41 1149 175 1220 239 c 1
 963 402 841 700 762 937 c 1
 491 882 324 625 324 400 c 0
558 1290 m 0
 558 1200 605 1065 844 1065 c 0
 1122 1065 1238 1289 1238 1444 c 0
 1238 1543 1189 1701 992 1701 c 0
 746 1701 558 1469 558 1290 c 0
1546 896 m 0
 1572 896 1610 877 1610 755 c 0
 1610 588 1532 352 1373 249 c 1
 1508 114 1655 106 1655 69 c 0
 1655 44 1610 26 1585 26 c 0
 1583 26 1462 46 1293 196 c 1
 1096 40 927 -29 688 -29 c 0
 359 -29 240 192 240 392 c 0
 240 626 414 936 711 996 c 1
 552 1023 469 1143 469 1293 c 0
 469 1514 652 1784 1011 1784 c 0
 1271 1784 1336 1582 1336 1463 c 0
 1336 1269 1193 1025 863 978 c 1
 932 699 1050 486 1288 308 c 1
 1400 346 1520 574 1520 745 c 0
 1520 808 1504 835 1504 851 c 0
 1504 872 1521 896 1546 896 c 0
EndSplineSet
EndChar

StartChar: uni0E33.alt1
Encoding: 65541 -1 94
Width: 999
VWidth: 3622
Flags: W
HStem: 1231 62<540.477 897.905> 1542 52<-459.743 -271.875> 1818 55<-425.427 -241.661>
VStem: -520 50<1604.56 1775.01> -232 52<1634.83 1788.12> 986 59<883.826 1139.65>
LayerCount: 2
Back
SplineSet
325 952 m 0
 323 934 327.667 923.5 339 920.5 c 128
 350.333 917.5 359.333 920.667 366 930 c 1
 384 982 403.333 1026.67 424 1064 c 128
 444.667 1101.33 469.333 1132 498 1156 c 128
 526.667 1180 559.833 1198.17 597.5 1210.5 c 128
 635.167 1222.83 679.667 1229.67 731 1231 c 0
 777.667 1231 819 1224.5 855 1211.5 c 128
 891 1198.5 918 1180.33 936 1157 c 0
 951.333 1134.33 962.167 1105 968.5 1069 c 128
 974.833 1033 976 988.167 972 934.5 c 128
 968 880.833 959.167 818.167 945.5 746.5 c 128
 931.833 674.833 913.333 591.667 890 497 c 0
 876 435 876 435 866 391.5 c 128
 856 348 856 348 845.5 302 c 128
 835 256 835 256 822.5 199 c 128
 814.167 161 804 111.667 792 51 c 0
 790 40.3333 791.667 33 797 29 c 128
 802.333 25 808.5 23.3333 815.5 24 c 128
 822.5 24.6667 829.5 27.6667 836.5 33 c 128
 843.5 38.3333 848.333 44.3333 851 51 c 2
 975 587 l 2
 994 679 994 679 1012.5 767.5 c 128
 1024.83 826.5 1033.33 882.333 1038 935 c 128
 1042.67 987.667 1042.33 1036 1037 1080 c 128
 1031.67 1124 1018.17 1161.67 996.5 1193 c 128
 974.833 1224.33 943 1248.83 901 1266.5 c 128
 859 1284.17 804.667 1293 738 1293 c 0
 620 1293 528.5 1263.83 463.5 1205.5 c 128
 398.5 1147.17 352.333 1062.67 325 952 c 0
-203 1884 m 0
 -147 1884 -103.833 1865.33 -73.5 1828 c 128
 -43.1667 1790.67 -34 1743.67 -46 1687 c 0
 -58.6667 1628.33 -88 1580.67 -134 1544 c 0
 -181.333 1507.33 -232.667 1489 -288 1489 c 256
 -343.333 1489 -386.333 1507.67 -417 1545 c 128
 -447.667 1582.33 -457.333 1629.67 -446 1687 c 0
 -432.667 1745 -403 1791.67 -357 1827 c 0
 -309 1865 -257.667 1884 -203 1884 c 0
-216 1825 m 0
 -246.667 1825 -280.333 1811.67 -317 1785 c 0
 -352.333 1759 -374.667 1726.33 -384 1687 c 0
 -392 1647 -386.333 1613.5 -367 1586.5 c 128
 -347.667 1559.5 -317.333 1546 -276 1546 c 0
 -237.333 1546 -201.667 1559.5 -169 1586.5 c 128
 -136.333 1613.5 -116 1647 -108 1687 c 0
 -100 1726.33 -106.5 1758.67 -127.5 1784 c 128
 -148.5 1809.33 -178 1823 -216 1825 c 0
EndSplineSet
Fore
Refer: 54 3634 N 1 0 0 1 0 0 2
Refer: 113 63249 N 1 0 0 1 0 0 2
EndChar

StartChar: uni0E10.alt1
Encoding: 63232 63232 96
Width: 1271
VWidth: 3622
Flags: W
HStem: 0 58<779.431 859.457> 348 50<496.002 721.684> 719 59<542.021 757.404> 874 63<362.912 773.64 724.87 822.409 822.409 1086.52 905.697 1139.38> 1014 61<1197.22 1311.03> 1254 57<619.683 941.51>
VStem: 259 81<942.494 1042.1> 406 64<451.045 642.586> 710 67<68.4132 309.435> 790 59<493.384 686.415> 1150 62<608.08 855.281>
LayerCount: 2
Fore
SplineSet
653 719 m 0
 525 719 470 582 470 520 c 0
 470 473 494 398 611 398 c 0
 709 398 790 494 790 583 c 0
 790 645 750 719 653 719 c 0
1212 806 m 0
 1212 682 991 0 789 0 c 0
 742 0 710 27 710 116 c 0
 710 206 731 260 741 391 c 1
 718 373 683 348 587 348 c 0
 516 348 468 370 442 414 c 0
 418 454 406 490 406 523 c 0
 406 635 514 778 676 778 c 0
 814 778 849 682 849 593 c 0
 849 556 842 512 830 460 c 2
 799 320 l 2
 791 284 777 211 777 139 c 0
 777 87 783 58 807 58 c 0
 890 58 1150 594 1150 782 c 0
 1150 845 1122 874 953 874 c 0
 684 874 595 868 505 868 c 0
 286 868 259 898 259 945 c 0
 259 1073 565 1311 807 1311 c 0
 1004 1311 1089 1256 1182 1112 c 0
 1198 1087 1222 1075 1254 1075 c 0
 1303 1075 1312 1118 1316 1134 c 0
 1319 1145 1330 1151 1350 1151 c 0
 1368 1151 1377 1146 1377 1135 c 0
 1377 1084 1301 1014 1240 1014 c 0
 1105 1014 1120 1123 976 1218 c 0
 940 1242 883 1254 805 1254 c 0
 609 1254 340 1069 340 967 c 0
 340 941 390 935 579 935 c 0
 678 935 777 937 1075 937 c 0
 1083 938 1091 938 1098 938 c 0
 1189 938 1212 873 1212 806 c 0
EndSplineSet
EndChar

StartChar: uni0E48.alt2
Encoding: 63242 63242 106
Width: 0
VWidth: 3622
Flags: MW
LayerCount: 2
Fore
SplineSet
214 2084 m 1
 225 2097 236 2103 246 2103 c 0
 259 2103 269 2092 269 2080 c 2
 269 2075 l 1
 180 1656 l 1
 172 1644 162 1638 149 1638 c 256
 136 1638 127 1644 122 1656 c 1
 214 2084 l 1
EndSplineSet
Substitution2: "Single Substitution lookup 20 subtable" uni0E48.alt3
Substitution2: "Single Substitution lookup 21 subtable" uni0E48
Substitution2: "Single Substitution lookup 22 subtable" uni0E48.alt1
Substitution2: "Single Substitution lookup 20 subtable" uni0E48.alt3
Substitution2: "Single Substitution lookup 21 subtable" uni0E48
Substitution2: "Single Substitution lookup 22 subtable" uni0E48.alt1
EndChar

StartChar: uni0E49.alt2
Encoding: 63243 63243 107
Width: 0
VWidth: 3622
Flags: W
HStem: 1804 43<-391.026 -247.563> 2039 42<-361.095 -185.255>
VStem: -451 65<1550.6 1598.87> -434 38<1856.71 2001.88> -181 44<1881.31 2018.34>
LayerCount: 2
Fore
SplineSet
-251 2081 m 0xd8
 -185 2081 -137 2041 -137 1982 c 0
 -137 1920 -230 1735 -370 1594 c 0
 -381 1584 -386 1578 -386 1574 c 0
 -386 1573 -385 1572 -382 1572 c 1
 -382 1572 -128 1606 18 1718 c 0
 182 1842 248 2072 269 2086 c 0
 275 2090 280 2092 285 2092 c 0
 296 2092 305 2084 305 2073 c 1
 305 2073 231 1689 -159 1575 c 0
 -252 1548 -350 1529 -398 1529 c 0
 -421 1529 -451 1533 -451 1549 c 0xe8
 -451 1585 -305 1718 -237 1829 c 1
 -260 1816 -290 1804 -326 1804 c 0
 -391 1804 -434 1849 -434 1907 c 0
 -434 2003 -337 2081 -251 2081 c 0xd8
-264 2039 m 0
 -335 2039 -396 1973 -396 1914 c 0xd8
 -396 1874 -355 1847 -306 1847 c 0
 -256 1847 -181 1898 -181 1969 c 0
 -181 1987 -184 2039 -264 2039 c 0
EndSplineSet
Substitution2: "Single Substitution lookup 20 subtable" uni0E49.alt3
Substitution2: "Single Substitution lookup 21 subtable" uni0E49
Substitution2: "Single Substitution lookup 22 subtable" uni0E49.alt1
Substitution2: "Single Substitution lookup 20 subtable" uni0E49.alt3
Substitution2: "Single Substitution lookup 21 subtable" uni0E49
Substitution2: "Single Substitution lookup 22 subtable" uni0E49.alt1
EndChar

StartChar: uni0E4A.alt2
Encoding: 63244 63244 108
Width: 0
VWidth: 3622
Flags: W
HStem: 1535 48<-541.584 -446.941> 1698 51<-510.24 -431.102> 2039 55<-429.098 -293.43 -97.7293 23.8176>
VStem: -607 56<1583.39 1763.99> -420 47<1606.76 1697.02> 44 56<1724.26 1986.82> 205 54<1841.09 2187.32>
LayerCount: 2
Fore
SplineSet
-16 2098 m 0
 76 2094 100 1963 100 1882 c 0
 100 1802 96 1765 28 1618 c 1
 157 1743 205 1948 205 2082 c 0
 205 2127 201 2193 179 2261 c 1
 176 2264 175 2268 175 2272 c 0
 175 2280 182 2293 205 2293 c 0
 220 2293 229 2287 237 2278 c 1
 252 2213 259 2151 259 2090 c 0
 259 1733 42 1555 -0 1555 c 0
 -17 1555 -34 1562 -34 1591 c 0
 -34 1613 44 1684 44 1860 c 0
 44 1914 38 2036 -27 2036 c 0
 -102 2036 -185 1864 -214 1749 c 1
 -222 1730 -232 1721 -243 1721 c 0
 -251 1721 -262 1725 -262 1740 c 0
 -262 1753 -252 1774 -252 1831 c 0
 -252 1939 -301 2039 -354 2039 c 0
 -427 2039 -491 1926 -536 1739 c 1
 -515 1746 -494 1749 -473 1749 c 0
 -415 1749 -373 1716 -373 1666 c 0
 -373 1626 -392 1544 -509 1535 c 0
 -575 1535 -607 1560 -607 1643 c 0
 -607 1829 -478 2094 -343 2094 c 0
 -275 2094 -222 2005 -209 1912 c 1
 -170 1989 -94 2098 -16 2098 c 0
-499 1583 m 0
 -471 1583 -420 1606 -420 1654 c 0
 -420 1689 -450 1698 -469 1698 c 0
 -501 1698 -551 1674 -551 1622 c 0
 -551 1596 -533 1583 -499 1583 c 0
EndSplineSet
Substitution2: "Single Substitution lookup 20 subtable" uni0E4A.alt3
Substitution2: "Single Substitution lookup 21 subtable" uni0E4A
Substitution2: "Single Substitution lookup 22 subtable" uni0E4A.alt1
Substitution2: "Single Substitution lookup 20 subtable" uni0E4A.alt3
Substitution2: "Single Substitution lookup 21 subtable" uni0E4A
Substitution2: "Single Substitution lookup 22 subtable" uni0E4A.alt1
EndChar

StartChar: uni0E4B.alt2
Encoding: 63245 63245 109
Width: 0
VWidth: 3622
Flags: MW
HStem: 1832 61<-51.0449 208 285 329.729 329.729 478.672 478.672 533.445>
VStem: -55 589<1840.11 1884.7>
LayerCount: 2
Fore
SplineSet
534 1883 m 0
 534 1842 487 1832 376 1832 c 0
 334 1832 294 1834 273 1834 c 1
 256 1766 l 2
 252 1749 248 1733 243 1719 c 2
 227 1670 l 2
 206 1601 208 1571 174 1571 c 0
 161 1571 150 1579 150 1595 c 0
 150 1598 150 1602 151 1606 c 2
 208 1831 l 1
 -37 1838 l 2
 -49 1840 -55 1846 -55 1858 c 0
 -55 1871 -49 1900 -21 1900 c 2
 219 1893 l 1
 222 1913 227 1937 234 1964 c 2
 259 2064 l 2
 274 2124 282 2151 321 2151 c 0
 338 2151 347 2145 347 2133 c 0
 347 2114 292 1967 285 1893 c 1
 400 1893 l 2
 457 1893 515 1905 516 1905 c 0
 529 1905 534 1895 534 1883 c 0
EndSplineSet
Substitution2: "Single Substitution lookup 20 subtable" uni0E4B.alt3
Substitution2: "Single Substitution lookup 21 subtable" uni0E4B
Substitution2: "Single Substitution lookup 22 subtable" uni0E4B.alt1
Substitution2: "Single Substitution lookup 20 subtable" uni0E4B.alt3
Substitution2: "Single Substitution lookup 21 subtable" uni0E4B
Substitution2: "Single Substitution lookup 22 subtable" uni0E4B.alt1
EndChar

StartChar: uni0E4C.alt2
Encoding: 63246 63246 110
Width: 0
VWidth: 3622
Flags: W
HStem: 1540 65<-190.072 2.64256> 1815 55<-136.094 40.5279> 2094 53<14.9966 361.611>
VStem: -279 44<1718 1857.03> 45 52<1647.07 1794.47>
LayerCount: 2
Fore
SplineSet
-197 1677 m 0
 -197 1662 -186 1605 -108 1605 c 0
 -34 1605 45 1661 45 1736 c 0
 45 1775 32 1815 -23 1815 c 0
 -102 1815 -197 1737 -197 1677 c 0
-235 1718 m 1
 -233 1718 -177 1870 -24 1870 c 0
 53 1870 97 1820 97 1756 c 0
 97 1634 -17 1540 -127 1540 c 0
 -212 1540 -279 1621 -279 1718 c 0
 -279 1900 -77 2147 223 2147 c 0
 291 2147 363 2131 439 2098 c 1
 444 2093 447 2087 447 2082 c 0
 447 2072 438 2057 423 2057 c 0
 403 2057 346 2094 226 2094 c 0
 -7 2094 -208 1950 -235 1718 c 1
EndSplineSet
Substitution2: "Single Substitution lookup 20 subtable" uni0E4C.alt3
Substitution2: "Single Substitution lookup 21 subtable" uni0E4C
Substitution2: "Single Substitution lookup 22 subtable" uni0E4C.alt1
Substitution2: "Single Substitution lookup 20 subtable" uni0E4C.alt3
Substitution2: "Single Substitution lookup 21 subtable" uni0E4C
Substitution2: "Single Substitution lookup 22 subtable" uni0E4C.alt1
EndChar

StartChar: uni0E0D.alt1
Encoding: 63247 63247 111
Width: 1775
VWidth: 3622
Flags: W
HStem: 7 69<1045 1140.51> 7 58<364.517 574.974 1102.96 1456.5 1456.5 1576.53> 348 46<436.819 623.436> 1231 60<677.838 1020.01>
VStem: 286 61<72.3082 244.42> 454 66<686.836 822.387> 644 57<124.974 325.01> 1147 60<775.663 1092.81>
LayerCount: 2
Fore
SplineSet
701 233 m 0x7f
 701 161 625 3 431 3 c 0
 359 3 286 72 286 153 c 0
 286 197 324 332 338 375 c 2
 398 571 l 2
 433 676 454 773 454 804 c 0
 454 810 449 817 380 843 c 2
 306 871 l 2
 238 897 231 912 231 922 c 0
 231 974 350 1166 655 1263 c 0
 713 1281 769 1291 824 1291 c 0
 1130 1291 1207 1140 1207 909 c 0
 1207 820 1194 707 1167 570 c 2
 1045 76 l 1xbf
 1089 71 1202 65 1269 65 c 2
 1353 65 l 2
 1423 65 1490 66 1560 69 c 0
 1584 69 1667 459 1682 524 c 2
 1824 1235 l 1
 1825 1270 1847 1288 1862 1288 c 0
 1872 1288 1887 1279 1887 1255 c 0
 1887 1230 1880 1230 1858 1126 c 0
 1844 1061 1756 604 1729 474 c 2
 1695 310 l 2
 1672 205 1653 121 1636 58 c 1
 1611 10 1589 7 1520 7 c 0
 1022 7 l 0
 990 7 979 18 979 35 c 0
 979 39 979 43 980 48 c 2
 1100 547 l 2
 1131 676 1147 787 1147 880 c 0
 1147 1114 1047 1231 847 1231 c 0
 585 1231 341 1067 304 941 c 1
 509 854 l 1
 516 849 520 838 520 821 c 0
 520 737 432 489 394 348 c 1
 444 393 490 394 537 394 c 0
 624 394 701 362 701 233 c 0x7f
460 55 m 0
 576 55 644 164 644 241 c 0
 644 303 595 348 522 348 c 0
 399 348 347 230 347 170 c 0
 347 113 369 55 460 55 c 0
EndSplineSet
EndChar

StartChar: uni0E38.alt1
Encoding: 63256 63256 120
Width: 0
VWidth: 3622
Flags: W
HStem: -964 48<-579.558 -358.122> -640 49<-536.096 -324.944>
VStem: -644 51<-902.278 -696.534> -377 60<-1146.99 -1099.78> -305 55<-925.733 -685.957>
LayerCount: 2
Fore
SplineSet
-481 -916 m 0
 -380 -916 -305 -845 -305 -754 c 0
 -305 -713 -326 -640 -410 -640 c 0
 -534 -640 -593 -731 -593 -814 c 0
 -593 -896 -541 -916 -481 -916 c 0
-358 -1147 m 0
 -368 -1147 -377 -1142 -377 -1131 c 0
 -377 -1113 -344 -1022 -333 -916 c 1
 -394 -949 -400 -964 -502 -964 c 0
 -594 -964 -644 -915 -644 -823 c 0
 -644 -637 -484 -591 -412 -591 c 0
 -324 -591 -250 -621 -250 -742 c 0
 -250 -844 -309 -1016 -317 -1120 c 0
 -317 -1136 -345 -1147 -358 -1147 c 0
EndSplineSet
EndChar

StartChar: uni0E39.alt1
Encoding: 63257 63257 121
Width: 0
VWidth: 3622
Flags: MW
HStem: -1137 69<-612 -518 -518 -403> -985 48<-888.263 -692.5> -663 51<-843.953 -632.637>
VStem: -954 53<-922.516 -719.612> -612 61<-941.871 -681.845>
LayerCount: 2
Fore
SplineSet
-295 -635 m 0
 -270 -635 -266 -646 -266 -654 c 0
 -266 -656 -266 -658 -267 -660 c 1
 -298 -812 l 2
 -317 -904 -318 -923 -332 -996 c 2
 -350 -1090 l 2
 -358 -1119 -363 -1120 -405 -1127 c 2
 -631 -1137 l 2
 -654 -1137 -681 -1136 -681 -1106 c 0
 -681 -1081 -665 -1058 -640 -937 c 1
 -708 -981 -719 -985 -799 -985 c 0
 -919 -985 -954 -918 -954 -847 c 0
 -954 -649 -775 -612 -719 -612 c 0
 -589 -612 -551 -673 -551 -764 c 0
 -551 -843 -567 -877 -612 -1075 c 1
 -403 -1068 l 1
 -387 -972 l 2
 -384 -954 -375 -898 -352 -788 c 2
 -322 -656 l 1
 -321 -642 -312 -635 -295 -635 c 0
-789 -937 m 0
 -671 -937 -612 -849 -612 -770 c 0
 -612 -702 -664 -663 -720 -663 c 0
 -844 -663 -901 -753 -901 -835 c 0
 -901 -917 -849 -937 -789 -937 c 0
EndSplineSet
EndChar

StartChar: uni0E3A.alt1
Encoding: 63258 63258 122
Width: 0
VWidth: 3622
Flags: W
HStem: -906 214<-465.427 -312.823>
VStem: -497 220<-870.854 -723.332>
LayerCount: 2
Fore
SplineSet
-277 -776 m 0
 -277 -838 -333 -906 -412 -906 c 256
 -480 -906 -497 -859 -497 -827 c 0
 -497 -773 -462 -692 -368 -692 c 256
 -312 -692 -277 -724 -277 -776 c 0
EndSplineSet
EndChar

StartChar: uni0E0E.alt1
Encoding: 63259 63259 123
Width: 1333
VWidth: 3622
Flags: W
HStem: -421 53<140.137 502.541> -41 57<222.002 670.651> 74 52<178.532 388.849> 421 46<246.811 434.908> 1265 60<703.103 1197.38>
VStem: 65 50<-338.467 -134.648> 103 53<149.062 313.367> 575 62<606.076 870.923> 784 56<4.10667 61.9948> 1305 71<822.625 1167.31>
LayerCount: 2
Fore
SplineSet
784 28 m 1xfdc0
 784 55 800 62 814 62 c 0
 826 62 840 60 840 25 c 1
 814 -73 l 1
 989 -164 1005 -214 1049 -265 c 1
 1180 269 l 2
 1275 690 1305 849 1305 983 c 0
 1305 1198 1205 1265 973 1265 c 0
 576 1265 400 1037 377 975 c 1
 628 895 l 1
 634 892 637 881 637 863 c 0
 637 740 529 352 501 249 c 0
 458 113 333 74 267 74 c 0
 136 74 103 157 103 221 c 1xfbc0
 108 244 102 345 204 428 c 0
 237 454 282 467 341 467 c 0
 442 467 486 404 486 370 c 1
 524 513 575 726 575 815 c 0
 575 849 544 877 438 901 c 2
 372 916 l 2
 324 927 301 941 301 957 c 2
 301 960 l 1
 325 1059 554 1325 960 1325 c 0
 1198 1325 1376 1247 1376 1013 c 0
 1376 980 1381 985 1327 686 c 2
 1292 489 l 2
 1263 329 1139 -315 1060 -391 c 1
 1000 -308 l 2
 938 -220 871 -175 787 -131 c 1
 731 -316 483 -421 295 -421 c 0
 202 -421 65 -390 65 -267 c 0
 65 -40 286 16 426 16 c 0
 531 16 676 -13 757 -62 c 1
 784 28 l 1xfdc0
336 421 m 0
 225 421 156 322 156 244 c 0
 156 171 205 126 281 126 c 0
 419 126 453 286 453 306 c 0
 453 363 430 421 336 421 c 0
115 -260 m 0xfdc0
 115 -346 210 -368 288 -368 c 0
 467 -368 692 -265 734 -117 c 1
 685 -84 573 -41 432 -41 c 0
 282 -41 115 -93 115 -260 c 0xfdc0
EndSplineSet
EndChar

StartChar: uni0E0F.alt1
Encoding: 63260 63260 124
Width: 1337
VWidth: 3622
Flags: W
HStem: -414 55<57.2518 254.252 555.063 607.441> -68 56<100.744 322.822> 64 52<207.123 412.594> 410 47<244.904 447.083> 1260 57<719.122 1190.44>
VStem: -5 49<-343.878 -125.588> 128 55<141.378 347.784> 354 44<-263.339 -156> 394 59<-30.8843 34.9941> 602 62<652.563 852.113> 1308 55<849.408 1151.91>
LayerCount: 2
Fore
SplineSet
589 -350 m 0xfee0
 596 -350 759 -100 821 -73 c 1
 842 -73 872 -78 926 -202 c 2
 970 -299 l 2
 984 -330 999 -349 1014 -356 c 1
 1037 -345 1071 -221 1106 -80 c 0
 1124 -6 1255 589 1270 664 c 0
 1295 781 1308 881 1308 962 c 0
 1308 1141 1249 1260 963 1260 c 0
 635 1260 436 1056 405 968 c 1
 654 888 l 1
 660 885 664 873 664 852 c 0
 664 779 622 570 573 399 c 2
 527 239 l 2
 496 116 372 64 294 64 c 0
 241 64 128 84 128 212 c 0
 128 324 221 457 362 457 c 0
 419 457 485 449 520 384 c 1
 577 595 602 727 602 813 c 0
 602 831 600 842 596 844 c 0
 573 855 547 866 516 874 c 2
 426 900 l 2
 353 921 328 929 328 948 c 0
 328 1015 552 1317 963 1317 c 0
 1246 1317 1363 1236 1363 967 c 0
 1363 856 1342 697 1242 256 c 2
 1201 58 l 1
 1132 -210 l 2
 1084 -392 1047 -425 991 -425 c 0
 934 -425 848 -156 808 -156 c 0
 798 -156 783 -169 764 -196 c 2
 626 -384 l 2
 604 -414 587 -428 575 -428 c 0
 504 -428 443 -191 398 -156 c 1xff60
 389 -345 226 -414 143 -414 c 0
 90 -414 -5 -390 -5 -263 c 0
 -5 -49 180 -12 247 -12 c 0
 300 -12 358 -29 379 -69 c 1
 394 4 l 1
 394 31 418 35 428 35 c 0
 439 35 453 27 453 0 c 2
 444 -87 l 1
 523 -219 564 -350 589 -350 c 0xfee0
358 410 m 0
 272 410 183 335 183 231 c 0
 183 156 239 116 313 116 c 0
 407 116 481 224 481 296 c 0
 481 388 421 410 358 410 c 0
354 -131 m 0
 354 -109 297 -68 222 -68 c 0
 127 -68 44 -133 44 -248 c 0
 44 -337 99 -359 148 -359 c 0
 226 -359 354 -277 354 -131 c 0
EndSplineSet
EndChar

StartChar: uni0E2C.alt1
Encoding: 63261 63261 125
Width: 1659
VWidth: 3622
Flags: W
HStem: 11 86<594.001 663.1 1202.39 1275.19> 822 59<375.185 612.305> 1005 65<1241.55 1424.44> 1265 62<437.152 684.047> 1343 58<1301.52 1469.67>
VStem: 276 62<919.108 1163.77> 547 77<54.623 272.894> 713 85<903.702 1233.4> 1166 63<1085.69 1271.36> 1521 64<1215 1315.93>
LayerCount: 2
Fore
SplineSet
1585 1215 m 1
 1641 1235 1725 1330 1748 1330 c 0
 1767 1330 1776 1319 1776 1298 c 0
 1776 1239 1630 1157 1620 1152 c 2
 1576 1128 l 1
 1472 632 l 2
 1388 217 1337 11 1247 11 c 0
 1115 11 1057 327 1037 706 c 1
 891 346 679 11 589 11 c 0
 564 11 547 22 547 85 c 0
 547 151 570 271 591 378 c 2
 709 953 l 1
 663 862 565 822 478 822 c 0
 356 822 276 901 276 1015 c 0
 276 1183 416 1327 578 1327 c 0
 748 1327 798 1260 798 1127 c 0
 798 927 624 296 624 127 c 0
 624 107 628 97 635 97 c 0
 677 97 794 319 846 427 c 2
 928 600 l 2
 961 672 1015 796 1029 847 c 1
 1041 865 1056 874 1074 874 c 256
 1091 874 1101 867 1104 854 c 1
 1104 810 l 2
 1104 561 1160 87 1245 87 c 0
 1293 87 1408 564 1486 1045 c 1
 1388 1009 1372 1005 1343 1005 c 0
 1198 1005 1166 1100 1166 1166 c 0
 1166 1270 1262 1401 1406 1401 c 0
 1521 1401 1585 1342 1585 1231 c 2
 1585 1215 l 1
490 881 m 0
 617 881 713 1006 713 1121 c 0
 713 1194 684 1265 568 1265 c 0
 459 1265 338 1173 338 1024 c 0
 338 910 432 881 490 881 c 0
1353 1070 m 0
 1401 1070 1521 1135 1521 1215 c 0
 1521 1315 1444 1343 1412 1343 c 0
 1315 1343 1229 1246 1229 1166 c 0
 1229 1089 1286 1070 1353 1070 c 0
EndSplineSet
EndChar

StartChar: uni0E4F.liga
Encoding: 63616 63616 126
Width: 1630
VWidth: 3622
Flags: W
HStem: 73 76<926.303 1193.62> 143 75<407.606 659.417> 462 85<821.443 1005.32> 749 85<846.785 1025.8> 1118 79<1287.16 1518.32> 1194 68<727.135 995.502>
VStem: 261 81<285.322 538.683> 518 70<869.48 1065.98> 728 84<558.741 712.967> 962 51<1515.2 1731.01> 1038 85<606.527 715.222> 1053 69<954.552 1137.06> 1084 60<1548.59 1730.07> 1244 72<1467.03 1657.5> 1345 86<287.972 542.277> 1431 75<1656.23 1756> 1588 89<789.305 1045.45>
LayerCount: 2
Fore
SplineSet
1028 73 m 0xbbd780
 941 73 812 108 801 297 c 1
 695 192 605 143 498 143 c 0
 329 143 261 300 261 401 c 0
 261 508 329 678 582 722 c 1
 584 731 l 1
 540 799 518 863 518 923 c 0
 518 1135 729 1262 898 1262 c 0x77d780
 989 1262 1122 1221 1122 1057 c 0
 1122 1041 1120 1023 1118 1005 c 1
 1212 1115 1316 1197 1448 1197 c 0
 1592 1197 1677 1071 1677 948 c 0
 1677 804 1573 659 1366 587 c 1
 1409 530 1431 475 1431 422 c 0
 1431 231 1210 73 1028 73 c 0xbbd780
728 586 m 0
 728 644 775 834 962 834 c 0
 1092 834 1123 737 1123 683 c 0x33e780
 1123 618 1060 462 876 462 c 0
 796 462 728 509 728 586 c 0
1268 1419 m 1
 1250 1425 1244 1477 1244 1498 c 0
 1244 1597 1340 1817 1493 1864 c 1
 1502 1861 1506 1848 1506 1826 c 0
 1506 1728 1385 1419 1268 1419 c 1
945 749 m 0
 850 749 812 662 812 623 c 0
 812 577 862 547 902 547 c 0
 1016 547 1038 645 1038 664 c 0
 1038 689 1020 749 945 749 c 0
1431 1756 m 1
 1397 1756 1316 1630 1316 1557 c 0
 1316 1547 1315 1530 1320 1514 c 1
 1377 1565 1418 1644 1431 1756 c 1
1063 1415 m 1
 1023 1415 962 1446 962 1649 c 0
 962 1787 997 1866 1022 1875 c 1
 1102 1849 1144 1776 1144 1650 c 0x33cf80
 1144 1473 1066 1416 1063 1415 c 1
1042 1765 m 1
 1013 1697 1013 1661 1013 1643 c 0
 1013 1579 1033 1535 1047 1514 c 1
 1069 1547 1084 1582 1084 1643 c 0
 1084 1682 1067 1765 1042 1765 c 1
1045 903 m 0
 1045 908 1053 949 1053 995 c 0
 1053 1159 943 1194 874 1194 c 0
 746 1194 588 1086 588 932 c 0
 588 877 610 817 654 754 c 1
 663 750 667 743 667 733 c 0
 667 717 651 677 616 663 c 1
 482 637 342 558 342 412 c 0
 342 332 400 218 522 218 c 0x77d780
 627 218 719 299 785 377 c 1
 793 396 808 405 828 405 c 0
 851 405 863 400 863 384 c 0
 863 184 973 149 1047 149 c 0
 1180 149 1345 270 1345 415 c 0
 1345 470 1321 524 1272 578 c 1
 1272 581 1271 584 1271 586 c 0
 1271 650 1384 625 1499 736 c 0
 1552 786 1588 848 1588 923 c 0
 1588 1021 1513 1118 1399 1118 c 0xbbd780
 1346 1118 1237 1096 1132 916 c 0
 1117 892 1101 879 1083 879 c 0
 1073 879 1045 884 1045 903 c 0
EndSplineSet
LCarets2: 1 0 
Ligature2: "'liga' Standard Ligatures in Latin lookup 19 subtable" uni0E4F quotedbl
EndChar

StartChar: uni0E24.liga
Encoding: 63617 63617 127
Width: 2004
VWidth: 3622
Flags: W
HStem: -9 53<397.071 606.635> 336 50<470.669 656.556> 1256 58<605.905 1117.15> 1272 58<1570.07 1901.03>
VStem: 315 64<60.9569 237.466> 501 63<789.722 849.499> 683 51<116.836 309.854> 1983 72<827.57 1188.9>
LayerCount: 2
Fore
SplineSet
734 235 m 0xef
 734 145 644 -9 462 -9 c 0
 407 -9 315 42 315 147 c 0
 315 188 334 260 358 337 c 2
 398 459 l 2
 412 501 424 541 435 578 c 2
 486 755 l 2
 497 788 501 810 501 824 c 256
 501 830 500 833 499 833 c 1
 476 845 450 855 419 864 c 2
 332 888 l 2
 270 906 232 919 232 937 c 0
 232 1041 473 1314 868 1314 c 0xef
 1147 1314 1286 1248 1325 1040 c 1
 1376 1186 1525 1330 1748 1330 c 0
 1994 1330 2055 1200 2055 1037 c 0
 2054 976 2048 911 2034 842 c 2
 1967 508 l 2
 1889 160 1765 -399 1732 -536 c 2
 1695 -695 l 1
 1692 -702 1680 -722 1657 -722 c 0
 1643 -722 1636 -716 1636 -700 c 0
 1636 -698 1638 -697 1638 -692 c 1
 1726 -294 l 2
 1962 814 1983 879 1983 1014 c 0
 1983 1203 1889 1272 1749 1272 c 0xdf
 1453 1272 1347 1005 1305 663 c 0
 1285 514 1249 330 1198 110 c 2
 1012 -685 l 2
 1008 -698 993 -730 970 -730 c 0
 951 -730 946 -711 946 -688 c 1
 1080 -130 l 2
 1211 417 1265 718 1265 902 c 0
 1265 1150 1169 1256 867 1256 c 0
 509 1256 347 1051 308 960 c 1
 559 877 l 1
 562 874 564 866 564 854 c 0
 564 810 540 721 514 636 c 2
 426 336 l 1
 455 365 504 386 548 386 c 0
 650 386 734 325 734 235 c 0xef
490 44 m 0
 584 44 683 132 683 221 c 0
 683 290 627 336 552 336 c 0
 428 336 379 217 379 161 c 256
 379 103 401 44 490 44 c 0
EndSplineSet
LCarets2: 1 0 
Ligature2: "'liga' Standard Ligatures in Latin lookup 19 subtable" uni0E24 uni0E45
Ligature2: "'liga' Standard Ligatures in Latin lookup 19 subtable" uni0E24 uni0E32
EndChar

StartChar: uni0E26.liga
Encoding: 63618 63618 128
Width: 2004
VWidth: 3622
Flags: W
HStem: -2 52<159.228 367.782> 345 46<200.12 413.347> 1272 60<704.564 1176.18 1547.96 1888.03>
VStem: 81 55<73.7664 279.883> 570 61<673.909 874.051> 939 66<-689.112 976.256> 1981 57<921.032 1000.48 960.754 1181.31>
LayerCount: 2
Fore
SplineSet
320 391 m 0
 439 391 465 340 472 318 c 1
 546 587 570 779 570 826 c 0
 570 909 297 901 297 957 c 0
 297 1067 606 1332 957 1332 c 0
 1179 1332 1313 1262 1341 1079 c 1
 1386 1174 1504 1330 1748 1330 c 0
 1981 1330 2040 1154 2040 1019 c 0
 2040 1006 2039 994 2038 982 c 0
 2038 898 2022 774 1963 508 c 2
 1778 -332 l 2
 1763 -406 1748 -474 1732 -536 c 2
 1695 -695 l 1
 1692 -702 1680 -722 1657 -722 c 0
 1643 -722 1636 -716 1636 -700 c 0
 1636 -698 1638 -697 1638 -692 c 1
 1926 649 l 2
 1969 852 1981 949 1981 1024 c 0
 1981 1136 1929 1280 1720 1280 c 0
 1505 1280 1401 1125 1353 950 c 0
 1274 472 1117 -143 1005 -702 c 1
 994 -713 984 -718 975 -718 c 0
 967 -718 955 -714 939 -706 c 1
 1284 884 1284 831 1284 991 c 0
 1284 1201 1178 1272 960 1272 c 0
 592 1272 397 1046 373 975 c 1
 624 895 l 1
 629 892 631 882 631 865 c 0
 631 727 510 279 481 173 c 0
 453 44 346 -2 248 -2 c 0
 110 -2 81 88 81 145 c 0
 87 215 124 387 320 391 c 0
315 345 m 0
 220 345 136 261 136 168 c 0
 136 94 185 50 262 50 c 0
 399 50 433 211 433 230 c 0
 433 282 409 345 315 345 c 0
EndSplineSet
LCarets2: 1 0 
Ligature2: "'liga' Standard Ligatures in Latin lookup 19 subtable" uni0E26 uni0E45
Ligature2: "'liga' Standard Ligatures in Latin lookup 19 subtable" uni0E26 uni0E32
EndChar

StartChar: MALI
Encoding: 65543 -1 129
Width: 3408
VWidth: 3622
Flags: W
HStem: -486 42<2939.82 3194.05 5269.38 5562.03> -476 43<320.668 600.443 1093.24 1399.32 1706.63 1932.18 2333.44 2555.92 3299.86 3332 4677.37 4953.32> -463 81<4334.01 4396.01> -435 37<-1527.02 -1344.98 -982.152 -706.347> -315 32<367.191 575.865 645.348 757.258> -4 36<2954.66 3179.27 5918.5 6060.87 6210.35 6361.29> 4 46<1703.69 1987.95 2328.25 2612.75 4687.3 4921.11 5266.44 5553.23> 28 45<-345.068 -135.939> 50 42<-968.502 -746.599> 69 37<-1915.13 -1732.2 387.79 569.322> 111 158<3456.33 3557.03> 216 37<323.054 672.271 1149.17 1395.3> 646 92<1853.55 2146.89> 731 88<1215.04 1486.3> 1091 82<417 448.373 367.612 658.91 3003.66 3208.82 3127.67 3159> 1113 102<1620.34 1827.27> 1265 78<475.751 692.174 2885.88 3101.21> 1456 101<1620.23 1713.05 1713.05 1722.72 1723.23 1730.98 1730.98 1822.58> 1479 72<478.055 698.836 2878.71 3095.26> 1645 76<428 446.431 446.431 659.982 2916.26 3133 3133 3148> 1900 95<2044.86 2307.57> 1992 81<1367.98 1667.28>
VStem: -2041 42<-414.375 -400 -398 -368.323 -368.323 -195.5 -195.5 -69 -69 7> -1698 41<-402 39.7359> -1603 41<-368.038 80.7748> -1261 42<-349.858 -347 -347 -260 -76.2321 69 71 85.073> -1095 43<-328.941 -37.6821> -462 40<-453.305 -401.115 -401.115 -352.138 -376.627 6.75165> -80 41<-457.165 -36.7191> 120 43<-279.056 50.6673> 294 35<-245.625 -69.9685> 607 26<-256.741 -114.292> 626 43<15.4923 74.6409> 805 39<-182.394 86.7832> 978 39<-354.805 -188.881> 982 95<960.265 1230.7> 1061 45<5.92676 31.6384 15.8428 163.395> 1157 83<1581.07 1868.93> 1431 39<2.2577 144.475> 1449 35<-380.522 -160.396> 1496 96<1244.93 1429.7> 1565 73<2505.04 2708.09 2627.23 2659> 1585 44<-352.463 -70.8989> 1739 78<2385.06 2599.84> 1855 100<1240.55 1423.42> 1953 72<2376.77 2597.16> 2036 46<-335.952 -211.077 -211.077 -46.0488 -26.7929 203.18> 2119 76<2416.11 2632.48 2632.48 2648> 2209 44<-352.463 -70.9128> 2291 104<874.832 1147.46> 2453 101<1470.02 1755.04> 2662 44<-334.395 -211.077 -211.077 -46.0488 -180.985 214.206> 2835 43<-378.685 -86.3126> 3235 43<-402.266 -370 -370 -104.139> 3242 55<-53 18.2246> 3447 156<158.738 259.578> 3483 46<-483.482 -229 -229 -229 -229 23.3857> 3737 39<-504.187 370.756> 4279 42<-81.8983 28.2304> 4334 79<-442.634 -402.157> 4567 42<-365.927 -76.2184> 5153 44<-373.139 -64.9044> 5635 43<-374.215 -79.3021> 5802 47<-491.397 -331.687 -143 -58 -58 -9.12339> 6113 44<-492.677 -401.715 -401.715 -207.239> 6400 40<-481.02 -356.892 -356.892 -37.4922>
LayerCount: 2
Fore
SplineSet
-2054 101 m 256x190093fe4413f87fc0
 -2021 101 -2002 31 -1999 18 c 1
 -1999 -69 l 1
 -1974 86 -1908 106 -1831 106 c 0
 -1718 106 -1657 55 -1657 -140 c 2
 -1657 -402 l 1
 -1662 -410 -1669 -414 -1680 -414 c 0
 -1692 -414 -1698 -410 -1698 -402 c 2
 -1700 -136 l 2
 -1706 -21 -1708 69 -1834 69 c 0x084093fe4413f87fc0
 -1955 69 -1985 -136 -1985 -336 c 0
 -1985 -364 -1985 -386 -1986 -400 c 0
 -1986 -413 -1994 -419 -2009 -419 c 0
 -2024 -419 -2031 -412 -2031 -398 c 2
 -2041 7 l 1
 -2048 28 l 1
 -2057 45 -2078 70 -2078 81 c 256
 -2078 89 -2068 101 -2054 101 c 256x190093fe4413f87fc0
-1205 -430 m 256
 -1242 -430 -1259 -364 -1261 -347 c 2
 -1261 -260 l 1
 -1285 -412 -1351 -435 -1431 -435 c 0
 -1563 -435 -1603 -351 -1603 -189 c 2
 -1603 73 l 1
 -1602 80 -1594 83 -1580 83 c 0
 -1568 83 -1562 80 -1562 73 c 2
 -1560 -193 l 2
 -1554 -305 -1551 -398 -1426 -398 c 0x190093fe4413f87fc0
 -1257 -398 -1277 6 -1274 71 c 0
 -1274 84 -1267 90 -1252 90 c 0
 -1237 90 -1229 83 -1229 69 c 2
 -1219 -336 l 2
 -1219 -342 -1218 -347 -1216 -350 c 2
 -1204 -372 l 2
 -1188 -397 -1182 -402 -1182 -410 c 0
 -1182 -423 -1190 -430 -1205 -430 c 256
-837 92 m 0x088093fe4413f87fc0
 -756 92 -619 41 -619 -60 c 0
 -619 -69 -626 -73 -640 -73 c 0
 -652 -73 -666 -68 -669 -53 c 1
 -709 36 -791 50 -837 50 c 256
 -982 50 -1052 -68 -1052 -186 c 256
 -1052 -280 -1011 -394 -844 -394 c 0
 -630 -394 -669 -226 -624 -226 c 0
 -611 -226 -605 -234 -605 -249 c 0
 -605 -302 -668 -439 -844 -439 c 0
 -1010 -439 -1095 -329 -1095 -186 c 256
 -1095 -64 -1024 92 -837 92 c 0x088093fe4413f87fc0
-421 384 m 0
 -407 384 -394 375 -394 361 c 2
 -419 -65 l 1
 -412 -23 -363 73 -235 73 c 0
 -45 68 -39 -82 -39 -446 c 0
 -39 -457 -45 -462 -57 -462 c 0
 -72 -462 -80 -454 -80 -439 c 0
 -80 -109 -95 28 -235 28 c 0x090093fe4413f87fc0
 -407 28 -422 -181 -422 -353 c 0
 -422 -387 -421 -420 -421 -449 c 0
 -421 -456 -425 -460 -433 -460 c 0
 -445 -460 -459 -452 -462 -448 c 1
 -465 -387 -467 -323 -467 -256 c 0
 -467 -217 -464 384 -421 384 c 0
1084 0 m 0
 1066 0 1061 65 1061 65 c 1
 1061 174 1166 248 1270 248 c 0
 1376 248 1470 168 1470 67 c 0x080093fe4e13f87fc0
 1470 8 1443 -67 1355 -90 c 1
 1458 -114 1484 -211 1484 -279 c 256
 1484 -354 1427 -467 1261 -467 c 0
 1053 -467 978 -365 978 -212 c 0
 978 -193 985 -184 998 -184 c 256
 1011 -184 1017 -190 1017 -203 c 0
 1017 -385 1136 -430 1252 -430 c 0
 1404 -430 1449 -343 1449 -285 c 0x080093fe6513f87fc0
 1449 -146 1350 -111 1258 -111 c 0
 1245 -111 1238 -105 1238 -92 c 0
 1238 -65 1329 -84 1390 -24 c 0
 1417 4 1431 38 1431 78 c 0
 1431 115 1407 209 1272 209 c 0
 1162 209 1102 143 1102 42 c 0
 1102 40 1104 29 1106 21 c 1x080093fe4e13f87fc0
 1103 7 1096 0 1084 0 c 0
1841 -433 m 0x4a0093fe4433f87fc0
 1940 -433 2038 -367 2038 -274 c 0
 2038 -223 2039 -223 2039 -147 c 0
 2039 -26 1912 4 1845 4 c 0
 1753 4 1629 -41 1629 -219 c 0
 1629 -369 1750 -433 1841 -433 c 0x4a0093fe4433f87fc0
1585 -219 m 0
 1585 -40 1708 50 1834 50 c 256
 1952 50 1998 18 2039 -28 c 1
 2036 -2 2036 8 2036 17 c 2
 2036 18 l 2
 2036 75 2040 170 2048 275 c 2
 2061 439 l 2
 2061 450 2068 456 2082 456 c 0
 2093 456 2100 451 2103 440 c 1
 2083 203 2082 82 2082 -200 c 0
 2082 -331 2091 -385 2112 -419 c 1
 2130 -435 l 1x1a0093fe4433f87fc0
 2130 -441 2131 -445 2133 -448 c 1
 2133 -458 2126 -463 2112 -463 c 0x280093fe4433f87fc0
 2101 -463 2092 -458 2084 -448 c 2
 2069 -432 l 1
 2062 -422 2052 -410 2048 -380 c 1
 1949 -472 1856 -476 1831 -476 c 0
 1755 -476 1585 -425 1585 -219 c 0
2466 -433 m 0x4a0093fe4413f87fc0
 2561 -433 2662 -369 2662 -274 c 0
 2662 -223 2664 -223 2664 -147 c 0
 2664 -26 2535 4 2469 4 c 0
 2379 4 2253 -41 2253 -219 c 0
 2253 -369 2375 -433 2466 -433 c 0x4a0093fe4413f87fc0
2209 -219 m 0
 2209 -65 2309 50 2459 50 c 256
 2578 50 2623 17 2664 -28 c 1
 2662 -19 2660 -5 2660 18 c 0
 2660 75 2664 170 2672 275 c 2
 2685 439 l 2
 2685 450 2692 456 2706 456 c 0
 2717 456 2724 451 2727 440 c 1
 2708 203 2706 81 2706 -200 c 0
 2706 -328 2715 -384 2736 -419 c 1
 2754 -435 l 1x1a0093fe4413f87fc0
 2754 -441 2755 -445 2758 -448 c 1
 2758 -458 2751 -463 2736 -463 c 0x280093fe4413f87fc0
 2725 -463 2716 -458 2708 -448 c 2
 2694 -432 l 2
 2678 -412 2676 -403 2673 -380 c 1
 2573 -471 2481 -476 2455 -476 c 0
 2379 -476 2209 -425 2209 -219 c 0
3062 -444 m 0x8c0093fe4413fc7fc0
 3193 -444 3235 -391 3235 -219 c 2
 3232 -147 l 2
 3214 -43 3126 -4 3069 -4 c 0
 2916 -4 2878 -174 2878 -219 c 0
 2878 -323 2915 -444 3062 -444 c 0x8c0093fe4413fc7fc0
3348 -458 m 0
 3348 -464 3345 -478 3324 -478 c 2
 3311 -478 l 2
 3262 -478 3243 -457 3239 -412 c 1
 3205 -464 3147 -486 3065 -486 c 0
 2881 -486 2835 -343 2835 -218 c 0
 2835 -135 2891 32 3067 32 c 0
 3152 32 3198 -5 3237 -53 c 1
 3242 7 l 2
 3244 18 3256 25 3269 25 c 0
 3280 25 3297 21 3297 11 c 1x8c0093fe4413fa7fc0
 3279 -38 3278 -112 3278 -260 c 2
 3278 -370 l 2
 3278 -434 3305 -439 3332 -439 c 1
 3343 -445 3348 -451 3348 -458 c 0
3527 269 m 0x082093fe4413f97fc0
 3555 269 3603 246 3603 189 c 0
 3603 142 3566 111 3525 111 c 0
 3470 111 3447 163 3447 187 c 0
 3447 236 3490 269 3527 269 c 0x082093fe4413f97fc0
3529 -465 m 1x090093fe4413f8ffc0
 3525 -482 3517 -490 3506 -490 c 0
 3493 -490 3485 -482 3483 -465 c 2
 3493 7 l 2
 3493 21 3500 28 3515 28 c 0
 3530 28 3538 21 3538 7 c 2
 3529 -465 l 1x090093fe4413f8ffc0
3782 -486 m 1x880093fe4413f87fc0
 3778 -501 3770 -508 3757 -508 c 256
 3744 -508 3737 -501 3737 -486 c 2
 3732 354 l 2
 3733 369 3742 377 3757 377 c 0
 3770 377 3776 369 3776 354 c 2
 3782 -486 l 1x880093fe4413f87fc0
4022 -750 m 0
 4022 -737 4121 -514 4121 -465 c 0
 4121 -432 3994 -423 3895 11 c 1
 3896 22 3903 28 3914 28 c 0x090093fe4413f87fc0
 3954 28 3948 -128 4048 -313 c 0
 4086 -383 4113 -405 4135 -416 c 1
 4170 -408 4222 -208 4279 12 c 1
 4285 25 4293 32 4303 32 c 0x0c0093fe4413f87fc0
 4315 32 4321 26 4321 14 c 1
 4301 -88 l 2
 4275 -223 4191 -455 4072 -743 c 1
 4063 -757 4052 -764 4040 -764 c 256
 4028 -764 4022 -759 4022 -750 c 0
4374 -382 m 0x280093fe4413f87fc0
 4396 -382 4413 -400 4413 -423 c 0
 4413 -443 4395 -463 4374 -463 c 256
 4350 -463 4334 -437 4334 -423 c 0
 4334 -407 4350 -382 4374 -382 c 0x280093fe4413f87fc0
4825 55 m 0
 4906 55 5043 -1 5043 -97 c 0
 5043 -106 5036 -110 5022 -110 c 0
 5010 -110 4996 -105 4993 -90 c 1
 4953 -2 4871 11 4825 11 c 256
 4652 11 4609 -141 4609 -225 c 0
 4609 -315 4651 -433 4818 -433 c 0
 4979 -433 5006 -305 5013 -288 c 1
 5016 -272 5025 -264 5038 -264 c 256
 5051 -264 5057 -272 5057 -288 c 0
 5057 -335 5001 -476 4818 -476 c 0x480093fe4413f87fc0
 4617 -476 4567 -329 4567 -225 c 256
 4567 -129 4619 55 4825 55 c 0
5418 50 m 0x8a0093fe4413f87fc0
 5536 50 5678 -28 5678 -228 c 0
 5678 -434 5540 -486 5411 -486 c 0
 5310 -486 5153 -437 5153 -239 c 0
 5153 -102 5206 50 5418 50 c 0x8a0093fe4413f87fc0
5411 -440 m 0
 5513 -440 5635 -401 5635 -244 c 0
 5635 -49 5511 11 5418 11 c 0
 5241 11 5197 -109 5197 -239 c 0
 5197 -400 5319 -440 5411 -440 c 0
478 -283 m 0
 565 -283 591 -252 607 -113 c 2
 607 -58 l 2x080093ff4413f87fc0
 602 13 541 64 483 64 c 0
 339 64 330 -110 329 -111 c 1
 329 -197 359 -283 478 -283 c 0
683 -288 m 0
 781 -288 805 -114 805 -64 c 0
 805 103 669 216 495 216 c 0
 319 216 163 84 163 -113 c 0
 163 -306 308 -440 515 -440 c 0
 530 -440 621 -436 658 -417 c 1
 667 -421 672 -427 672 -435 c 0x189093ff4413f87fc0
 672 -468 558 -476 515 -476 c 0
 288 -476 120 -330 120 -111 c 0
 120 81 275 253 499 253 c 0
 683 253 844 126 844 -64 c 0
 844 -200 782 -324 690 -324 c 0
 627 -324 613 -299 600 -264 c 1
 592 -277 565 -315 485 -315 c 0
 332 -315 294 -215 294 -117 c 0
 294 -66 325 92 476 92 c 0
 549 92 588 58 619 16 c 1
 626 64 l 1
 629 72 636 76 646 76 c 0
 661 76 669 71 669 62 c 1x489093fec413f87fc0
 653 14 633 -136 633 -230 c 0
 633 -282 668 -288 683 -288 c 0
5793 25 m 0
 5804 25 5826 20 5849 -58 c 1
 5849 -143 l 1
 5878 12 5917 35 5993 35 c 0
 6106 35 6129 -99 6134 -152 c 1
 6162 22 6216 39 6270 39 c 0
 6431 39 6440 -126 6440 -301 c 2
 6440 -373 l 2
 6440 -476 6432 -499 6419 -499 c 0
 6396 -499 6400 -478 6400 -442 c 0
 6400 -374 6403 -356 6403 -271 c 0
 6403 -55 6351 5 6272 5 c 0
 6180 5 6157 -217 6157 -423 c 2
 6157 -483 l 1
 6154 -492 6146 -497 6134 -497 c 0
 6112 -497 6113 -486 6113 -453 c 0
 6113 -422 6115 -411 6115 -349 c 0
 6115 -261 6112 -0 5987 0 c 0
 5850 0 5858 -398 5851 -478 c 0
 5851 -489 5844 -495 5830 -495 c 0
 5815 -495 5807 -489 5807 -478 c 2
 5802 -62 l 2
 5802 -37 5770 -23 5770 5 c 0
 5770 18 5778 25 5793 25 c 0
1992 646 m 0x08089bfe5413f87fc0
 1855 646 1717 717 1664 914 c 1
 1598 834 1499 731 1341 731 c 0
 1154 731 982 914 982 1111 c 0
 982 1307 1132 1398 1293 1424 c 1
 1293 1434 l 1
 1220 1518 1157 1615 1157 1735 c 0
 1157 1913 1305 2073 1528 2073 c 0x080497fe5413f87fc0
 1729 2073 1845 1948 1863 1763 c 1
 1895 1814 2002 1995 2211 1995 c 0
 2383 1995 2554 1819 2554 1626 c 0
 2554 1481 2471 1336 2266 1263 c 1
 2333 1194 2395 1102 2395 994 c 0
 2395 800 2187 646 1992 646 c 0x08089bfe5413f87fc0
1710 1113 m 0x0801d3fe449bf87fc0
 1592 1113 1496 1191 1496 1307 c 0
 1496 1452 1574 1557 1691 1557 c 2
 1707 1557 l 2
 1712 1557 1717 1556 1723 1555 c 1
 1728 1556 1731 1557 1734 1557 c 2
 1751 1557 l 2
 1870 1557 1955 1434 1955 1337 c 0
 1955 1258 1906 1113 1710 1113 c 0x0801d3fe449bf87fc0
2008 2243 m 1
 2001 2246 1953 2281 1953 2400 c 0x080093fe4417f87fc0
 1953 2638 2083 2750 2163 2779 c 1
 2184 2770 2195 2732 2195 2667 c 0
 2195 2519 2127 2243 2008 2243 c 1
1703 1456 m 0x0801d3fe449bf87fc0
 1639 1456 1592 1398 1592 1325 c 0
 1592 1265 1654 1215 1718 1215 c 0
 1823 1215 1855 1280 1855 1337 c 256
 1855 1385 1802 1456 1739 1456 c 0
 1733 1456 1728 1454 1723 1454 c 0
 1715 1454 1713 1456 1703 1456 c 0x0801d3fe449bf87fc0
2117 2648 m 1
 2076 2648 2025 2504 2025 2443 c 0x080093fe4417f87fc0
 2025 2407 2035 2381 2047 2358 c 1
 2104 2429 2119 2504 2119 2588 c 2
 2119 2617 l 2
 2119 2627 2118 2637 2117 2648 c 1
1762 2239 m 1
 1605 2239 1565 2607 1565 2674 c 0x080093fe4453f87fc0
 1565 2743 1576 2782 1597 2791 c 1
 1628 2780 1817 2712 1817 2398 c 0
 1817 2326 1782 2247 1762 2239 c 1
1647 2659 m 1
 1644 2639 1638 2605 1638 2575 c 0
 1638 2477 1673 2407 1719 2358 c 1
 1735 2409 l 2
 1737 2419 1739 2429 1739 2443 c 0
 1739 2554 1665 2659 1647 2659 c 1
1852 1613 m 0
 1814 1613 1802 1632 1802 1645 c 0
 1791 1858 1690 1992 1521 1992 c 256
 1389 1992 1240 1892 1240 1728 c 0
 1240 1649 1284 1561 1371 1463 c 1
 1385 1456 1392 1444 1392 1427 c 0
 1392 1384 1364 1363 1348 1355 c 1
 1101 1302 1077 1156 1077 1106 c 0
 1077 968 1205 819 1348 819 c 0x080497fe5413f87fc0
 1403 819 1514 838 1624 1010 c 1
 1629 1033 1645 1044 1673 1044 c 0
 1700 1044 1714 1036 1714 1019 c 1
 1773 761 1932 738 1997 738 c 0
 2142 738 2291 863 2291 1010 c 0
 2291 1093 2246 1173 2156 1252 c 1
 2153 1261 2151 1268 2151 1275 c 256
 2151 1293 2161 1306 2179 1312 c 0
 2374 1385 2453 1490 2453 1608 c 0
 2453 1769 2308 1900 2170 1900 c 0x08089bfe5413f87fc0
 2062 1900 1966 1831 1901 1657 c 0
 1891 1628 1875 1613 1852 1613 c 0
833 1534 m 1
 830 1527 795 1479 676 1479 c 0x0800b3fe4413f87fc0
 438 1479 320 1608 297 1689 c 1
 306 1710 343 1721 409 1721 c 0
 578 1721 833 1646 833 1534 c 1
428 1643 m 1
 428 1602 571 1551 633 1551 c 0x0800b3ff4413f87fc0
 650 1551 671 1551 718 1572 c 1
 649 1629 573 1645 486 1645 c 2
 465 1645 l 2
 451 1645 439 1644 428 1643 c 1
837 1288 m 1
 837 1155 545 1091 400 1091 c 0x080293fe4413f87fc0
 331 1091 293 1102 285 1123 c 1
 296 1156 363 1343 677 1343 c 0
 749 1343 829 1307 837 1288 c 1
417 1173 m 1
 466 1165 483 1164 499 1164 c 0
 597 1164 669 1199 718 1245 c 1
 667 1261 l 2
 657 1263 647 1265 633 1265 c 0x080293ff4413f87fc0
 522 1265 417 1191 417 1173 c 1
2743 1534 m 1
 2749 1522 2789 1479 2901 1479 c 0x0800b3fe4413f87fc0
 3161 1479 3260 1629 3279 1689 c 1
 3270 1710 3233 1721 3168 1721 c 0
 3019 1721 2743 1654 2743 1534 c 1
3148 1643 m 1
 3148 1605 3014 1551 2943 1551 c 0
 2926 1551 2905 1551 2858 1572 c 1
 2929 1629 3003 1645 3088 1645 c 2
 3118 1645 l 2
 3128 1645 3138 1644 3148 1643 c 1
2740 1288 m 1
 2740 1130 3106 1091 3175 1091 c 0x080293fe4413f87fc0
 3244 1091 3283 1102 3292 1123 c 1
 3281 1153 3213 1343 2899 1343 c 0
 2826 1343 2748 1308 2740 1288 c 1
3159 1173 m 1
 3140 1170 3105 1164 3076 1164 c 0
 2977 1164 2907 1199 2858 1245 c 1
 2910 1261 l 2
 2920 1263 2930 1265 2943 1265 c 0
 3059 1265 3159 1191 3159 1173 c 1
EndSplineSet
LCarets2: 12 0 0 0 0 0 0 0 0 0 0 0 0 
Ligature2: "'liga' Standard Ligatures in Latin lookup 19 subtable" M A L I D e s i g n parenleft c parenright
EndChar

StartChar: exclam
Encoding: 33 33 130
Width: 560
VWidth: 3622
Flags: MW
HStem: 18 196<225.451 369.784>
VStem: 199 199<45.875 186.077> 310 79<349.156 442.104>
LayerCount: 2
Fore
SplineSet
592 1496 m 0
 627 1496 668 1473 668 1429 c 0
 668 1425 668 1421 667 1417 c 2
 389 352 l 1
 382 338 368 320 336 320 c 0
 319 320 310 331 310 352 c 1
 485 1417 l 2
 500 1482 560 1496 592 1496 c 0
398 135 m 0
 398 79 346 18 283 18 c 0
 216 18 199 66 199 97 c 0
 199 152 243 214 324 214 c 0
 383 214 398 174 398 135 c 0
EndSplineSet
EndChar

StartChar: quotedbl
Encoding: 34 34 131
Width: 785
VWidth: 3622
Flags: W
HStem: 1256 486
VStem: 472 463<1286 1707 1159.8 1316.88> 757 65<1278.94 1372.72>
LayerCount: 2
Fore
SplineSet
605 1742 m 0xc0
 619 1742 648 1735 648 1709 c 0
 648 1706 648 1703 647 1700 c 2
 538 1286 l 1
 528 1266 512 1256 495 1256 c 0
 480 1256 472 1266 472 1286 c 1
 541 1700 l 2
 547 1731 586 1742 605 1742 c 0xc0
892 1742 m 0
 905 1742 935 1735 935 1707 c 0xc0
 935 1705 934 1702 934 1700 c 1
 822 1286 l 2
 817 1274 806 1256 782 1256 c 0
 766 1256 758 1266 757 1286 c 1xa0
 828 1700 l 2
 833 1733 877 1742 892 1742 c 0
EndSplineSet
EndChar

StartChar: numbersign
Encoding: 35 35 132
Width: 1303
VWidth: 3622
Flags: MW
HStem: 573 80<366.362 532 639 895 1003 1191.72> 941 81<525.061 663 768 1040 1143 1297.89>
LayerCount: 2
Fore
SplineSet
923 656 m 1
 1040 941 l 1
 739 941 l 1
 639 653 l 1
 923 656 l 1
366 604 m 0
 366 622 386 653 417 653 c 2
 559 653 l 1
 663 946 l 1
 555 946 l 1
 535 950 525 961 525 981 c 0
 525 1002 534 1029 570 1029 c 2
 692 1029 l 1
 789 1293 l 2
 800 1323 817 1338 839 1338 c 0
 853 1338 869 1333 869 1314 c 0
 869 1307 867 1299 863 1289 c 2
 768 1026 l 1
 1065 1026 l 1
 1176 1314 l 2
 1182 1327 1194 1346 1221 1346 c 0
 1238 1346 1261 1336 1261 1317 c 0
 1261 1313 1260 1308 1258 1304 c 2
 1143 1022 l 1
 1266 1022 l 1
 1287 1018 1298 1006 1298 989 c 0
 1298 970 1289 941 1251 941 c 2
 1116 941 l 1
 1003 656 l 1
 1164 656 l 2
 1187 656 1192 635 1192 622 c 0
 1192 604 1177 573 1146 573 c 2
 975 573 l 1
 874 294 l 1
 864 278 850 266 827 266 c 0
 809 266 796 277 796 292 c 0
 796 297 797 302 799 308 c 2
 895 573 l 1
 608 573 l 1
 511 294 l 2
 504 275 486 262 463 262 c 0
 443 262 427 273 427 287 c 0
 427 292 429 298 433 304 c 1
 532 573 l 1
 400 573 l 2
 373 573 366 591 366 604 c 0
EndSplineSet
EndChar

StartChar: dollar
Encoding: 36 36 133
Width: 1383
VWidth: 3622
Flags: MW
HStem: 73 65<681 695> 754 68<694.578 826 925 1010.62> 1466 66<802.414 978 1077 1161.56>
VStem: 291 66<269.162 442.574> 487 73<936.023 1239.84> 1127 68<328.428 651.057> 1255 77<1151 1165.24 1165.24 1182.85 1174.05 1356.45>
LayerCount: 2
Fore
SplineSet
826 754 m 1
 621 774 487 881 487 1071 c 0
 487 1302 686 1520 992 1532 c 1
 1024 1687 l 2
 1031 1721 1059 1735 1078 1735 c 0
 1090 1735 1113 1728 1113 1701 c 0
 1113 1697 1112 1692 1111 1687 c 2
 1077 1525 l 1
 1225 1506 1332 1413 1332 1245 c 0
 1332 1216 1329 1184 1323 1151 c 1
 1308 1119 1284 1109 1274 1109 c 0
 1269 1109 1255 1113 1255 1130 c 0
 1255 1136 1260 1155 1260 1194 c 0
 1260 1332 1189 1435 1063 1459 c 1
 925 812 l 1
 977 801 1195 756 1195 534 c 0
 1195 283 1030 93 768 73 c 1
 732 -94 l 2
 725 -129 699 -142 678 -142 c 0
 666 -142 644 -136 644 -110 c 0
 644 -105 645 -100 646 -94 c 2
 681 73 l 1
 476 80 291 170 291 396 c 0
 291 445 302 451 322 451 c 0
 357 451 357 431 357 421 c 0
 357 248 478 148 695 138 c 1
 826 754 l 1
978 1466 m 1
 693 1448 560 1233 560 1078 c 0
 560 976 599 860 840 822 c 1
 978 1466 l 1
782 138 m 1
 901 147 1127 212 1127 510 c 0
 1127 650 1044 714 911 743 c 1
 782 138 l 1
EndSplineSet
EndChar

StartChar: percent
Encoding: 37 37 134
Width: 1742
VWidth: 3622
Flags: W
HStem: 104 76<1151.08 1386.26> 543 80<1205.19 1446.89> 946 76<641.282 879.175> 1383 80<696.23 935.759>
VStem: 521 83<1058.97 1294.28> 969 70<1114.6 1349.04> 1031 82<217.637 453.822> 1480 68<272.961 509.128>
LayerCount: 2
Fore
SplineSet
1509 1584 m 0xf9
 1525 1584 1542 1574 1542 1554 c 0
 1542 1544 1537 1530 1523 1514 c 1
 603 28 l 1
 580 6 559 -5 541 -5 c 0
 522 -5 512 3 512 16 c 0
 512 25 516 37 525 51 c 2
 1459 1555 l 2
 1473 1573 1490 1584 1509 1584 c 0xf9
1039 1259 m 0xfd
 1039 1097 901 946 736 946 c 0
 593 946 521 1043 521 1150 c 0
 521 1307 667 1463 845 1463 c 0
 1000 1463 1039 1344 1039 1259 c 0xfd
755 1022 m 0
 883 1022 969 1144 969 1234 c 0
 969 1287 947 1383 833 1383 c 0
 693 1383 604 1276 604 1169 c 0
 604 1112 633 1022 755 1022 c 0
1548 419 m 0
 1548 259 1418 104 1245 104 c 0
 1106 104 1031 201 1031 311 c 0xfb
 1031 467 1175 623 1355 623 c 0
 1509 623 1548 504 1548 419 c 0
1265 180 m 0
 1388 180 1480 298 1480 392 c 0
 1480 480 1436 543 1343 543 c 0
 1201 543 1113 434 1113 327 c 0
 1113 271 1141 180 1265 180 c 0
EndSplineSet
EndChar

StartChar: ampersand
Encoding: 38 38 135
Width: 1466
VWidth: 3622
Flags: W
HStem: 23 84<473.106 847.705> 796 99<750 871.401> 1361 83<676.669 960.615>
VStem: 271 99<210.775 546.29> 456 91<965.414 1231.09> 658 92<483.592 764> 1019 88<1040.63 1304.6> 1228 90<428.554 719.525 685.969 753.009>
LayerCount: 2
Fore
SplineSet
370 362 m 0
 370 232 446 107 639 107 c 0
 753 107 888 152 991 235 c 1
 923 281 735 419 658 764 c 1
 513 749 370 543 370 362 c 0
829 1361 m 0
 671 1361 547 1231 547 1092 c 0
 547 987 618 904 736 895 c 0
 880 901 1019 1030 1019 1185 c 0
 1019 1326 904 1361 829 1361 c 0
271 344 m 0
 271 559 420 788 637 840 c 1
 505 868 456 975 456 1068 c 0
 456 1272 629 1444 849 1444 c 0
 1061 1444 1107 1290 1107 1188 c 0
 1107 985 932 809 750 796 c 1
 803 570 897 415 1070 290 c 1
 1171 369 1228 466 1228 619 c 0
 1228 680 1219 711 1219 721 c 0
 1219 740 1240 754 1263 754 c 0
 1296 754 1318 730 1318 638 c 0
 1318 530 1275 365 1143 228 c 1
 1188 187 l 2
 1213 166 1236 154 1267 138 c 2
 1332 108 l 1
 1332 97 l 2
 1332 58 1315 43 1290 43 c 0
 1220 43 1087 155 1074 175 c 1
 926 73 767 23 630 23 c 0
 426 23 271 133 271 344 c 0
EndSplineSet
EndChar

StartChar: quotesingle
Encoding: 39 39 136
Width: 417
VWidth: 3622
Flags: W
HStem: 997 489
VStem: 391 65<1001.82 1119.4>
LayerCount: 2
Fore
SplineSet
456 1029 m 2
 448 1009 430 997 416 997 c 0
 402 997 391 1007 391 1029 c 1
 462 1442 l 2
 466 1473 507 1486 526 1486 c 0
 546 1486 567 1474 567 1450 c 0
 567 1448 567 1445 566 1442 c 2
 456 1029 l 2
EndSplineSet
EndChar

StartChar: parenleft
Encoding: 40 40 137
Width: 864
VWidth: 3622
Flags: W
VStem: 242 100<108.672 694.407> 242 677
LayerCount: 2
Fore
SplineSet
881 1559 m 0x80
 896 1559 919 1543 919 1512 c 0x40
 919 1502 917 1465 883 1445 c 1
 380 1027 342 544 342 390 c 0
 342 143 440 -48 536 -173 c 0
 546 -187 551 -201 551 -215 c 0
 551 -253 520 -276 492 -276 c 0
 479 -276 467 -271 455 -260 c 1
 328 -92 242 112 242 360 c 0
 242 537 284 1083 854 1551 c 1
 864 1557 873 1559 881 1559 c 0x80
EndSplineSet
EndChar

StartChar: parenright
Encoding: 41 41 138
Width: 864
VWidth: 3622
Flags: W
VStem: 191 674 764 101<573.993 1160.97>
LayerCount: 2
Fore
SplineSet
230 -276 m 0x40
 208 -276 191 -262 191 -238 c 0x80
 191 -212 209 -191 232 -173 c 0
 725 248 764 702 764 868 c 0
 764 1119 675 1311 571 1445 c 1
 560 1453 555 1466 555 1479 c 0
 555 1515 588 1559 621 1559 c 0
 629 1559 637 1557 644 1551 c 1
 804 1346 865 1119 865 899 c 0
 865 710 823 203 272 -260 c 0
 256 -271 242 -276 230 -276 c 0x40
EndSplineSet
EndChar

StartChar: asterisk
Encoding: 42 42 139
Width: 1061
VWidth: 3622
Flags: MW
LayerCount: 2
Fore
SplineSet
1142 1248 m 0
 1158 1248 1167 1237 1167 1220 c 0
 1167 1202 1155 1188 1130 1178 c 2
 840 1029 l 1
 1081 874 l 1
 1087 867 1089 860 1089 853 c 0
 1089 834 1067 805 1046 805 c 0
 1039 805 1033 807 1026 812 c 2
 805 960 l 1
 748 692 l 2
 740 665 720 656 702 656 c 0
 685 656 667 663 667 680 c 0
 667 684 668 688 669 692 c 2
 723 968 l 1
 451 826 l 2
 444 823 437 821 432 821 c 0
 413 821 408 841 408 854 c 0
 408 868 414 879 426 888 c 1
 692 1029 l 1
 455 1189 l 2
 445 1197 439 1205 439 1214 c 0
 439 1230 461 1257 484 1257 c 0
 490 1257 497 1255 504 1251 c 2
 748 1090 l 1
 810 1369 801 1435 855 1435 c 0
 878 1435 891 1423 891 1402 c 0
 891 1398 891 1394 890 1390 c 2
 830 1098 l 1
 1106 1238 l 2
 1121 1244 1133 1248 1142 1248 c 0
EndSplineSet
EndChar

StartChar: plus
Encoding: 43 43 140
Width: 1123
VWidth: 3622
Flags: MW
HStem: 702 76<354.185 524.5 524.5 538.5 538.5 674 766 819.316 819.316 978.133>
VStem: 674 81<668.632 702 778 845.277>
LayerCount: 2
Fore
SplineSet
354 740 m 0
 354 756 361 789 391 789 c 2
 686 778 l 1
 689 844 740 1038 746 1061 c 1
 755 1080 772 1090 797 1090 c 0
 819 1090 831 1082 831 1067 c 0
 831 1065 830 1063 830 1061 c 1
 799 957 l 2
 775 869 766 814 766 778 c 1
 908 778 l 2
 957 778 1034 796 1048 796 c 0
 1062 796 1071 790 1071 767 c 0
 1071 719 1034 707 874 707 c 0
 827 707 791 709 755 709 c 1
 738 626 731 598 724 570 c 2
 683 421 l 2
 679 398 667 387 647 387 c 0
 631 387 614 393 614 417 c 0
 614 421 615 426 616 432 c 2
 674 702 l 1
 375 713 l 1
 361 716 354 724 354 740 c 0
EndSplineSet
EndChar

StartChar: comma
Encoding: 44 44 141
Width: 622
VWidth: 3622
Flags: W
HStem: -191 53<88.7058 110.523 99.6144 308.624> 28 58<317.093 423.125> 238 54<350.591 462.033>
VStem: 54 476 252 58<99.0786 220.959> 467 63<65.1643 199.026>
LayerCount: 2
Fore
SplineSet
144 -191 m 0xec
 99 -191 54 -178 54 -159 c 0xf0
 54 -152 59 -138 78 -138 c 1
 100 -142 122 -143 143 -143 c 0
 293 -143 412 -48 449 69 c 1
 426 42 390 28 359 28 c 0
 329 28 252 46 252 136 c 0
 252 224 333 292 407 292 c 0
 506 292 530 192 530 157 c 0
 530 62 395 -191 144 -191 c 0xec
413 238 m 0
 378 238 310 213 310 146 c 0
 310 116 321 86 365 86 c 0
 404 86 467 119 467 166 c 0xec
 467 191 452 238 413 238 c 0
EndSplineSet
EndChar

StartChar: hyphen
Encoding: 45 45 142
Width: 1050
VWidth: 3622
Flags: MW
HStem: 724 93<920.665 1007.37> 734 76<294.275 423.744 423.744 479.5 451.622 997.479>
LayerCount: 2
Fore
SplineSet
1011 789 m 0
 1011 737 975 724 642 724 c 0
 549 724 440 727 315 734 c 1
 301 737 294 745 294 760 c 0
 294 775 301 810 333 810 c 2
 626 796 l 2
 988 809 979 817 988 817 c 0
 1002 817 1011 811 1011 789 c 0
EndSplineSet
EndChar

StartChar: period
Encoding: 46 46 143
Width: 622
VWidth: 3622
Flags: W
HStem: 12 188<258.417 390.408>
VStem: 230 187<39.1484 169.778>
LayerCount: 2
Fore
SplineSet
230 81 m 0
 230 164 312 200 347 200 c 0
 361 200 417 189 417 120 c 0
 417 60 353 12 301 12 c 0
 268 12 230 26 230 81 c 0
EndSplineSet
EndChar

StartChar: slash
Encoding: 47 47 144
Width: 1068
VWidth: 3622
Flags: W
LayerCount: 2
Fore
SplineSet
1181 1794 m 0
 1199 1794 1210 1779 1210 1762 c 0
 1210 1752 1205 1739 1196 1725 c 2
 269 -11 l 1
 254 -26 231 -46 206 -46 c 0
 187 -46 182 -34 182 -23 c 0
 182 -14 186 -4 193 7 c 2
 1134 1756 l 2
 1139 1768 1153 1794 1181 1794 c 0
EndSplineSet
EndChar

StartChar: zero
Encoding: 48 48 145
Width: 1268
VWidth: 3622
Flags: W
HStem: 25 95<439.226 841.358> 1279 97<701.828 1081.5>
VStem: 191 97<272.8 747.157> 1250 93<588.137 1097.19>
LayerCount: 2
Fore
SplineSet
191 493 m 0
 191 821 446 1376 914 1376 c 256
 1021 1376 1104 1352 1165 1304 c 0
 1289 1205 1343 1056 1343 890 c 0
 1343 357 995 25 619 25 c 0
 325 25 191 218 191 493 c 0
637 120 m 0
 1127 120 1250 613 1250 879 c 0
 1250 1055 1179 1279 897 1279 c 0
 456 1279 288 735 288 475 c 0
 288 303 358 120 637 120 c 0
EndSplineSet
EndChar

StartChar: one
Encoding: 49 49 146
Width: 933
VWidth: 3622
Flags: MW
LayerCount: 2
Fore
SplineSet
605 23 m 0
 589 23 567 27 567 47 c 0
 567 50 567 52 568 55 c 2
 677 536 l 1
 822 1251 l 1
 805 1224 779 1194 746 1162 c 2
 647 1068 l 2
 608 1034 567 1001 524 968 c 1
 514 963 506 961 498 961 c 0
 485 961 459 975 459 994 c 0
 459 1055 595 1077 835 1394 c 0
 840 1403 847 1407 855 1407 c 0
 886 1407 928 1355 932 1334 c 1
 676 58 l 2
 665 26 614 23 605 23 c 0
EndSplineSet
EndChar

StartChar: two
Encoding: 50 50 147
Width: 1155
VWidth: 3622
Flags: W
HStem: 18 83<274 382.033 382.033 392.783 392.783 723.477 723.477 890.347 890.347 906.66> 1394 76<723.732 1033.18>
VStem: 1136 86<967.668 1296.55>
LayerCount: 2
Fore
SplineSet
868 1470 m 0
 1145 1470 1222 1307 1222 1164 c 0
 1222 947 1058 703 799 564 c 0
 481 395 302 204 274 90 c 1
 410 98 514 101 644 101 c 0
 696 101 750 99 803 96 c 2
 991 83 l 2
 1013 80 1015 70 1015 59 c 0
 1015 32 991 4 975 4 c 0
 927 9 815 18 654 18 c 2
 515 18 l 2
 406 18 287 16 157 11 c 0
 148 11 143 12 143 14 c 1
 184 158 338 393 757 619 c 0
 1052 780 1136 1025 1136 1145 c 0
 1136 1238 1097 1394 860 1394 c 0
 789 1394 552 1390 460 1058 c 0
 454 1044 439 1037 415 1037 c 0
 396 1037 387 1046 387 1065 c 0
 387 1166 558 1470 868 1470 c 0
EndSplineSet
EndChar

StartChar: three
Encoding: 51 51 148
Width: 1199
VWidth: 3622
Flags: W
HStem: 0 73<431.483 888.077> 709 69<805 989.99> 1351 76<777.237 1142.55>
VStem: 186 82<222.436 456.979> 482 77<975 1141.91> 1124 74<281.644 606.686> 1238 74<984.263 1263.4>
LayerCount: 2
Fore
SplineSet
504 934 m 0
 491 934 482 941 482 982 c 0
 482 1245 737 1427 983 1427 c 0
 1171 1427 1312 1311 1312 1137 c 0
 1312 1054 1279 972 1218 886 c 0
 1174 821 1104 777 1010 754 c 1
 1067 740 1198 699 1198 478 c 0
 1198 212 977 0 664 0 c 0
 412 0 186 70 186 351 c 0
 186 398 192 450 205 508 c 0
 212 545 228 564 253 564 c 0
 275 564 286 555 286 536 c 0
 286 521 268 461 268 389 c 0
 268 263 330 73 660 73 c 0
 902 73 1124 201 1124 464 c 0
 1124 660 952 709 807 709 c 0
 785 709 774 721 774 745 c 0
 774 763 784 774 805 778 c 0
 1201 823 1238 1066 1238 1138 c 0
 1238 1234 1169 1351 971 1351 c 256
 745 1351 559 1189 559 984 c 0
 559 975 l 1
 547 943 515 934 504 934 c 0
EndSplineSet
EndChar

StartChar: four
Encoding: 52 52 149
Width: 1155
VWidth: 3622
Flags: W
HStem: 11 21G<794 816.5> 461 75<369.243 784.163 763.454 804.872 804.872 877>
VStem: 150 99<539.424 626.918>
LayerCount: 2
Fore
SplineSet
965 1461 m 0
 987 1461 1000 1440 1000 1423 c 0
 1000 1393 937 1369 650 1058 c 2
 428 812 l 2
 358 733 249 597 249 586 c 0
 249 546 587 536 731 536 c 0
 807 536 862 538 897 543 c 1
 1033 1075 l 2
 1039 1100 1052 1113 1073 1113 c 0
 1091 1113 1109 1107 1109 1083 c 0
 1109 1078 1108 1073 1107 1068 c 2
 980 564 l 1
 1148 584 1216 598 1228 598 c 1
 1233 599 1237 600 1241 600 c 0
 1266 600 1272 576 1272 565 c 0
 1272 555 1267 545 1258 536 c 1
 1254 529 1247 532 957 485 c 1
 849 44 l 2
 844 22 829 11 804 11 c 0
 784 11 773 20 773 37 c 0
 773 41 774 46 775 51 c 2
 877 467 l 1
 788 461 675 461 653 461 c 0
 258 461 150 515 150 551 c 0
 150 586 463 1015 937 1449 c 0
 948 1457 957 1461 965 1461 c 0
EndSplineSet
EndChar

StartChar: five
Encoding: 53 53 150
Width: 1213
VWidth: 3622
Flags: W
HStem: -1 69<390.017 799.711> 884 73<586.583 975.943> 1350 97<631 730.534 730.534 734.408 732.471 1147.08> 1373 72<1170.9 1268>
VStem: 196 98<158.687 403.865> 1123 73<365.549 740.129>
LayerCount: 2
Fore
SplineSet
1123 569 m 0xec
 1123 702 1055 884 782 884 c 0
 629 884 482 837 400 808 c 1
 542 1348 l 2
 569 1445 571 1438 571 1445 c 1xdc
 573 1446 580 1447 592 1447 c 0xec
 636 1447 776 1434 1014 1434 c 0
 1156 1434 1277 1445 1291 1445 c 0
 1304 1445 1310 1440 1310 1428 c 0
 1310 1413 1299 1380 1268 1373 c 0xdc
 1140 1358 1010 1350 838 1350 c 0
 767 1350 698 1352 631 1355 c 1
 524 934 l 1
 658 956 741 957 795 957 c 0
 1036 957 1196 851 1196 610 c 0
 1196 435 1130 230 960 116 c 0
 840 35 714 -1 563 -1 c 0
 261 -1 196 166 196 277 c 0
 196 332 223 470 259 491 c 0
 268 497 278 499 287 499 c 0
 301 499 321 493 321 466 c 0
 321 446 294 385 294 304 c 0
 294 222 326 68 572 68 c 0
 842 68 1123 246 1123 569 c 0xec
EndSplineSet
EndChar

StartChar: six
Encoding: 54 54 151
Width: 1257
VWidth: 3622
Flags: W
HStem: -0 72<437.138 879.368> 757 65<570.482 998.299> 1344 73<770.576 1093.06>
VStem: 212 100<193.315 622.696> 1122 72<351.177 639.663> 1210 129<1075.8 1227>
LayerCount: 2
Fore
SplineSet
212 400 m 0
 212 820 488 1417 964 1417 c 0
 1213 1417 1284 1336 1339 1102 c 1
 1335 1085 1331 1065 1296 1065 c 0
 1229 1065 1275 1123 1210 1227 c 0
 1139 1341 1020 1344 976 1344 c 0
 569 1344 340 887 297 550 c 1
 392 732 552 822 822 822 c 0
 1101 822 1194 643 1194 480 c 0
 1194 439 1185 270 1021 122 c 0
 932 41 803 -0 634 -0 c 0
 296 -0 212 184 212 400 c 0
808 757 m 0
 553 757 312 625 312 353 c 0
 312 227 375 72 636 72 c 0
 1001 72 1122 298 1122 472 c 0
 1122 612 1059 757 808 757 c 0
EndSplineSet
EndChar

StartChar: seven
Encoding: 55 55 152
Width: 1155
VWidth: 3622
GlyphClass: 2
Flags: W
HStem: 685 79<994 1038.42 1038.42 1068.33 1068.33 1189.88> 1373 86<518.592 960.468>
VStem: 1074 88<1053.65 1321.75>
LayerCount: 2
Fore
SplineSet
651 655 m 0
 625 655 618 675 618 682 c 0
 618 693 633 727 683 732 c 0
 708 735 729 738 746 741 c 2
 796 750 l 2
 832 756 820 753 916 768 c 1
 994 942 l 2
 1026 1013 1074 1139 1074 1219 c 0
 1074 1273 1055 1310 1017 1331 c 0
 965 1359 894 1373 805 1373 c 0
 660 1373 472 1314 402 1314 c 0
 360 1314 354 1332 354 1344 c 0
 354 1404 747 1459 838 1459 c 0
 996 1459 1162 1416 1162 1243 c 0
 1162 1165 1126 1053 994 764 c 1
 1109 764 1124 766 1138 766 c 0
 1175 766 1191 758 1191 736 c 0
 1191 705 1169 685 1082 685 c 0
 1058 685 1014 684 948 681 c 1
 863 514 l 2
 770 328 588 4 519 4 c 0
 505 4 491 15 491 26 c 0
 491 59 561 28 876 681 c 1
 670 665 703 656 660 656 c 0
 657 656 654 655 651 655 c 0
EndSplineSet
EndChar

StartChar: eight
Encoding: 56 56 153
Width: 1238
VWidth: 3622
Flags: W
HStem: 0 76<410.158 886.051> 826 76<675.125 960.469> 1362 76<758.702 1047.54>
VStem: 154 80<232.562 554.137> 537 77<959.327 1220.81> 1098 80<1101.45 1310.9> 1179 80<343.192 673.246>
LayerCount: 2
Fore
SplineSet
154 358 m 0
 154 617 343 780 603 877 c 1
 561 924 537 989 537 1060 c 0
 537 1281 735 1438 927 1438 c 0
 1065 1438 1178 1361 1178 1222 c 0
 1178 1179 1161 1084 1120 1008 c 0
 1100 969 1066 928 1017 884 c 1
 1080 854 1259 748 1259 545 c 0
 1259 271 1035 -0 623 0 c 0
 358 0 154 130 154 358 c 0
1179 511 m 0
 1179 700 1035 826 805 826 c 0
 517 826 234 647 234 384 c 0
 234 235 342 76 639 76 c 0
 1036 76 1179 337 1179 511 c 0
821 902 m 0
 1012 902 1098 1090 1098 1195 c 0
 1098 1252 1071 1362 918 1362 c 0
 744 1362 614 1228 614 1073 c 0
 614 959 708 902 821 902 c 0
EndSplineSet
EndChar

StartChar: nine
Encoding: 57 57 154
Width: 1216
VWidth: 3622
Flags: W
HStem: 4 69<411.607 805.108> 557 76<537.934 931.099> 1366 76<683.742 1097.76>
VStem: 175 82<215.383 419.451 418.508 420.394> 337 81<747.603 1106.47> 1233 100<819.623 1216.24>
LayerCount: 2
Fore
SplineSet
260 447 m 0
 260 435 257 423 257 389 c 0
 257 253 327 73 608 73 c 0
 996 73 1180 528 1254 874 c 1
 1099 594 834 557 725 557 c 0
 506 557 337 622 337 881 c 0
 337 1155 526 1442 907 1442 c 0
 1173 1442 1333 1284 1333 1013 c 0
 1333 728 1129 4 601 4 c 0
 263 4 175 210 175 348 c 0
 175 395 179 478 238 478 c 0
 253 478 260 467 260 447 c 0
743 633 m 0
 948 633 1233 815 1233 1070 c 0
 1233 1177 1164 1264 1129 1298 c 0
 1084 1344 1004 1366 891 1366 c 0
 623 1366 418 1182 418 905 c 0
 418 796 466 633 743 633 c 0
EndSplineSet
EndChar

StartChar: colon
Encoding: 58 58 155
Width: 622
VWidth: 3622
Flags: W
HStem: 90 66<311.906 438.824> 304 66<322.904 455.05> 637 65<404.436 528.905> 851 65<413.778 545.269>
VStem: 241 67<157.282 286.567> 331 68<703.458 833.727> 459 66<177.244 282.806> 549 68<721.978 831.144>
LayerCount: 2
Fore
SplineSet
331 749 m 0
 331 835 420 916 502 916 c 0
 579 916 617 859 617 807 c 0
 617 727 537 637 442 637 c 0
 371 637 331 694 331 749 c 0
485 851 m 0
 458 851 399 814 399 769 c 0
 399 735 429 702 453 702 c 0
 494 702 549 751 549 792 c 0
 549 816 524 851 485 851 c 0
241 201 m 0
 241 295 334 370 410 370 c 0
 487 370 525 313 525 261 c 0
 525 180 447 90 350 90 c 0
 283 90 241 144 241 201 c 0
393 304 m 0
 368 304 308 268 308 219 c 0
 308 187 338 156 361 156 c 0
 408 156 459 210 459 242 c 0
 459 260 439 304 393 304 c 0
EndSplineSet
EndChar

StartChar: semicolon
Encoding: 59 59 156
Width: 622
VWidth: 3622
Flags: MW
HStem: -173 39<171.391 276.923> 101 55<307.81 442.67> 311 52<319.778 459.805> 677 66<445.695 572.698> 891 66<455.396 587.959>
VStem: 245 59<158.196 293.4> 373 68<745.028 873.636> 463 74<103.006 290.085> 480 57<28.6791 233.565 168.5 177> 592 66<763.418 886.958>
LayerCount: 2
Fore
SplineSet
202 -173 m 1
 178 -173 170 -165 170 -154 c 0
 170 -145 176 -139 187 -134 c 1
 392 -92 480 46 480 160 c 0
 480 166 479 171 479 177 c 1
 462 139 415 101 350 101 c 0
 290 101 245 149 245 205 c 0
 245 277 316 363 412 363 c 0
 460 363 537 327 537 214 c 0
 537 104 490 -25 386 -94 c 0
 320 -137 259 -164 202 -173 c 1
373 787 m 0
 373 875 459 957 543 957 c 0
 618 957 658 899 658 849 c 0
 658 763 574 677 485 677 c 0
 416 677 373 731 373 787 c 0
394 311 m 0
 366 311 304 277 304 222 c 0
 304 186 333 156 361 156 c 0
 413 156 463 210 463 249 c 0
 463 270 446 311 394 311 c 0
525 891 m 0
 498 891 441 850 441 810 c 0
 441 777 468 743 493 743 c 0
 542 743 592 796 592 831 c 0
 592 855 565 891 525 891 c 0
EndSplineSet
EndChar

StartChar: less
Encoding: 60 60 157
Width: 1390
VWidth: 3622
Flags: MW
HStem: 799 151<958.054 1420.2>
VStem: 306 88<493 577.71>
LayerCount: 2
Fore
SplineSet
1244 172 m 0
 1244 133 1201 128 1186 128 c 0
 1169 128 1146 134 1120 145 c 0
 958 214 306 379 306 529 c 0
 306 718 1376 950 1376 950 c 1
 1411 950 1429 943 1429 930 c 0
 1429 879 1320 871 1076 799 c 2
 852 732 l 2
 547 637 394 577 394 539 c 0
 394 470 776 353 781 351 c 0
 1203 218 1244 237 1244 172 c 0
EndSplineSet
EndChar

StartChar: equal
Encoding: 61 61 158
Width: 1123
VWidth: 3622
Flags: MW
HStem: 547 87<221.011 291.477 256.242 530.159> 570 86<849.613 1133.59> 812 88<277.241 348.977 348.977 1179.43>
LayerCount: 2
Fore
SplineSet
1180 871 m 0
 1180 850 1166 819 1120 819 c 2
 313 812 l 1
 279 817 276 846 276 852 c 0
 276 871 292 900 342 900 c 0
 346 900 351 899 356 899 c 2
 1144 906 l 2
 1173 906 1180 888 1180 871 c 0
1134 620 m 0
 1134 600 1119 570 1074 570 c 2
 256 547 l 1
 231 551 221 575 221 590 c 0
 221 609 236 634 282 634 c 0
 288 634 294 634 301 633 c 1
 1098 656 l 2
 1127 656 1134 637 1134 620 c 0
EndSplineSet
EndChar

StartChar: greater
Encoding: 62 62 159
Width: 1390
VWidth: 3622
Flags: MW
HStem: 799 151<389.415 794.717>
VStem: 1252 88<501.675 588.417>
LayerCount: 2
Fore
SplineSet
283 128 m 0
 269 128 240 134 240 156 c 0
 240 217 336 234 379 245 c 0
 442 261 1252 454 1252 546 c 0
 1252 596 1004 685 874 732 c 2
 678 799 l 2
 445 876 380 873 380 922 c 0
 380 941 402 950 444 950 c 1
 444 950 1340 724 1340 555 c 0
 1340 495 1258 412 725 256 c 2
 356 145 l 2
 324 134 300 128 283 128 c 0
EndSplineSet
EndChar

StartChar: question
Encoding: 63 63 160
Width: 1093
VWidth: 3622
Flags: W
HStem: 51 170<496.619 627.756> 1424 90<641.686 1008.07>
VStem: 367 89<1023.78 1207.66> 476 173<71.4253 199.526> 1104 89<1011.87 1332.67>
LayerCount: 2
Fore
SplineSet
476 120 m 0
 476 176 533 221 582 221 c 0
 625 221 649 186 649 155 c 0
 649 102 600 51 547 51 c 0
 500 51 476 85 476 120 c 0
849 1424 m 0
 475 1424 456 1131 456 1114 c 0
 456 1032 539 992 580 978 c 0
 601 969 612 958 612 944 c 0
 612 933 597 897 561 888 c 1
 461 903 367 974 367 1090 c 0
 367 1204 466 1514 863 1514 c 0
 1064 1514 1193 1402 1193 1196 c 0
 1193 924 984 837 766 607 c 0
 639 473 705 386 610 370 c 1
 607 371 583 379 583 416 c 0
 583 454 628 595 734 692 c 0
 925 867 1104 960 1104 1178 c 0
 1104 1287 1053 1424 849 1424 c 0
EndSplineSet
EndChar

StartChar: at
Encoding: 64 64 161
Width: 1859
VWidth: 3622
Flags: W
HStem: 4 72<727.537 1176.76> 318 63<1320.82 1351.9 1336.36 1504.99> 327 66<830.006 1151> 1083 59<986.319 1268.73> 1387 76<984.184 1474.61>
VStem: 324 86<378.851 814.727> 675 69<476.865 813.327> 1747 77<727.822 1138.09>
LayerCount: 2
Fore
SplineSet
744 620 m 0xbf
 744 527 792 393 983 393 c 0
 1086 393 1187 437 1242 525 c 0
 1261 564 1279 604 1316 729 c 2
 1339 840 l 2
 1342 857 1343 873 1343 889 c 0
 1343 1028 1215 1083 1144 1083 c 0
 920 1083 744 835 744 620 c 0xbf
1400 381 m 0xdf
 1578 381 1747 739 1747 950 c 0
 1747 1138 1623 1387 1231 1387 c 0
 786 1387 410 994 410 584 c 0
 410 386 523 76 994 76 c 0
 1098 76 1252 106 1289 120 c 1
 1303 114 1311 105 1311 91 c 0
 1311 21 1034 4 977 4 c 0
 577 4 324 231 324 572 c 0
 324 1016 740 1463 1256 1463 c 0
 1589 1463 1824 1258 1824 961 c 0
 1824 722 1639 309 1394 309 c 0
 1348 309 1340 318 1321 318 c 0xdf
 1292 318 1257 334 1238 428 c 1
 1205 389 1135 327 980 327 c 0xbf
 742 327 675 458 675 595 c 0
 675 855 871 1142 1139 1142 c 0
 1292 1142 1354 1067 1394 989 c 1
 1429 1083 l 2
 1438 1100 1451 1109 1468 1109 c 0
 1486 1109 1514 1099 1514 1083 c 2
 1514 1079 l 1
 1465 996 1315 512 1315 458 c 0
 1315 428 1328 381 1400 381 c 0xdf
EndSplineSet
EndChar

StartChar: A
Encoding: 65 65 162
Width: 1358
VWidth: 3622
Flags: W
HStem: 421 76<488 991.353> 421 60<616.647 1120 1217 1279.99> 1394 88<972.945 1050.13>
VStem: 1143 72<305.689 421> 1159 79<35 166.311>
LayerCount: 2
Fore
SplineSet
200 16 m 0x70
 176 16 173 28 173 36 c 0
 173 39 174 43 175 48 c 1
 403 488 l 1
 651 934 l 2
 867 1337 956 1482 1028 1482 c 0
 1092 1482 1120 1389 1188 719 c 0
 1195 643 1205 564 1217 481 c 1
 1259 481 l 1
 1273 477 1280 469 1280 456 c 0
 1280 440 1272 421 1243 421 c 2
 1215 421 l 1x70
 1238 51 l 1
 1231 29 1216 19 1190 19 c 0
 1171 19 1161 25 1159 35 c 1x68
 1143 421 l 1
 448 421 l 1
 251 44 l 1
 235 25 218 16 200 16 c 0x70
1120 488 m 1
 1115 509 1114 575 1100 704 c 2
 1079 884 l 2
 1056 1080 1059 1141 1017 1349 c 0
 1011 1379 1007 1394 1005 1394 c 0
 991 1394 885 1205 860 1161 c 2
 617 729 l 1
 546 594 l 2
 521 551 502 518 488 497 c 1xa0
 1120 488 l 1
EndSplineSet
EndChar

StartChar: B
Encoding: 66 66 163
Width: 1216
VWidth: 3622
Flags: W
HStem: 55 79<129 170> 55 57<260 289.408 289.408 426.484 426.484 436.059 431.272 865.271> 706 69<581.031 684 684 729 941 941.045> 1410 60<648.54 1082.8>
VStem: 191 69<138.152 541.643> 1095 68<293.322 586.098> 1264 67<992.085 1263.11>
LayerCount: 2
Fore
SplineSet
566 46 m 0xbe
 502 46 406 55 246 55 c 1x7e
 233 28 216 14 195 14 c 0
 178 14 169 24 169 43 c 0
 169 46 169 51 170 55 c 1xbe
 111 55 l 1x7e
 91 59 81 68 81 82 c 0
 81 103 95 128 129 134 c 1
 191 134 l 1
 333 593 436 1129 465 1307 c 1
 442 1307 430 1304 407 1304 c 1
 398 1311 394 1319 394 1328 c 0
 394 1413 743 1470 872 1470 c 0
 1080 1470 1331 1400 1331 1161 c 0
 1331 906 1061 763 941 736 c 1
 1092 693 1163 572 1163 463 c 0
 1163 380 1119 231 1008 156 c 0
 953 118 831 46 566 46 c 0xbe
1264 1134 m 0
 1264 1299 1098 1410 831 1410 c 0
 725 1410 633 1393 554 1358 c 1
 557 1362 l 1
 419 630 338 360 260 117 c 1
 278 118 297 118 319 118 c 0
 404 118 469 112 533 112 c 0
 833 112 1095 182 1095 458 c 0
 1095 657 865 703 677 706 c 2
 605 706 l 2
 578 706 565 715 565 732 c 0
 565 773 586 775 639 775 c 0
 671 773 697 778 729 778 c 0
 933 778 1264 869 1264 1134 c 0
EndSplineSet
EndChar

StartChar: C
Encoding: 67 67 164
Width: 1430
VWidth: 3622
Flags: W
HStem: -4 77<552.652 1036.61> 1406 76<947.062 1262.1>
VStem: 226 75<316.767 765.004>
LayerCount: 2
Fore
SplineSet
1120 1482 m 0
 1305 1482 1415 1360 1489 1272 c 1
 1504 1343 1516 1378 1532 1449 c 0
 1535 1466 1550 1472 1564 1472 c 0
 1572 1472 1586 1470 1601 1452 c 1
 1576 1334 l 2
 1536 1144 1524 1127 1494 1127 c 0
 1478 1127 1465 1133 1456 1144 c 0
 1297 1401 1181 1406 1094 1406 c 0
 641 1406 301 922 301 516 c 0
 301 314 419 73 789 73 c 0
 924 73 1044 106 1150 172 c 0
 1254 239 1336 347 1394 497 c 0
 1404 522 1421 534 1443 534 c 0
 1464 534 1475 524 1475 507 c 0
 1475 491 1350 -4 773 -4 c 0
 553 -4 226 97 226 502 c 0
 226 792 419 1259 846 1428 c 0
 939 1464 1030 1482 1120 1482 c 0
EndSplineSet
EndChar

StartChar: D
Encoding: 68 68 165
Width: 1399
VWidth: 3622
Flags: W
HStem: 11 86<230 285.5 285.5 341 416 436.5 316.314 740.285> 1373 79<514.71 577 667 968.523> 1462 20G<623 645>
VStem: 1380 89<640.718 1075.1>
LayerCount: 2
Fore
SplineSet
196 49 m 0
 196 58 199 94 230 97 c 1
 341 83 l 1
 577 1373 l 1
 529 1373 l 2
 491 1376 482 1396 482 1411 c 0
 482 1451 549 1452 591 1452 c 1
 598 1472 612 1482 634 1482 c 0
 656 1482 667 1472 667 1452 c 1
 1324 1441 1469 1107 1469 878 c 0
 1469 459 1055 11 408 11 c 0
 203 11 196 22 196 49 c 0
416 87 m 1
 430 86 443 86 457 86 c 0
 867 86 1380 386 1380 873 c 0
 1380 1259 986 1369 651 1376 c 1
 416 87 l 1
EndSplineSet
EndChar

StartChar: E
Encoding: 69 69 166
Width: 1112
VWidth: 3622
Flags: W
HStem: 40 50<294.096 652.114 470.043 963.933> 47 71<112.003 170.885 170.885 189 294.096 450 450 725.088> 729 76<282.564 352.02 352.02 364 455 514.177 514.177 516.783 516.783 787.731 787.731 1019> 1380 58<472.25 499 573 623.137 623.137 661.578 642.357 1174.83>
LayerCount: 2
Fore
SplineSet
112 79 m 0x70
 112 96 115 118 135 118 c 2
 139 118 l 1x70
 189 111 l 1
 224 207 254 306 282 408 c 2
 364 729 l 1
 315 736 l 1
 293 736 282 748 282 756 c 1
 282 756 293 803 340 803 c 0
 349 803 363 802 380 801 c 1
 393 859 463 1117 499 1380 c 1
 489 1380 l 2
 467 1380 456 1387 456 1402 c 0
 456 1431 481 1438 511 1438 c 0
 654 1447 798 1448 870 1448 c 0
 1116 1448 1277 1437 1320 1427 c 0
 1331 1423 1336 1417 1336 1408 c 0
 1336 1402 1329 1365 1288 1362 c 1
 1212 1370 1036 1377 849 1377 c 0
 727 1377 657 1375 573 1369 c 1
 565 1320 554 1264 540 1201 c 2
 502 1017 l 2
 488 945 473 878 455 808 c 1
 488 806 527 805 574 805 c 2
 719 805 l 2
 1019 805 1019 795 1019 766 c 0
 1019 742 1020 725 962 725 c 0
 923 725 667 735 581 735 c 0
 511 735 468 732 440 729 c 1
 432 688 421 641 406 589 c 2
 314 268 l 2
 299 215 288 168 279 127 c 1
 472 113 563 90 733 90 c 0
 839 90 919 99 998 111 c 1
 1027 111 1042 94 1042 83 c 0
 1042 50 976 29 769 29 c 0
 705 29 642 31 450 40 c 2xb0
 276 48 l 2
 248 49 224 49 204 49 c 0
 169 49 157 47 145 47 c 0
 116 47 112 55 112 79 c 0x70
EndSplineSet
EndChar

StartChar: F
Encoding: 70 70 167
Width: 1075
VWidth: 3622
Flags: W
HStem: 692 76<471 579.464 579.464 596.717 588.09 897.351> 1366 68<363.072 493> 1376 73<587 709.171 709.171 741.48 725.326 1197.9>
VStem: 493 78<1105.47 1369> 501 86<1449 1496 1496.28 1533.31>
LayerCount: 2
Fore
SplineSet
216 672 m 0xb0
 216 679 221 717 248 725 c 1
 244 725 l 1
 387 750 l 1
 413 873 439 996 493 1369 c 1
 394 1366 l 2
 374 1366 363 1374 363 1391 c 0
 363 1408 371 1434 409 1434 c 2xd0
 501 1438 l 1
 508 1511 l 2
 516 1547 544 1549 551 1549 c 0
 571 1549 587 1531 587 1511 c 0
 587 1507 586 1502 585 1496 c 1
 587 1449 l 1xa8
 686 1449 785 1458 916 1458 c 0
 1211 1458 1310 1433 1310 1396 c 0
 1310 1379 1295 1362 1268 1351 c 1
 1183 1369 1072 1380 832 1380 c 0
 759 1380 672 1379 571 1376 c 1
 548 1175 511 965 471 768 c 1
 490 768 632 781 797 781 c 0
 898 781 1038 771 1038 729 c 0
 1038 720 1030 688 996 688 c 0
 870 699 742 705 679 705 c 0
 610 705 535 701 455 692 c 1
 400 440 l 2
 351 205 299 14 258 14 c 0
 248 14 210 18 210 32 c 0
 210 39 263 194 306 379 c 2
 375 692 l 1
 294 665 l 2
 270 657 252 653 239 653 c 0
 224 653 216 659 216 672 c 0xb0
EndSplineSet
EndChar

StartChar: G
Encoding: 71 71 168
Width: 1517
VWidth: 3622
Flags: W
HStem: 7 76<569.429 1019.59> 619 80<1212.01 1305 1305 1311.61 1311.61 1363 1446 1535.45> 1351 80<826.482 1296.34>
VStem: 240 88<327.595 810.017>
LayerCount: 2
Fore
SplineSet
240 555 m 0
 240 983 601 1431 1071 1431 c 0
 1309 1431 1411 1359 1511 1224 c 1
 1549 1232 1542 1306 1550 1339 c 0
 1553 1354 1560 1362 1582 1362 c 0
 1600 1362 1609 1357 1609 1346 c 0
 1609 1345 1608 1343 1608 1341 c 0
 1607 1321 1604 1297 1599 1273 c 0
 1574 1155 1537 1154 1502 1154 c 0
 1478 1154 1458 1162 1442 1177 c 0
 1342 1272 1322 1351 1060 1351 c 0
 581 1351 328 899 328 551 c 0
 328 284 478 83 800 83 c 0
 1159 83 1300 326 1363 619 c 1
 1247 630 l 2
 1222 633 1212 648 1212 663 c 0
 1212 683 1231 706 1259 706 c 0
 1311 701 1351 699 1376 699 c 2
 1469 699 l 2
 1518 699 1538 693 1538 676 c 0
 1538 668 1530 633 1501 633 c 2
 1446 633 l 1
 1440 606 l 0
 1382 333 1192 7 783 7 c 0
 418 7 240 256 240 555 c 0
EndSplineSet
EndChar

StartChar: H
Encoding: 72 72 169
Width: 1383
VWidth: 3622
Flags: W
HStem: 612 76<826.008 1231 1316 1420.33> 630 69<256.01 371 469 844.992>
LayerCount: 2
Fore
SplineSet
256 657 m 0x40
 256 670 269 702 301 702 c 2
 396 699 l 1
 621 1463 l 2
 632 1492 654 1498 671 1498 c 0
 690 1498 707 1488 707 1472 c 0
 707 1468 706 1464 704 1459 c 2
 469 699 l 1x40
 1238 688 l 1
 1371 1463 l 2
 1377 1486 1396 1500 1421 1500 c 0
 1439 1500 1455 1491 1455 1478 c 0
 1455 1474 1454 1470 1452 1466 c 1
 1316 688 l 1
 1399 685 l 2
 1420 683 1430 673 1430 657 c 0
 1430 640 1422 612 1387 612 c 2
 1300 612 l 1
 1196 69 l 2
 1191 50 1171 16 1133 16 c 0
 1115 16 1109 24 1109 35 c 0
 1109 39 1110 43 1111 48 c 2
 1231 612 l 1x80
 440 626 l 1
 272 25 l 1
 265 11 254 5 237 5 c 0
 223 5 199 8 199 23 c 0
 199 26 200 30 203 35 c 1
 371 630 l 1
 283 633 l 2
 265 636 256 644 256 657 c 0x40
EndSplineSet
EndChar

StartChar: I
Encoding: 73 73 170
Width: 804
VWidth: 3622
Flags: MW
HStem: 21 66<94 166.477 166.477 395.058 515.544 666 666 760.024> 1390 75<353.171 400.501 400.501 563.738 458.438 864.832 666.231 716 789 832.8 592.969 1012.37 961.311 1063.43>
LayerCount: 2
Fore
SplineSet
108 90 m 0
 147 87 185 87 225 87 c 2
 318 87 l 2
 350 87 376 89 396 94 c 1
 403 116 413 149 424 194 c 2
 611 948 l 2
 681 1234 696 1314 716 1390 c 1
 686 1393 656 1396 616 1396 c 0
 595 1396 563 1395 510 1392 c 2
 405 1387 l 2
 401 1386 396 1386 392 1386 c 0
 362 1386 353 1404 353 1416 c 0
 353 1445 368 1465 774 1465 c 0
 1064 1465 1064 1460 1064 1439 c 0
 1064 1427 1047 1390 1021 1390 c 0
 963 1395 905 1399 876 1399 c 0
 853 1399 825 1397 789 1394 c 1
 783 1365 772 1318 756 1251 c 2
 506 240 l 2
 490 172 477 123 469 94 c 1
 537 81 625 80 642 80 c 0
 658 79 674 78 690 78 c 2
 738 80 l 2
 758 79 768 71 768 56 c 0
 768 43 759 11 723 11 c 2
 94 21 l 1
 80 26 73 34 73 45 c 0
 73 57 87 90 108 90 c 0
EndSplineSet
EndChar

StartChar: J
Encoding: 74 74 171
Width: 1017
VWidth: 3622
Flags: W
HStem: 4 69<304.52 590.431> 1383 77<951.375 1004 977.688 1229.49 1171 1218.78 1085.08 1324.98 1285.96 1363.99>
VStem: 133 76<170.122 427.767>
LayerCount: 2
Fore
SplineSet
1305 1388 m 0
 1297 1388 1294 1389 1266 1389 c 0
 1240 1389 1209 1388 1171 1387 c 1
 1148 1308 1129 1233 1114 1163 c 2
 1026 754 l 2
 970 478 924 275 766 126 c 0
 636 5 504 4 474 4 c 0
 201 4 133 177 133 326 c 0
 133 382 142 447 161 522 c 0
 168 550 180 565 198 565 c 0
 215 565 232 559 232 537 c 0
 232 526 209 435 209 345 c 0
 209 127 332 73 481 73 c 0
 649 73 815 213 902 536 c 0
 945 688 973 822 1002 976 c 2
 1041 1177 l 2
 1054 1244 1071 1314 1091 1387 c 1
 1094 1388 1095 1389 1095 1389 c 1
 1095 1390 1092 1390 1086 1390 c 0
 1070 1390 938 1383 922 1383 c 0
 896 1383 892 1402 892 1409 c 0
 892 1459 972 1460 1127 1460 c 0
 1353 1460 1364 1445 1364 1431 c 0
 1364 1422 1359 1388 1305 1388 c 0
EndSplineSet
EndChar

StartChar: K
Encoding: 75 75 172
Width: 1216
VWidth: 3622
Flags: W
HStem: 1456 20G<505.5 545.5>
LayerCount: 2
Fore
SplineSet
1475 1462 m 0
 1494 1462 1498 1440 1498 1424 c 0
 1498 1402 1503 1388 1258 1236 c 2
 937 1040 l 1
 529 801 l 1
 529 734 705 503 998 237 c 0
 1146 104 1167 105 1167 82 c 0
 1167 56 1143 30 1120 30 c 0
 1112 30 1104 34 1097 41 c 0
 803 276 623 462 437 761 c 1
 281 80 l 2
 270 50 248 30 226 30 c 0
 215 30 194 37 194 66 c 0
 194 92 232 214 367 824 c 0
 512 1476 476 1476 535 1476 c 0
 556 1476 575 1464 575 1446 c 0
 575 1436 510 1192 456 851 c 1
 883 1099 1097 1223 1230 1306 c 2
 1364 1392 l 2
 1402 1418 1432 1439 1452 1456 c 1
 1461 1460 1468 1462 1475 1462 c 0
EndSplineSet
EndChar

StartChar: L
Encoding: 76 76 173
Width: 1047
VWidth: 3622
Flags: W
HStem: 25 74<292.779 733.69> 56 105<663.621 992.494>
VStem: 184 72<138.777 295.498>
LayerCount: 2
Fore
SplineSet
573 1486 m 256xa0
 587 1486 607 1481 607 1459 c 0
 607 1450 508 1220 419 895 c 2
 276 359 l 2
 263 316 256 278 256 244 c 0
 256 134 331 99 446 99 c 0xa0
 623 99 910 161 966 161 c 0
 986 161 999 142 999 124 c 0
 999 72 937 75 818 56 c 0x60
 752 44 616 25 481 25 c 0
 291 25 184 24 184 198 c 0
 184 239 191 301 212 402 c 2
 300 742 l 2
 327 845 354 940 380 1025 c 2
 454 1260 l 2
 527 1478 532 1486 573 1486 c 256xa0
EndSplineSet
EndChar

StartChar: M
Encoding: 77 77 174
Width: 1690
VWidth: 3622
Flags: W
HStem: 11 21G<233 250> 1410 79<655.163 770.655 1508.61 1638.5>
VStem: 200 81<48.7631 1128.59> 914 73<729 802.007> 1601 85<981.989 1405.19>
LayerCount: 2
Fore
SplineSet
1638 1489 m 0
 1676 1489 1686 1436 1686 1373 c 0
 1686 1114 1578 673 1484 48 c 0
 1483 26 1477 -0 1438 0 c 0
 1426 0 1412 4 1396 11 c 1
 1488 536 l 2
 1538 811 1601 1241 1601 1370 c 0
 1601 1394 1599 1406 1594 1406 c 1
 1408 1375 1081 870 982 557 c 0
 975 531 962 518 942 518 c 0
 924 518 914 528 913 547 c 0
 913 564 914 582 914 600 c 0
 914 778 896 1103 798 1315 c 0
 770 1378 734 1410 693 1410 c 0
 611 1410 366 430 281 32 c 1
 272 18 258 11 242 11 c 0
 224 11 211 16 200 25 c 1
 476 1289 599 1489 699 1489 c 0
 883 1489 987 1122 987 729 c 1
 1169 1219 1489 1489 1638 1489 c 0
EndSplineSet
EndChar

StartChar: N
Encoding: 78 78 175
Width: 1551
VWidth: 3622
Flags: W
HStem: 28 89<1218.08 1273.82> 1461 20G<562 603 1614.5 1632>
LayerCount: 2
Fore
SplineSet
1624 1481 m 0
 1640 1481 1660 1475 1660 1450 c 0
 1660 1446 1660 1442 1659 1438 c 2
 1558 966 l 2
 1533 837 1428 356 1344 161 c 0
 1307 72 1271 28 1236 28 c 0
 1215 28 1179 52 1132 133 c 2
 1072 248 l 2
 929 535 734 1041 594 1312 c 0
 575 1348 577 1348 575 1348 c 1
 520 1144 471 929 426 702 c 0
 288 -1 308 23 244 23 c 0
 231 23 208 27 208 42 c 0
 208 54 213 50 269 316 c 2
 399 939 l 2
 491 1366 544 1482 580 1482 c 0
 626 1482 722 1296 797 1130 c 1
 797 1129 1022 609 1075 474 c 2
 1134 335 l 1
 1135 335 1229 117 1250 117 c 0
 1289 117 1459 877 1507 1098 c 2
 1581 1445 l 1
 1590 1469 1605 1481 1624 1481 c 0
EndSplineSet
EndChar

StartChar: O
Encoding: 79 79 176
Width: 1630
VWidth: 3622
Flags: W
HStem: 21 80<586.505 973.298> 1383 83<837.825 1310.87>
VStem: 242 88<332.223 702.666> 1586 88<630.42 1106.52>
LayerCount: 2
Fore
SplineSet
1090 1466 m 256
 1424 1466 1674 1266 1674 900 c 0
 1674 624 1528 193 1049 59 c 0
 958 34 868 21 778 21 c 0
 464 21 242 214 242 513 c 0
 242 845 499 1466 1090 1466 c 256
330 529 m 0
 330 243 562 101 803 101 c 0
 1286 101 1586 429 1586 871 c 0
 1586 1096 1483 1383 1072 1383 c 0
 782 1383 459 1191 348 685 c 0
 336 628 330 576 330 529 c 0
EndSplineSet
EndChar

StartChar: P
Encoding: 80 80 177
Width: 1199
VWidth: 3622
Flags: W
HStem: 577 80<543.159 975.58> 1390 66<693.813 1094>
VStem: 474 61<1393.55 1469.99> 1292 72<921.717 1225.2>
LayerCount: 2
Fore
SplineSet
1292 1085 m 0
 1292 1260 1113 1390 867 1390 c 0
 730 1390 611 1352 524 1314 c 1
 452 870 l 2
 444 816 437 764 430 713 c 1
 518 678 616 657 727 657 c 0
 1085 657 1292 876 1292 1085 c 0
509 1470 m 0
 517 1470 535 1463 535 1437 c 0
 535 1426 528 1382 527 1380 c 1
 658 1437 785 1456 883 1456 c 0
 1158 1456 1364 1320 1364 1117 c 0
 1364 884 1168 577 739 577 c 0
 648 577 532 591 410 640 c 1
 276 21 l 2
 269 1 240 -13 217 -13 c 0
 203 -13 183 -7 183 15 c 0
 183 37 274 321 345 736 c 0
 378 931 412 1108 448 1279 c 1
 428 1268 405 1257 395 1257 c 0
 383 1257 374 1267 374 1279 c 0
 374 1302 407 1342 460 1355 c 1
 474 1434 l 2
 477 1458 495 1470 509 1470 c 0
EndSplineSet
EndChar

StartChar: Q
Encoding: 81 81 178
Width: 1593
VWidth: 3622
Flags: W
HStem: 32 79<575.591 1028.57> 1390 85<877.046 1282.76>
VStem: 246 84<348.146 809.904> 1558 93<642.193 1092.55>
LayerCount: 2
Fore
SplineSet
767 32 m 0
 350 32 246 302 246 539 c 0
 246 1095 699 1475 1111 1475 c 0
 1404 1475 1651 1254 1651 917 c 0
 1651 761 1598 575 1532 464 c 0
 1491 394 1431 324 1353 253 c 1
 1468 111 l 2
 1471 106 1473 100 1473 94 c 0
 1473 78 1456 44 1432 44 c 0
 1416 44 1404 49 1352 116 c 2
 1282 210 l 1
 1155 115 973 32 767 32 c 0
1094 465 m 0
 1094 487 1137 520 1157 520 c 0
 1179 520 1185 489 1237 414 c 2
 1312 311 l 1
 1488 478 1558 638 1558 856 c 0
 1558 1160 1372 1390 1093 1390 c 0
 743 1390 330 1029 330 560 c 0
 330 271 520 111 787 111 c 0
 961 111 1124 181 1238 272 c 1
 1098 453 l 2
 1095 457 1094 461 1094 465 c 0
EndSplineSet
EndChar

StartChar: R
Encoding: 82 82 179
Width: 1292
VWidth: 3622
Flags: W
HStem: 609 75<518.968 972.615> 1380 74<722.572 1121.14>
VStem: 1292 81<931.46 1232.7>
LayerCount: 2
Fore
SplineSet
1292 1090 m 0
 1292 1254 1149 1380 895 1380 c 0
 744 1380 613 1337 516 1297 c 1
 480 1049 445 999 421 739 c 1
 488 702 581 684 698 684 c 0
 945 684 1292 794 1292 1090 c 0
1373 1124 m 0
 1373 732 944 609 690 609 c 0
 623 609 514 617 421 667 c 1
 1118 97 l 1
 1122 91 1125 84 1125 78 c 0
 1125 54 1093 22 1068 22 c 0
 1062 22 1057 24 1052 28 c 2
 393 591 l 1
 286 48 273 -7 216 -7 c 0
 206 -7 184 -2 184 19 c 0
 184 41 279 335 345 739 c 0
 376 930 408 1107 444 1275 c 1
 424 1267 408 1262 398 1262 c 0
 382 1262 377 1274 377 1281 c 0
 377 1304 416 1351 456 1351 c 1
 469 1431 l 2
 470 1450 481 1459 502 1459 c 0
 522 1459 535 1454 541 1445 c 1
 534 1376 l 1
 681 1434 819 1454 928 1454 c 0
 1145 1454 1373 1366 1373 1124 c 0
EndSplineSet
EndChar

StartChar: S
Encoding: 83 83 180
Width: 1098
VWidth: 3622
Flags: W
HStem: 4 76<421.104 793.65> 1047 21G<1131 1165.5> 1394 76<661.355 1025.63>
VStem: 218 88<189.857 400.617 399.492 401.742 401.742 471.452> 356 82<910.95 1174.8> 982 77<254.527 528.266> 1113 85<1096.18 1105.76 1100.97 1303.62>
LayerCount: 2
Fore
SplineSet
1113 1075 m 0
 1113 1081 1117 1100 1117 1138 c 0
 1117 1302 1036 1394 848 1394 c 0
 550 1394 438 1144 438 1013 c 0
 438 729 914 817 1034 557 c 0
 1050 520 1059 483 1059 445 c 0
 1059 180 841 4 570 4 c 0
 370 4 218 117 218 331 c 0
 218 386 230 429 230 440 c 0
 230 466 262 473 275 473 c 0
 294 473 313 462 313 443 c 0
 313 439 306 401 306 354 c 0
 306 166 422 80 610 80 c 0
 888 80 982 291 982 416 c 0
 982 579 843 648 677 688 c 0
 361 767 356 941 356 1004 c 0
 356 1260 590 1470 881 1470 c 0
 1072 1470 1198 1362 1198 1174 c 0
 1198 1111 1191 1047 1140 1047 c 0
 1122 1047 1113 1056 1113 1075 c 0
EndSplineSet
EndChar

StartChar: T
Encoding: 84 84 181
Width: 1137
VWidth: 3622
Flags: MW
HStem: 1376 62<426.258 818.498> 1380 83<937 1206.22>
VStem: 821 116<1207.69 1376>
LayerCount: 2
Fore
SplineSet
1305 1362 m 0
 1218 1362 1232 1380 937 1380 c 1
 834 1110 596 81 591 55 c 0
 585 26 551 18 530 18 c 0
 513 18 484 24 484 47 c 0
 484 59 507 148 513 172 c 2
 567 394 l 2
 588 479 611 572 638 670 c 2
 776 1210 l 2
 795 1286 810 1341 821 1376 c 1
 719 1376 721 1377 412 1358 c 0
 396 1358 392 1378 392 1393 c 0
 392 1409 398 1438 425 1438 c 0
 576 1455 732 1463 894 1463 c 0
 1055 1463 1198 1458 1321 1449 c 0
 1339 1447 1348 1438 1348 1423 c 0
 1348 1405 1336 1366 1305 1362 c 0
EndSplineSet
EndChar

StartChar: U
Encoding: 85 85 182
Width: 1365
VWidth: 3622
Flags: W
HStem: 7 90<504.584 887.797> 1438 20G<525 541>
VStem: 264 106<234.073 595.524>
LayerCount: 2
Fore
SplineSet
1136 249 m 0
 1125 249 1032 7 645 7 c 0
 391 7 264 157 264 393 c 0
 264 505 267 476 418 1146 c 2
 483 1427 l 2
 488 1450 518 1458 532 1458 c 0
 550 1458 582 1447 582 1427 c 0
 582 1424 l 2
 400 633 l 2
 377 553 370 478 370 426 c 0
 370 273 431 97 676 97 c 0
 1062 97 1174 435 1220 653 c 2
 1387 1434 l 2
 1391 1460 1422 1470 1440 1470 c 0
 1456 1470 1483 1460 1483 1444 c 0
 1483 1442 1483 1440 1482 1438 c 1
 1199 41 l 2
 1194 10 1159 -2 1137 -2 c 0
 1118 -2 1098 5 1098 35 c 0
 1098 43 1140 206 1140 240 c 0
 1140 246 1138 249 1136 249 c 0
EndSplineSet
EndChar

StartChar: V
Encoding: 86 86 183
Width: 1379
VWidth: 3622
Flags: W
HStem: 2 132<662.357 734.729> 1450 20G<487 511 1468 1490.5>
LayerCount: 2
Fore
SplineSet
500 1470 m 0
 522 1470 550 1458 550 1438 c 2
 662 134 l 1
 762 127 l 1
 1426 1442 l 2
 1436 1465 1462 1468 1474 1468 c 0
 1507 1468 1518 1448 1518 1435 c 0
 1518 1431 1517 1428 1516 1424 c 1
 1514 1420 1120 619 1088 558 c 2
 976 339 l 2
 936 258 866 123 833 73 c 0
 805 23 732 2 677 2 c 0
 568 2 565 66 538 334 c 0
 495 742 474 1011 446 1438 c 1
 450 1457 474 1470 500 1470 c 0
EndSplineSet
EndChar

StartChar: W
Encoding: 87 87 184
Width: 1862
VWidth: 3622
Flags: W
HStem: 12 21G<1318.5 1338> 1444 20G<503 520>
VStem: 461 98<1349.27 1424> 532 94<138 241.5 241.5 345 561 998.726>
LayerCount: 2
Fore
SplineSet
461 1421 m 0xe0
 461 1446 492 1464 514 1464 c 0
 526 1464 553 1460 559 1424 c 0xe0
 603 1081 620 664 623 561 c 2
 625 345 l 2
 626 276 626 207 626 138 c 1
 780 362 l 1
 1034 748 l 2
 1064 792 1078 812 1113 812 c 0
 1153 812 1166 810 1242 520 c 2
 1341 142 l 1
 1498 515 l 1
 1912 1434 l 2
 1921 1456 1942 1460 1955 1460 c 0
 1980 1460 2005 1441 2005 1424 c 0
 2005 1412 1930 1267 1797 975 c 2
 1602 540 l 2
 1386 47 1413 47 1368 22 c 0
 1356 16 1344 12 1332 12 c 0
 1305 12 1276 30 1270 65 c 2
 1091 688 l 1
 696 113 l 2
 686 99 641 9 574 9 c 0
 547 9 537 27 532 51 c 1xd0
 528 435 511 771 497 1010 c 2
 480 1220 l 2
 462 1421 461 1411 461 1421 c 0xe0
EndSplineSet
EndChar

StartChar: X
Encoding: 88 88 185
Width: 1386
VWidth: 3622
Flags: W
HStem: 1462 20G<1489.5 1514.5>
LayerCount: 2
Fore
SplineSet
191 26 m 0
 163 26 145 48 145 63 c 0
 145 69 148 75 154 80 c 1
 150 80 l 1
 771 757 l 1
 629 1056 452 1429 452 1444 c 0
 452 1461 468 1488 509 1488 c 0
 523 1488 537 1485 545 1475 c 1
 700 1158 l 2
 756 1047 807 940 854 837 c 1
 1463 1466 l 2
 1472 1477 1483 1482 1496 1482 c 0
 1533 1482 1543 1450 1543 1441 c 0
 1543 1434 1539 1427 1532 1420 c 2
 899 757 l 1
 1259 62 l 2
 1260 60 1261 57 1261 55 c 0
 1261 40 1233 18 1186 18 c 0
 1173 18 1163 21 1157 28 c 1
 817 681 l 1
 233 44 l 2
 221 32 208 26 191 26 c 0
EndSplineSet
EndChar

StartChar: Y
Encoding: 89 89 186
Width: 1361
VWidth: 3622
Flags: W
HStem: 11 21G<679 695.5> 685 83<870 921.344> 1452 20G<504.5 529.5 1452 1475>
VStem: 462 99<1229.45 1452>
LayerCount: 2
Fore
SplineSet
1463 1472 m 0
 1487 1472 1511 1458 1511 1441 c 0
 1511 1436 1509 1430 1505 1424 c 2
 1340 1188 l 2
 1121 877 942 690 870 685 c 1
 746 55 l 2
 739 21 705 11 686 11 c 0
 672 11 642 17 642 42 c 0
 642 48 l 2
 771 688 l 1
 636 729 462 1325 462 1445 c 0
 462 1465 492 1477 517 1477 c 0
 542 1477 557 1466 561 1452 c 1
 577 1276 717 768 840 768 c 0
 938 768 1190 1125 1268 1238 c 2
 1413 1449 l 2
 1422 1463 1441 1472 1463 1472 c 0
EndSplineSet
EndChar

